<?xml version="1.0" encoding="UTF-8" standalone="no"?>
<!DOCTYPE svg PUBLIC "-//W3C//DTD SVG 1.1//EN"
 "http://www.w3.org/Graphics/SVG/1.1/DTD/svg11.dtd">
<!-- Generated by graphviz version 2.43.0 (0)
 -->
<!-- Title: src/domain/logic/CalculatorService.cpp Pages: 1 -->
<svg width="834pt" height="225pt"
 viewBox="0.00 0.00 833.50 225.00" xmlns="http://www.w3.org/2000/svg" xmlns:xlink="http://www.w3.org/1999/xlink">
<g id="graph0" class="graph" transform="scale(1 1) rotate(0) translate(4 221)">
<title>src/domain/logic/CalculatorService.cpp</title>
<!-- Node1 -->
<g id="Node000001" class="node">
<title>Node1</title>
<g id="a_Node000001"><a xlink:title=" ">
<polygon fill="#999999" stroke="#666666" points="605.5,-217 456.5,-217 456.5,-187 605.5,-187 605.5,-217"/>
<text text-anchor="start" x="464.5" y="-205" font-family="Helvetica,sans-Serif" font-size="10.00">src/domain/logic/Calculator</text>
<text text-anchor="middle" x="531" y="-194" font-family="Helvetica,sans-Serif" font-size="10.00">Service.cpp</text>
</a>
</g>
</g>
<!-- Node2 -->
<g id="Node000002" class="node">
<title>Node2</title>
<g id="a_Node000002"><a xlink:href="_calculator_service_8hpp.html" target="_top" xlink:title="Declares the application service coordinating domain calculations and I/O.">
<polygon fill="white" stroke="#666666" points="321.5,-151 132.5,-151 132.5,-132 321.5,-132 321.5,-151"/>
<text text-anchor="middle" x="227" y="-139" font-family="Helvetica,sans-Serif" font-size="10.00">domain/logic/CalculatorService.hpp</text>
</a>
</g>
</g>
<!-- Node1&#45;&gt;Node2 -->
<g id="edge1_Node000001_Node000002" class="edge">
<title>Node1&#45;&gt;Node2</title>
<g id="a_edge1_Node000001_Node000002"><a xlink:title=" ">
<path fill="none" stroke="#63b8ff" d="M458.18,-186.99C403.79,-176.52 330.62,-162.44 281.29,-152.95"/>
<polygon fill="#63b8ff" stroke="#63b8ff" points="281.93,-149.51 271.45,-151.05 280.61,-156.38 281.93,-149.51"/>
</a>
</g>
</g>
<!-- Node4 -->
<g id="Node000004" class="node">
<title>Node4</title>
<g id="a_Node000004"><a xlink:href="_track_data_8hpp.html" target="_top" xlink:title=" ">
<polygon fill="white" stroke="#666666" points="488,-24.5 328,-24.5 328,-5.5 488,-5.5 488,-24.5"/>
<text text-anchor="middle" x="408" y="-12.5" font-family="Helvetica,sans-Serif" font-size="10.00">domain/model/TrackData.hpp</text>
</a>
</g>
</g>
<!-- Node1&#45;&gt;Node4 -->
<g id="edge7_Node000001_Node000004" class="edge">
<title>Node1&#45;&gt;Node4</title>
<g id="a_edge7_Node000001_Node000004"><a xlink:title=" ">
<path fill="none" stroke="#63b8ff" d="M477.82,-186.95C458.95,-179.34 439.35,-167.9 427,-151 401.59,-116.24 402.7,-62.7 405.47,-34.63"/>
<polygon fill="#63b8ff" stroke="#63b8ff" points="408.96,-34.94 406.64,-24.6 402.01,-34.12 408.96,-34.94"/>
</a>
</g>
</g>
<!-- Node6 -->
<g id="Node000006" class="node">
<title>Node6</title>
<g id="a_Node000006"><a xlink:href="_delay_calculated_track_data_8hpp.html" target="_top" xlink:title=" ">
<polygon fill="white" stroke="#666666" points="170,-30 0,-30 0,0 170,0 170,-30"/>
<text text-anchor="start" x="8" y="-18" font-family="Helvetica,sans-Serif" font-size="10.00">domain/model/DelayCalculated</text>
<text text-anchor="middle" x="85" y="-7" font-family="Helvetica,sans-Serif" font-size="10.00">TrackData.hpp</text>
</a>
</g>
</g>
<!-- Node1&#45;&gt;Node6 -->
<g id="edge8_Node000001_Node000006" class="edge">
<title>Node1&#45;&gt;Node6</title>
<g id="a_edge8_Node000001_Node000006"><a xlink:title=" ">
<path fill="none" stroke="#63b8ff" d="M456.3,-200.02C373.14,-197.07 235.61,-186.6 123,-151 73.52,-135.36 46.69,-140.51 20,-96 13.14,-84.57 14.11,-77.96 20,-66 26.06,-53.68 36.78,-43.55 47.79,-35.71"/>
<polygon fill="#63b8ff" stroke="#63b8ff" points="49.77,-38.59 56.19,-30.16 45.91,-32.75 49.77,-38.59"/>
</a>
</g>
</g>
<!-- Node8 -->
<g id="Node000008" class="node">
<title>Node8</title>
<g id="a_Node000008"><a xlink:href="_track_calculations_8hpp.html" target="_top" xlink:title=" ">
<polygon fill="white" stroke="#666666" points="625.5,-151 436.5,-151 436.5,-132 625.5,-132 625.5,-151"/>
<text text-anchor="middle" x="531" y="-139" font-family="Helvetica,sans-Serif" font-size="10.00">domain/logic/TrackCalculations.hpp</text>
</a>
</g>
</g>
<!-- Node1&#45;&gt;Node8 -->
<g id="edge9_Node000001_Node000008" class="edge">
<title>Node1&#45;&gt;Node8</title>
<g id="a_edge9_Node000001_Node000008"><a xlink:title=" ">
<path fill="none" stroke="#63b8ff" d="M531,-186.84C531,-179.21 531,-169.7 531,-161.45"/>
<polygon fill="#63b8ff" stroke="#63b8ff" points="534.5,-161.27 531,-151.27 527.5,-161.27 534.5,-161.27"/>
</a>
</g>
</g>
<!-- Node9 -->
<g id="Node000009" class="node">
<title>Node9</title>
<g id="a_Node000009"><a xlink:title=" ">
<polygon fill="#e0e0e0" stroke="#999999" points="623,-90.5 573,-90.5 573,-71.5 623,-71.5 623,-90.5"/>
<text text-anchor="middle" x="598" y="-78.5" font-family="Helvetica,sans-Serif" font-size="10.00">chrono</text>
</a>
</g>
</g>
<!-- Node1&#45;&gt;Node9 -->
<g id="edge13_Node000001_Node000009" class="edge">
<title>Node1&#45;&gt;Node9</title>
<g id="a_edge13_Node000001_Node000009"><a xlink:title=" ">
<path fill="none" stroke="#63b8ff" d="M587.64,-186.93C605.95,-179.41 624.28,-168.04 635,-151 646.11,-133.33 630.58,-112.03 616.37,-97.81"/>
<polygon fill="#63b8ff" stroke="#63b8ff" points="618.48,-95 608.79,-90.71 613.69,-100.1 618.48,-95"/>
</a>
</g>
</g>
<!-- Node10 -->
<g id="Node000010" class="node">
<title>Node10</title>
<g id="a_Node000010"><a xlink:title=" ">
<polygon fill="#e0e0e0" stroke="#999999" points="742,-151 682,-151 682,-132 742,-132 742,-151"/>
<text text-anchor="middle" x="712" y="-139" font-family="Helvetica,sans-Serif" font-size="10.00">iostream</text>
</a>
</g>
</g>
<!-- Node1&#45;&gt;Node10 -->
<g id="edge12_Node000001_Node000010" class="edge">
<title>Node1&#45;&gt;Node10</title>
<g id="a_edge12_Node000001_Node000010"><a xlink:title=" ">
<path fill="none" stroke="#63b8ff" d="M574.35,-186.99C605.32,-176.98 646.5,-163.67 675.73,-154.22"/>
<polygon fill="#63b8ff" stroke="#63b8ff" points="677.1,-157.46 685.53,-151.05 674.94,-150.8 677.1,-157.46"/>
</a>
</g>
</g>
<!-- Node11 -->
<g id="Node000011" class="node">
<title>Node11</title>
<g id="a_Node000011"><a xlink:title=" ">
<polygon fill="#e0e0e0" stroke="#999999" points="825.5,-151 760.5,-151 760.5,-132 825.5,-132 825.5,-151"/>
<text text-anchor="middle" x="793" y="-139" font-family="Helvetica,sans-Serif" font-size="10.00">stdexcept</text>
</a>
</g>
</g>
<!-- Node1&#45;&gt;Node11 -->
<g id="edge14_Node000001_Node000011" class="edge">
<title>Node1&#45;&gt;Node11</title>
<g id="a_edge14_Node000001_Node000011"><a xlink:title=" ">
<path fill="none" stroke="#63b8ff" d="M593.76,-186.99C642.15,-176.18 707.77,-161.53 750.25,-152.04"/>
<polygon fill="#63b8ff" stroke="#63b8ff" points="751.27,-155.4 760.27,-149.81 749.74,-148.57 751.27,-155.4"/>
</a>
</g>
</g>
<!-- Node3 -->
<g id="Node000003" class="node">
<title>Node3</title>
<g id="a_Node000003"><a xlink:href="_i_data_receiver_8hpp.html" target="_top" xlink:title="Declares the incoming port abstraction for acquiring raw domain input (TrackData).">
<polygon fill="white" stroke="#666666" points="379.5,-96 250.5,-96 250.5,-66 379.5,-66 379.5,-96"/>
<text text-anchor="start" x="258.5" y="-84" font-family="Helvetica,sans-Serif" font-size="10.00">domain/ports/incoming</text>
<text text-anchor="middle" x="315" y="-73" font-family="Helvetica,sans-Serif" font-size="10.00">/IDataReceiver.hpp</text>
</a>
</g>
</g>
<!-- Node2&#45;&gt;Node3 -->
<g id="edge2_Node000002_Node000003" class="edge">
<title>Node2&#45;&gt;Node3</title>
<g id="a_edge2_Node000002_Node000003"><a xlink:title=" ">
<path fill="none" stroke="#63b8ff" d="M239.98,-131.87C251.81,-124 269.73,-112.09 285.09,-101.89"/>
<polygon fill="#63b8ff" stroke="#63b8ff" points="287.38,-104.57 293.77,-96.11 283.5,-98.74 287.38,-104.57"/>
</a>
</g>
</g>
<!-- Node5 -->
<g id="Node000005" class="node">
<title>Node5</title>
<g id="a_Node000005"><a xlink:href="_i_data_sender_8hpp.html" target="_top" xlink:title="Declares the outgoing port abstraction for emitting processed DelayCalculatedTrackData.">
<polygon fill="white" stroke="#666666" points="232.5,-96 105.5,-96 105.5,-66 232.5,-66 232.5,-96"/>
<text text-anchor="start" x="113.5" y="-84" font-family="Helvetica,sans-Serif" font-size="10.00">domain/ports/outgoing</text>
<text text-anchor="middle" x="169" y="-73" font-family="Helvetica,sans-Serif" font-size="10.00">/IDataSender.hpp</text>
</a>
</g>
</g>
<!-- Node2&#45;&gt;Node5 -->
<g id="edge4_Node000002_Node000005" class="edge">
<title>Node2&#45;&gt;Node5</title>
<g id="a_edge4_Node000002_Node000005"><a xlink:title=" ">
<path fill="none" stroke="#63b8ff" d="M218.44,-131.87C211.01,-124.37 199.93,-113.2 190.14,-103.33"/>
<polygon fill="#63b8ff" stroke="#63b8ff" points="192.52,-100.75 182.99,-96.11 187.55,-105.68 192.52,-100.75"/>
</a>
</g>
</g>
<!-- Node7 -->
<g id="Node000007" class="node">
<title>Node7</title>
<g id="a_Node000007"><a xlink:title=" ">
<polygon fill="#e0e0e0" stroke="#999999" points="87,-90.5 29,-90.5 29,-71.5 87,-71.5 87,-90.5"/>
<text text-anchor="middle" x="58" y="-78.5" font-family="Helvetica,sans-Serif" font-size="10.00">memory</text>
</a>
</g>
</g>
<!-- Node2&#45;&gt;Node7 -->
<g id="edge6_Node000002_Node000007" class="edge">
<title>Node2&#45;&gt;Node7</title>
<g id="a_edge6_Node000002_Node000007"><a xlink:title=" ">
<path fill="none" stroke="#63b8ff" d="M201.33,-132C174.87,-123.18 132.45,-108.9 96,-96 94.16,-95.35 92.27,-94.67 90.37,-93.99"/>
<polygon fill="#63b8ff" stroke="#63b8ff" points="91.47,-90.66 80.87,-90.53 89.07,-97.24 91.47,-90.66"/>
</a>
</g>
</g>
<!-- Node3&#45;&gt;Node4 -->
<g id="edge3_Node000003_Node000004" class="edge">
<title>Node3&#45;&gt;Node4</title>
<g id="a_edge3_Node000003_Node000004"><a xlink:title=" ">
<path fill="none" stroke="#63b8ff" d="M335.64,-65.8C350.94,-55.27 371.71,-40.97 387.08,-30.4"/>
<polygon fill="#63b8ff" stroke="#63b8ff" points="389.16,-33.21 395.42,-24.66 385.2,-27.44 389.16,-33.21"/>
</a>
</g>
</g>
<!-- Node5&#45;&gt;Node6 -->
<g id="edge5_Node000005_Node000006" class="edge">
<title>Node5&#45;&gt;Node6</title>
<g id="a_edge5_Node000005_Node000006"><a xlink:title=" ">
<path fill="none" stroke="#63b8ff" d="M150.36,-65.8C139.05,-57.18 124.42,-46.04 111.88,-36.48"/>
<polygon fill="#63b8ff" stroke="#63b8ff" points="113.67,-33.44 103.59,-30.16 109.42,-39.01 113.67,-33.44"/>
</a>
</g>
</g>
<!-- Node8&#45;&gt;Node4 -->
<g id="edge10_Node000008_Node000004" class="edge">
<title>Node8&#45;&gt;Node4</title>
<g id="a_edge10_Node000008_Node000004"><a xlink:title=" ">
<path fill="none" stroke="#63b8ff" d="M522.55,-131.94C502.18,-111.33 450.15,-58.67 423.8,-32"/>
<polygon fill="#63b8ff" stroke="#63b8ff" points="426.03,-29.27 416.51,-24.62 421.05,-34.19 426.03,-29.27"/>
</a>
</g>
</g>
<!-- Node8&#45;&gt;Node9 -->
<g id="edge11_Node000008_Node000009" class="edge">
<title>Node8&#45;&gt;Node9</title>
<g id="a_edge11_Node000008_Node000009"><a xlink:title=" ">
<path fill="none" stroke="#63b8ff" d="M540.89,-131.87C551.28,-122.8 567.84,-108.34 580.45,-97.32"/>
<polygon fill="#63b8ff" stroke="#63b8ff" points="582.84,-99.88 588.07,-90.67 578.24,-94.61 582.84,-99.88"/>
</a>
</g>
</g>
</g>
</svg>
