<?xml version="1.0" encoding="UTF-8" standalone="no"?>
<!DOCTYPE svg PUBLIC "-//W3C//DTD SVG 1.1//EN"
 "http://www.w3.org/Graphics/SVG/1.1/DTD/svg11.dtd">
<!-- Generated by graphviz version 2.43.0 (0)
 -->
<!-- Title: src/domain/ports/outgoing/IDataSender.hpp Pages: 1 -->
<!--zoomable 236 -->

<svg id="main" version="1.1" xmlns="http://www.w3.org/2000/svg" xmlns:xlink="http://www.w3.org/1999/xlink" xml:space="preserve" onload="init(evt)">
<style type="text/css"><![CDATA[
.node, .edge {opacity: 0.7;}
.node.selected, .edge.selected {opacity: 1;}
.edge:hover path { stroke: red; }
.edge:hover polygon { stroke: red; fill: red; }
]]></style>

<defs>
  <circle id="rim" cx="0" cy="0" r="7"/>
  <circle id="rim2" cx="0" cy="0" r="3.5"/>
  <g id="zoomPlus">
    <use xlink:href="#rim" fill="#404040"><set attributeName="fill" to="#808080" begin="zoomplus.mouseover" end="zoomplus.mouseout"/></use>
    <path d="M-4,0h8M0,-4v8" fill="none" stroke="white" stroke-width="1.5" pointer-events="none"/>
  </g>
  <g id="zoomMin">
    <use xlink:href="#rim" fill="#404040"><set attributeName="fill" to="#808080" begin="zoomminus.mouseover" end="zoomminus.mouseout"/></use>
    <path d="M-4,0h8" fill="none" stroke="white" stroke-width="1.5" pointer-events="none"/>
  </g>
  <g id="arrowUp" transform="translate(30 24)">
    <use xlink:href="#rim"/>
    <path pointer-events="none" fill="none" stroke="white" stroke-width="1.5" d="M0,-3.0v7 M-2.5,-0.5L0,-3.0L2.5,-0.5"/>
  </g>
  <g id="arrowRight" transform="rotate(90) translate(36 -43)">
    <use xlink:href="#rim"/>
    <path pointer-events="none" fill="none" stroke="white" stroke-width="1.5" d="M0,-3.0v7 M-2.5,-0.5L0,-3.0L2.5,-0.5"/>
  </g>
  <g id="arrowDown" transform="rotate(180) translate(-30 -48)">
    <use xlink:href="#rim"/>
    <path pointer-events="none" fill="none" stroke="white" stroke-width="1.5" d="M0,-3.0v7 M-2.5,-0.5L0,-3.0L2.5,-0.5"/>
  </g>
  <g id="arrowLeft" transform="rotate(270) translate(-36 17)">
    <use xlink:href="#rim"/>
    <path pointer-events="none" fill="none" stroke="white" stroke-width="1.5" d="M0,-3.0v7 M-2.5,-0.5L0,-3.0L2.5,-0.5"/>
  </g>
  <g id="resetDef">
    <use xlink:href="#rim2" fill="#404040"><set attributeName="fill" to="#808080" begin="reset.mouseover" end="reset.mouseout"/></use>
  </g>
</defs>
<script type="application/ecmascript">
var viewWidth = 630;
var viewHeight = 236;
var sectionId = 'dynsection-1';
</script>
<script type="application/ecmascript" xlink:href="svg.min.js"/>
<svg id="graph" class="graph">
<g id="viewport">
<title>src/domain/ports/outgoing/IDataSender.hpp</title>
<!-- Node1 -->
<g id="Node000001" class="node">
<title>Node1</title>
<g id="a_Node000001"><a xlink:title="Declares the outgoing port abstraction for emitting processed DelayCalculatedTrackData.">
<polygon fill="#999999" stroke="#666666" points="454.5,-228 310.5,-228 310.5,-198 454.5,-198 454.5,-228"/>
<text text-anchor="start" x="318.5" y="-216" font-family="Helvetica,sans-Serif" font-size="10.00">src/domain/ports/outgoing</text>
<text text-anchor="middle" x="382.5" y="-205" font-family="Helvetica,sans-Serif" font-size="10.00">/IDataSender.hpp</text>
</a>
</g>
</g>
<!-- Node2 -->
<g id="Node000002" class="node">
<title>Node2</title>
<g id="a_Node000002"><a xlink:href="_zero_m_q_data_sender_8hpp.html" target="_top" xlink:title=" ">
<polygon fill="white" stroke="#666666" points="289.5,-162 153.5,-162 153.5,-132 289.5,-132 289.5,-162"/>
<text text-anchor="start" x="161.5" y="-150" font-family="Helvetica,sans-Serif" font-size="10.00">src/adapters/outgoing</text>
<text text-anchor="middle" x="221.5" y="-139" font-family="Helvetica,sans-Serif" font-size="10.00">/ZeroMQDataSender.hpp</text>
</a>
</g>
</g>
<!-- Node1&#45;&gt;Node2 -->
<g id="edge1_Node000001_Node000002" class="edge">
<title>Node1&#45;&gt;Node2</title>
<g id="a_edge1_Node000001_Node000002"><a xlink:title=" ">
<path fill="none" stroke="#63b8ff" d="M337.69,-194.19C312.13,-184.02 280.53,-171.47 256.75,-162.01"/>
<polygon fill="#63b8ff" stroke="#63b8ff" points="336.58,-197.51 347.17,-197.95 339.17,-191.01 336.58,-197.51"/>
</a>
</g>
</g>
<!-- Node5 -->
<g id="Node000005" class="node">
<title>Node5</title>
<g id="a_Node000005"><a xlink:href="_calculator_service_8hpp.html" target="_top" xlink:title="Declares the application service coordinating domain calculations and I/O.">
<polygon fill="white" stroke="#666666" points="457,-162 308,-162 308,-132 457,-132 457,-162"/>
<text text-anchor="start" x="316" y="-150" font-family="Helvetica,sans-Serif" font-size="10.00">src/domain/logic/Calculator</text>
<text text-anchor="middle" x="382.5" y="-139" font-family="Helvetica,sans-Serif" font-size="10.00">Service.hpp</text>
</a>
</g>
</g>
<!-- Node1&#45;&gt;Node5 -->
<g id="edge4_Node000001_Node000005" class="edge">
<title>Node1&#45;&gt;Node5</title>
<g id="a_edge4_Node000001_Node000005"><a xlink:title=" ">
<path fill="none" stroke="#63b8ff" d="M382.5,-187.54C382.5,-178.96 382.5,-169.61 382.5,-162.16"/>
<polygon fill="#63b8ff" stroke="#63b8ff" points="379,-187.8 382.5,-197.8 386,-187.8 379,-187.8"/>
</a>
</g>
</g>
<!-- Node7 -->
<g id="Node000007" class="node">
<title>Node7</title>
<g id="a_Node000007"><a xlink:href="_process_track_use_case_8hpp.html" target="_top" xlink:title="Process Track Use Case &#45; Core business workflow orchestration.">
<polygon fill="white" stroke="#666666" points="621.5,-96 475.5,-96 475.5,-66 621.5,-66 621.5,-96"/>
<text text-anchor="start" x="483.5" y="-84" font-family="Helvetica,sans-Serif" font-size="10.00">src/domain/usecases</text>
<text text-anchor="middle" x="548.5" y="-73" font-family="Helvetica,sans-Serif" font-size="10.00">/ProcessTrackUseCase.hpp</text>
</a>
</g>
</g>
<!-- Node1&#45;&gt;Node7 -->
<g id="edge9_Node000001_Node000007" class="edge">
<title>Node1&#45;&gt;Node7</title>
<g id="a_edge9_Node000001_Node000007"><a xlink:title=" ">
<path fill="none" stroke="#63b8ff" d="M418.31,-192.79C433.39,-184.11 450.8,-173.28 465.5,-162 492.49,-141.29 520.24,-112.8 535.83,-96.01"/>
<polygon fill="#63b8ff" stroke="#63b8ff" points="416.26,-189.93 409.28,-197.9 419.71,-196.02 416.26,-189.93"/>
</a>
</g>
</g>
<!-- Node3 -->
<g id="Node000003" class="node">
<title>Node3</title>
<g id="a_Node000003"><a xlink:href="_zero_m_q_data_sender_8cpp.html" target="_top" xlink:title="Implementation of ZeroMQ publisher adapter for DelayCalculatedTrackData transmission.">
<polygon fill="white" stroke="#666666" points="135,-96 0,-96 0,-66 135,-66 135,-96"/>
<text text-anchor="start" x="8" y="-84" font-family="Helvetica,sans-Serif" font-size="10.00">src/adapters/outgoing</text>
<text text-anchor="middle" x="67.5" y="-73" font-family="Helvetica,sans-Serif" font-size="10.00">/ZeroMQDataSender.cpp</text>
</a>
</g>
</g>
<!-- Node2&#45;&gt;Node3 -->
<g id="edge2_Node000002_Node000003" class="edge">
<title>Node2&#45;&gt;Node3</title>
<g id="a_edge2_Node000002_Node000003"><a xlink:title=" ">
<path fill="none" stroke="#63b8ff" d="M178.32,-128.05C153.92,-117.91 123.87,-105.43 101.22,-96.01"/>
<polygon fill="#63b8ff" stroke="#63b8ff" points="177.13,-131.35 187.7,-131.95 179.81,-124.89 177.13,-131.35"/>
</a>
</g>
</g>
<!-- Node4 -->
<g id="Node000004" class="node">
<title>Node4</title>
<g id="a_Node000004"><a xlink:href="main_8cpp.html" target="_top" xlink:title="Application entry point demonstrating Hexagonal Architecture assembly.">
<polygon fill="white" stroke="#666666" points="289.5,-90.5 153.5,-90.5 153.5,-71.5 289.5,-71.5 289.5,-90.5"/>
<text text-anchor="middle" x="221.5" y="-78.5" font-family="Helvetica,sans-Serif" font-size="10.00">src/application/main.cpp</text>
</a>
</g>
</g>
<!-- Node2&#45;&gt;Node4 -->
<g id="edge3_Node000002_Node000004" class="edge">
<title>Node2&#45;&gt;Node4</title>
<g id="a_edge3_Node000002_Node000004"><a xlink:title=" ">
<path fill="none" stroke="#63b8ff" d="M221.5,-121.6C221.5,-110.8 221.5,-98.78 221.5,-90.84"/>
<polygon fill="#63b8ff" stroke="#63b8ff" points="218,-121.8 221.5,-131.8 225,-121.8 218,-121.8"/>
</a>
</g>
</g>
<!-- Node5&#45;&gt;Node4 -->
<g id="edge5_Node000005_Node000004" class="edge">
<title>Node5&#45;&gt;Node4</title>
<g id="a_edge5_Node000005_Node000004"><a xlink:title=" ">
<path fill="none" stroke="#63b8ff" d="M337.87,-128.26C306.91,-115.95 267.05,-100.11 242.93,-90.52"/>
<polygon fill="#63b8ff" stroke="#63b8ff" points="336.58,-131.51 347.17,-131.95 339.17,-125.01 336.58,-131.51"/>
</a>
</g>
</g>
<!-- Node6 -->
<g id="Node000006" class="node">
<title>Node6</title>
<g id="a_Node000006"><a xlink:href="_calculator_service_8cpp.html" target="_top" xlink:title=" ">
<polygon fill="white" stroke="#666666" points="457,-96 308,-96 308,-66 457,-66 457,-96"/>
<text text-anchor="start" x="316" y="-84" font-family="Helvetica,sans-Serif" font-size="10.00">src/domain/logic/Calculator</text>
<text text-anchor="middle" x="382.5" y="-73" font-family="Helvetica,sans-Serif" font-size="10.00">Service.cpp</text>
</a>
</g>
</g>
<!-- Node5&#45;&gt;Node6 -->
<g id="edge6_Node000005_Node000006" class="edge">
<title>Node5&#45;&gt;Node6</title>
<g id="a_edge6_Node000005_Node000006"><a xlink:title=" ">
<path fill="none" stroke="#63b8ff" d="M382.5,-121.54C382.5,-112.96 382.5,-103.61 382.5,-96.16"/>
<polygon fill="#63b8ff" stroke="#63b8ff" points="379,-121.8 382.5,-131.8 386,-121.8 379,-121.8"/>
</a>
</g>
</g>
<!-- Node5&#45;&gt;Node7 -->
<g id="edge7_Node000005_Node000007" class="edge">
<title>Node5&#45;&gt;Node7</title>
<g id="a_edge7_Node000005_Node000007"><a xlink:title=" ">
<path fill="none" stroke="#63b8ff" d="M428.35,-128.32C454.77,-118.14 487.52,-105.51 512.16,-96.01"/>
<polygon fill="#63b8ff" stroke="#63b8ff" points="427,-125.09 418.93,-131.95 429.52,-131.62 427,-125.09"/>
</a>
</g>
</g>
<!-- Node8 -->
<g id="Node000008" class="node">
<title>Node8</title>
<g id="a_Node000008"><a xlink:href="_process_track_use_case_8cpp.html" target="_top" xlink:title="Implementation of ProcessTrackUseCase &#45; Core business workflow orchestration.">
<polygon fill="white" stroke="#666666" points="621.5,-30 475.5,-30 475.5,0 621.5,0 621.5,-30"/>
<text text-anchor="start" x="483.5" y="-18" font-family="Helvetica,sans-Serif" font-size="10.00">src/domain/usecases</text>
<text text-anchor="middle" x="548.5" y="-7" font-family="Helvetica,sans-Serif" font-size="10.00">/ProcessTrackUseCase.cpp</text>
</a>
</g>
</g>
<!-- Node7&#45;&gt;Node8 -->
<g id="edge8_Node000007_Node000008" class="edge">
<title>Node7&#45;&gt;Node8</title>
<g id="a_edge8_Node000007_Node000008"><a xlink:title=" ">
<path fill="none" stroke="#63b8ff" d="M548.5,-55.54C548.5,-46.96 548.5,-37.61 548.5,-30.16"/>
<polygon fill="#63b8ff" stroke="#63b8ff" points="545,-55.8 548.5,-65.8 552,-55.8 545,-55.8"/>
</a>
</g>
</g>
</g>
</svg>

<g id="navigator" transform="translate(0 0)" fill="#404254">
  <rect fill="#f2f5e9" fill-opacity="0.5" stroke="#606060" stroke-width=".5" x="0" y="0" width="60" height="60"/>
  <use id="zoomplus" xlink:href="#zoomPlus" x="17" y="9" onmousedown="handleZoom(evt,'in')"/>
  <use id="zoomminus" xlink:href="#zoomMin" x="42" y="9" onmousedown="handleZoom(evt,'out')"/>
  <use id="reset" xlink:href="#resetDef" x="30" y="36" onmousedown="handleReset()"/>
   <use id="arrowup" xlink:href="#arrowUp" x="0" y="0" onmousedown="handlePan(0,-1)"/>
  <use id="arrowright" xlink:href="#arrowRight" x="0" y="0" onmousedown="handlePan(1,0)"/>
  <use id="arrowdown" xlink:href="#arrowDown" x="0" y="0" onmousedown="handlePan(0,1)"/>
  <use id="arrowleft" xlink:href="#arrowLeft" x="0" y="0" onmousedown="handlePan(-1,0)"/>
</g>
<svg viewBox="0 0 15 15" width="100%" height="30px" preserveAspectRatio="xMaxYMin meet">
 <g id="arrow_out" transform="scale(0.3 0.3)">
  <a xlink:href="_i_data_sender_8hpp__dep__incl_org.svg" target="_base">
   <rect id="button" ry="5" rx="5" y="6" x="6" height="38" width="38"
        fill="#f2f5e9" fill-opacity="0.5" stroke="#606060" stroke-width="1.0"/>
   <path id="arrow"
     d="M 11.500037,31.436501 C 11.940474,20.09759 22.043105,11.32322 32.158766,21.979434 L 37.068811,17.246167 C 37.068811,17.246167 37.088388,32 37.088388,32 L 22.160133,31.978069 C 22.160133,31.978069 26.997745,27.140456 26.997745,27.140456 C 18.528582,18.264221 13.291696,25.230495 11.500037,31.436501 z"
     style="fill:#404040;"/>
  </a>
 </g>
</svg>

<style type='text/css'>
<![CDATA[
[data-mouse-over-selected='false'] { opacity: 0.7; }
[data-mouse-over-selected='true']  { opacity: 1.0; }
]]>
</style>
<script type="application/ecmascript"><![CDATA[
document.addEventListener('DOMContentLoaded', (event) => {
  highlightEdges();
  highlightAdjacentNodes();
});
]]></script>
</svg>
