<?xml version="1.0" encoding="UTF-8" standalone="no"?>
<!DOCTYPE svg PUBLIC "-//W3C//DTD SVG 1.1//EN"
 "http://www.w3.org/Graphics/SVG/1.1/DTD/svg11.dtd">
<!-- Generated by graphviz version 2.43.0 (0)
 -->
<!-- Title: src/domain/ports/incoming/IDataReceiver.hpp Pages: 1 -->
<!--zoomable 236 -->

<svg id="main" version="1.1" xmlns="http://www.w3.org/2000/svg" xmlns:xlink="http://www.w3.org/1999/xlink" xml:space="preserve" onload="init(evt)">
<style type="text/css"><![CDATA[
.node, .edge {opacity: 0.7;}
.node.selected, .edge.selected {opacity: 1;}
.edge:hover path { stroke: red; }
.edge:hover polygon { stroke: red; fill: red; }
]]></style>

<defs>
  <circle id="rim" cx="0" cy="0" r="7"/>
  <circle id="rim2" cx="0" cy="0" r="3.5"/>
  <g id="zoomPlus">
    <use xlink:href="#rim" fill="#404040"><set attributeName="fill" to="#808080" begin="zoomplus.mouseover" end="zoomplus.mouseout"/></use>
    <path d="M-4,0h8M0,-4v8" fill="none" stroke="white" stroke-width="1.5" pointer-events="none"/>
  </g>
  <g id="zoomMin">
    <use xlink:href="#rim" fill="#404040"><set attributeName="fill" to="#808080" begin="zoomminus.mouseover" end="zoomminus.mouseout"/></use>
    <path d="M-4,0h8" fill="none" stroke="white" stroke-width="1.5" pointer-events="none"/>
  </g>
  <g id="arrowUp" transform="translate(30 24)">
    <use xlink:href="#rim"/>
    <path pointer-events="none" fill="none" stroke="white" stroke-width="1.5" d="M0,-3.0v7 M-2.5,-0.5L0,-3.0L2.5,-0.5"/>
  </g>
  <g id="arrowRight" transform="rotate(90) translate(36 -43)">
    <use xlink:href="#rim"/>
    <path pointer-events="none" fill="none" stroke="white" stroke-width="1.5" d="M0,-3.0v7 M-2.5,-0.5L0,-3.0L2.5,-0.5"/>
  </g>
  <g id="arrowDown" transform="rotate(180) translate(-30 -48)">
    <use xlink:href="#rim"/>
    <path pointer-events="none" fill="none" stroke="white" stroke-width="1.5" d="M0,-3.0v7 M-2.5,-0.5L0,-3.0L2.5,-0.5"/>
  </g>
  <g id="arrowLeft" transform="rotate(270) translate(-36 17)">
    <use xlink:href="#rim"/>
    <path pointer-events="none" fill="none" stroke="white" stroke-width="1.5" d="M0,-3.0v7 M-2.5,-0.5L0,-3.0L2.5,-0.5"/>
  </g>
  <g id="resetDef">
    <use xlink:href="#rim2" fill="#404040"><set attributeName="fill" to="#808080" begin="reset.mouseover" end="reset.mouseout"/></use>
  </g>
</defs>
<script type="application/ecmascript">
var viewWidth = 638;
var viewHeight = 236;
var sectionId = 'dynsection-1';
</script>
<script type="application/ecmascript" xlink:href="svg.min.js"/>
<svg id="graph" class="graph">
<g id="viewport">
<title>src/domain/ports/incoming/IDataReceiver.hpp</title>
<!-- Node1 -->
<g id="Node000001" class="node">
<title>Node1</title>
<g id="a_Node000001"><a xlink:title="Declares the incoming port abstraction for acquiring raw domain input (TrackData).">
<polygon fill="#999999" stroke="#666666" points="466,-228 320,-228 320,-198 466,-198 466,-228"/>
<text text-anchor="start" x="328" y="-216" font-family="Helvetica,sans-Serif" font-size="10.00">src/domain/ports/incoming</text>
<text text-anchor="middle" x="393" y="-205" font-family="Helvetica,sans-Serif" font-size="10.00">/IDataReceiver.hpp</text>
</a>
</g>
</g>
<!-- Node2 -->
<g id="Node000002" class="node">
<title>Node2</title>
<g id="a_Node000002"><a xlink:href="_zero_m_q_data_receiver_8hpp.html" target="_top" xlink:title=" ">
<polygon fill="white" stroke="#666666" points="300.5,-162 155.5,-162 155.5,-132 300.5,-132 300.5,-162"/>
<text text-anchor="start" x="163.5" y="-150" font-family="Helvetica,sans-Serif" font-size="10.00">src/adapters/incoming</text>
<text text-anchor="middle" x="228" y="-139" font-family="Helvetica,sans-Serif" font-size="10.00">/ZeroMQDataReceiver.hpp</text>
</a>
</g>
</g>
<!-- Node1&#45;&gt;Node2 -->
<g id="edge1_Node000001_Node000002" class="edge">
<title>Node1&#45;&gt;Node2</title>
<g id="a_edge1_Node000001_Node000002"><a xlink:title=" ">
<path fill="none" stroke="#63b8ff" d="M347.43,-194.32C321.16,-184.14 288.61,-171.51 264.13,-162.01"/>
<polygon fill="#63b8ff" stroke="#63b8ff" points="346.2,-197.6 356.79,-197.95 348.73,-191.08 346.2,-197.6"/>
</a>
</g>
</g>
<!-- Node5 -->
<g id="Node000005" class="node">
<title>Node5</title>
<g id="a_Node000005"><a xlink:href="_calculator_service_8hpp.html" target="_top" xlink:title="Declares the application service coordinating domain calculations and I/O.">
<polygon fill="white" stroke="#666666" points="467.5,-162 318.5,-162 318.5,-132 467.5,-132 467.5,-162"/>
<text text-anchor="start" x="326.5" y="-150" font-family="Helvetica,sans-Serif" font-size="10.00">src/domain/logic/Calculator</text>
<text text-anchor="middle" x="393" y="-139" font-family="Helvetica,sans-Serif" font-size="10.00">Service.hpp</text>
</a>
</g>
</g>
<!-- Node1&#45;&gt;Node5 -->
<g id="edge4_Node000001_Node000005" class="edge">
<title>Node1&#45;&gt;Node5</title>
<g id="a_edge4_Node000001_Node000005"><a xlink:title=" ">
<path fill="none" stroke="#63b8ff" d="M393,-187.54C393,-178.96 393,-169.61 393,-162.16"/>
<polygon fill="#63b8ff" stroke="#63b8ff" points="389.5,-187.8 393,-197.8 396.5,-187.8 389.5,-187.8"/>
</a>
</g>
</g>
<!-- Node7 -->
<g id="Node000007" class="node">
<title>Node7</title>
<g id="a_Node000007"><a xlink:href="_process_track_use_case_8hpp.html" target="_top" xlink:title="Process Track Use Case &#45; Core business workflow orchestration.">
<polygon fill="white" stroke="#666666" points="630,-96 484,-96 484,-66 630,-66 630,-96"/>
<text text-anchor="start" x="492" y="-84" font-family="Helvetica,sans-Serif" font-size="10.00">src/domain/usecases</text>
<text text-anchor="middle" x="557" y="-73" font-family="Helvetica,sans-Serif" font-size="10.00">/ProcessTrackUseCase.hpp</text>
</a>
</g>
</g>
<!-- Node1&#45;&gt;Node7 -->
<g id="edge9_Node000001_Node000007" class="edge">
<title>Node1&#45;&gt;Node7</title>
<g id="a_edge9_Node000001_Node000007"><a xlink:title=" ">
<path fill="none" stroke="#63b8ff" d="M428.88,-192.87C443.97,-184.21 461.37,-173.37 476,-162 502.53,-141.38 529.54,-112.87 544.7,-96.04"/>
<polygon fill="#63b8ff" stroke="#63b8ff" points="426.83,-190.01 419.84,-197.97 430.27,-196.11 426.83,-190.01"/>
</a>
</g>
</g>
<!-- Node3 -->
<g id="Node000003" class="node">
<title>Node3</title>
<g id="a_Node000003"><a xlink:href="_zero_m_q_data_receiver_8cpp.html" target="_top" xlink:title=" ">
<polygon fill="white" stroke="#666666" points="144,-96 0,-96 0,-66 144,-66 144,-96"/>
<text text-anchor="start" x="8" y="-84" font-family="Helvetica,sans-Serif" font-size="10.00">src/adapters/incoming</text>
<text text-anchor="middle" x="72" y="-73" font-family="Helvetica,sans-Serif" font-size="10.00">/ZeroMQDataReceiver.cpp</text>
</a>
</g>
</g>
<!-- Node2&#45;&gt;Node3 -->
<g id="edge2_Node000002_Node000003" class="edge">
<title>Node2&#45;&gt;Node3</title>
<g id="a_edge2_Node000002_Node000003"><a xlink:title=" ">
<path fill="none" stroke="#63b8ff" d="M184.26,-128.05C159.54,-117.91 129.1,-105.43 106.16,-96.01"/>
<polygon fill="#63b8ff" stroke="#63b8ff" points="183.18,-131.4 193.77,-131.95 185.84,-124.92 183.18,-131.4"/>
</a>
</g>
</g>
<!-- Node4 -->
<g id="Node000004" class="node">
<title>Node4</title>
<g id="a_Node000004"><a xlink:href="main_8cpp.html" target="_top" xlink:title="Application entry point demonstrating Hexagonal Architecture assembly.">
<polygon fill="white" stroke="#666666" points="298,-90.5 162,-90.5 162,-71.5 298,-71.5 298,-90.5"/>
<text text-anchor="middle" x="230" y="-78.5" font-family="Helvetica,sans-Serif" font-size="10.00">src/application/main.cpp</text>
</a>
</g>
</g>
<!-- Node2&#45;&gt;Node4 -->
<g id="edge3_Node000002_Node000004" class="edge">
<title>Node2&#45;&gt;Node4</title>
<g id="a_edge3_Node000002_Node000004"><a xlink:title=" ">
<path fill="none" stroke="#63b8ff" d="M228.76,-121.6C229.1,-110.8 229.48,-98.78 229.72,-90.84"/>
<polygon fill="#63b8ff" stroke="#63b8ff" points="225.26,-121.69 228.44,-131.8 232.25,-121.91 225.26,-121.69"/>
</a>
</g>
</g>
<!-- Node5&#45;&gt;Node4 -->
<g id="edge5_Node000005_Node000004" class="edge">
<title>Node5&#45;&gt;Node4</title>
<g id="a_edge5_Node000005_Node000004"><a xlink:title=" ">
<path fill="none" stroke="#63b8ff" d="M347.82,-128.26C316.47,-115.95 276.11,-100.11 251.69,-90.52"/>
<polygon fill="#63b8ff" stroke="#63b8ff" points="346.64,-131.56 357.23,-131.95 349.2,-125.04 346.64,-131.56"/>
</a>
</g>
</g>
<!-- Node6 -->
<g id="Node000006" class="node">
<title>Node6</title>
<g id="a_Node000006"><a xlink:href="_calculator_service_8cpp.html" target="_top" xlink:title=" ">
<polygon fill="white" stroke="#666666" points="465.5,-96 316.5,-96 316.5,-66 465.5,-66 465.5,-96"/>
<text text-anchor="start" x="324.5" y="-84" font-family="Helvetica,sans-Serif" font-size="10.00">src/domain/logic/Calculator</text>
<text text-anchor="middle" x="391" y="-73" font-family="Helvetica,sans-Serif" font-size="10.00">Service.cpp</text>
</a>
</g>
</g>
<!-- Node5&#45;&gt;Node6 -->
<g id="edge6_Node000005_Node000006" class="edge">
<title>Node5&#45;&gt;Node6</title>
<g id="a_edge6_Node000005_Node000006"><a xlink:title=" ">
<path fill="none" stroke="#63b8ff" d="M392.24,-121.54C391.97,-112.96 391.68,-103.61 391.44,-96.16"/>
<polygon fill="#63b8ff" stroke="#63b8ff" points="388.75,-121.91 392.56,-131.8 395.74,-121.69 388.75,-121.91"/>
</a>
</g>
</g>
<!-- Node5&#45;&gt;Node7 -->
<g id="edge7_Node000005_Node000007" class="edge">
<title>Node5&#45;&gt;Node7</title>
<g id="a_edge7_Node000005_Node000007"><a xlink:title=" ">
<path fill="none" stroke="#63b8ff" d="M438.64,-128.19C464.69,-118.02 496.87,-105.47 521.09,-96.01"/>
<polygon fill="#63b8ff" stroke="#63b8ff" points="437.03,-125.06 428.99,-131.95 439.58,-131.58 437.03,-125.06"/>
</a>
</g>
</g>
<!-- Node8 -->
<g id="Node000008" class="node">
<title>Node8</title>
<g id="a_Node000008"><a xlink:href="_process_track_use_case_8cpp.html" target="_top" xlink:title="Implementation of ProcessTrackUseCase &#45; Core business workflow orchestration.">
<polygon fill="white" stroke="#666666" points="630,-30 484,-30 484,0 630,0 630,-30"/>
<text text-anchor="start" x="492" y="-18" font-family="Helvetica,sans-Serif" font-size="10.00">src/domain/usecases</text>
<text text-anchor="middle" x="557" y="-7" font-family="Helvetica,sans-Serif" font-size="10.00">/ProcessTrackUseCase.cpp</text>
</a>
</g>
</g>
<!-- Node7&#45;&gt;Node8 -->
<g id="edge8_Node000007_Node000008" class="edge">
<title>Node7&#45;&gt;Node8</title>
<g id="a_edge8_Node000007_Node000008"><a xlink:title=" ">
<path fill="none" stroke="#63b8ff" d="M557,-55.54C557,-46.96 557,-37.61 557,-30.16"/>
<polygon fill="#63b8ff" stroke="#63b8ff" points="553.5,-55.8 557,-65.8 560.5,-55.8 553.5,-55.8"/>
</a>
</g>
</g>
</g>
</svg>

<g id="navigator" transform="translate(0 0)" fill="#404254">
  <rect fill="#f2f5e9" fill-opacity="0.5" stroke="#606060" stroke-width=".5" x="0" y="0" width="60" height="60"/>
  <use id="zoomplus" xlink:href="#zoomPlus" x="17" y="9" onmousedown="handleZoom(evt,'in')"/>
  <use id="zoomminus" xlink:href="#zoomMin" x="42" y="9" onmousedown="handleZoom(evt,'out')"/>
  <use id="reset" xlink:href="#resetDef" x="30" y="36" onmousedown="handleReset()"/>
   <use id="arrowup" xlink:href="#arrowUp" x="0" y="0" onmousedown="handlePan(0,-1)"/>
  <use id="arrowright" xlink:href="#arrowRight" x="0" y="0" onmousedown="handlePan(1,0)"/>
  <use id="arrowdown" xlink:href="#arrowDown" x="0" y="0" onmousedown="handlePan(0,1)"/>
  <use id="arrowleft" xlink:href="#arrowLeft" x="0" y="0" onmousedown="handlePan(-1,0)"/>
</g>
<svg viewBox="0 0 15 15" width="100%" height="30px" preserveAspectRatio="xMaxYMin meet">
 <g id="arrow_out" transform="scale(0.3 0.3)">
  <a xlink:href="_i_data_receiver_8hpp__dep__incl_org.svg" target="_base">
   <rect id="button" ry="5" rx="5" y="6" x="6" height="38" width="38"
        fill="#f2f5e9" fill-opacity="0.5" stroke="#606060" stroke-width="1.0"/>
   <path id="arrow"
     d="M 11.500037,31.436501 C 11.940474,20.09759 22.043105,11.32322 32.158766,21.979434 L 37.068811,17.246167 C 37.068811,17.246167 37.088388,32 37.088388,32 L 22.160133,31.978069 C 22.160133,31.978069 26.997745,27.140456 26.997745,27.140456 C 18.528582,18.264221 13.291696,25.230495 11.500037,31.436501 z"
     style="fill:#404040;"/>
  </a>
 </g>
</svg>

<style type='text/css'>
<![CDATA[
[data-mouse-over-selected='false'] { opacity: 0.7; }
[data-mouse-over-selected='true']  { opacity: 1.0; }
]]>
</style>
<script type="application/ecmascript"><![CDATA[
document.addEventListener('DOMContentLoaded', (event) => {
  highlightEdges();
  highlightAdjacentNodes();
});
]]></script>
</svg>
