<?xml version="1.0" encoding="UTF-8" standalone="no"?>
<!DOCTYPE svg PUBLIC "-//W3C//DTD SVG 1.1//EN"
 "http://www.w3.org/Graphics/SVG/1.1/DTD/svg11.dtd">
<!-- Generated by graphviz version 2.43.0 (0)
 -->
<!-- Title: src/domain/ports/outgoing/IDataSender.hpp Pages: 1 -->
<svg width="630pt" height="236pt"
 viewBox="0.00 0.00 629.50 236.00" xmlns="http://www.w3.org/2000/svg" xmlns:xlink="http://www.w3.org/1999/xlink">
<g id="graph0" class="graph" transform="scale(1 1) rotate(0) translate(4 232)">
<title>src/domain/ports/outgoing/IDataSender.hpp</title>
<!-- Node1 -->
<g id="Node000001" class="node">
<title>Node1</title>
<g id="a_Node000001"><a xlink:title="Declares the outgoing port abstraction for emitting processed DelayCalculatedTrackData.">
<polygon fill="#999999" stroke="#666666" points="454.5,-228 310.5,-228 310.5,-198 454.5,-198 454.5,-228"/>
<text text-anchor="start" x="318.5" y="-216" font-family="Helvetica,sans-Serif" font-size="10.00">src/domain/ports/outgoing</text>
<text text-anchor="middle" x="382.5" y="-205" font-family="Helvetica,sans-Serif" font-size="10.00">/IDataSender.hpp</text>
</a>
</g>
</g>
<!-- Node2 -->
<g id="Node000002" class="node">
<title>Node2</title>
<g id="a_Node000002"><a xlink:href="_zero_m_q_data_sender_8hpp.html" target="_top" xlink:title=" ">
<polygon fill="white" stroke="#666666" points="289.5,-162 153.5,-162 153.5,-132 289.5,-132 289.5,-162"/>
<text text-anchor="start" x="161.5" y="-150" font-family="Helvetica,sans-Serif" font-size="10.00">src/adapters/outgoing</text>
<text text-anchor="middle" x="221.5" y="-139" font-family="Helvetica,sans-Serif" font-size="10.00">/ZeroMQDataSender.hpp</text>
</a>
</g>
</g>
<!-- Node1&#45;&gt;Node2 -->
<g id="edge1_Node000001_Node000002" class="edge">
<title>Node1&#45;&gt;Node2</title>
<g id="a_edge1_Node000001_Node000002"><a xlink:title=" ">
<path fill="none" stroke="#63b8ff" d="M337.69,-194.19C312.13,-184.02 280.53,-171.47 256.75,-162.01"/>
<polygon fill="#63b8ff" stroke="#63b8ff" points="336.58,-197.51 347.17,-197.95 339.17,-191.01 336.58,-197.51"/>
</a>
</g>
</g>
<!-- Node5 -->
<g id="Node000005" class="node">
<title>Node5</title>
<g id="a_Node000005"><a xlink:href="_calculator_service_8hpp.html" target="_top" xlink:title="Declares the application service coordinating domain calculations and I/O.">
<polygon fill="white" stroke="#666666" points="457,-162 308,-162 308,-132 457,-132 457,-162"/>
<text text-anchor="start" x="316" y="-150" font-family="Helvetica,sans-Serif" font-size="10.00">src/domain/logic/Calculator</text>
<text text-anchor="middle" x="382.5" y="-139" font-family="Helvetica,sans-Serif" font-size="10.00">Service.hpp</text>
</a>
</g>
</g>
<!-- Node1&#45;&gt;Node5 -->
<g id="edge4_Node000001_Node000005" class="edge">
<title>Node1&#45;&gt;Node5</title>
<g id="a_edge4_Node000001_Node000005"><a xlink:title=" ">
<path fill="none" stroke="#63b8ff" d="M382.5,-187.54C382.5,-178.96 382.5,-169.61 382.5,-162.16"/>
<polygon fill="#63b8ff" stroke="#63b8ff" points="379,-187.8 382.5,-197.8 386,-187.8 379,-187.8"/>
</a>
</g>
</g>
<!-- Node7 -->
<g id="Node000007" class="node">
<title>Node7</title>
<g id="a_Node000007"><a xlink:href="_process_track_use_case_8hpp.html" target="_top" xlink:title="Process Track Use Case &#45; Core business workflow orchestration.">
<polygon fill="white" stroke="#666666" points="621.5,-96 475.5,-96 475.5,-66 621.5,-66 621.5,-96"/>
<text text-anchor="start" x="483.5" y="-84" font-family="Helvetica,sans-Serif" font-size="10.00">src/domain/usecases</text>
<text text-anchor="middle" x="548.5" y="-73" font-family="Helvetica,sans-Serif" font-size="10.00">/ProcessTrackUseCase.hpp</text>
</a>
</g>
</g>
<!-- Node1&#45;&gt;Node7 -->
<g id="edge9_Node000001_Node000007" class="edge">
<title>Node1&#45;&gt;Node7</title>
<g id="a_edge9_Node000001_Node000007"><a xlink:title=" ">
<path fill="none" stroke="#63b8ff" d="M418.31,-192.79C433.39,-184.11 450.8,-173.28 465.5,-162 492.49,-141.29 520.24,-112.8 535.83,-96.01"/>
<polygon fill="#63b8ff" stroke="#63b8ff" points="416.26,-189.93 409.28,-197.9 419.71,-196.02 416.26,-189.93"/>
</a>
</g>
</g>
<!-- Node3 -->
<g id="Node000003" class="node">
<title>Node3</title>
<g id="a_Node000003"><a xlink:href="_zero_m_q_data_sender_8cpp.html" target="_top" xlink:title="Implementation of ZeroMQ publisher adapter for DelayCalculatedTrackData transmission.">
<polygon fill="white" stroke="#666666" points="135,-96 0,-96 0,-66 135,-66 135,-96"/>
<text text-anchor="start" x="8" y="-84" font-family="Helvetica,sans-Serif" font-size="10.00">src/adapters/outgoing</text>
<text text-anchor="middle" x="67.5" y="-73" font-family="Helvetica,sans-Serif" font-size="10.00">/ZeroMQDataSender.cpp</text>
</a>
</g>
</g>
<!-- Node2&#45;&gt;Node3 -->
<g id="edge2_Node000002_Node000003" class="edge">
<title>Node2&#45;&gt;Node3</title>
<g id="a_edge2_Node000002_Node000003"><a xlink:title=" ">
<path fill="none" stroke="#63b8ff" d="M178.32,-128.05C153.92,-117.91 123.87,-105.43 101.22,-96.01"/>
<polygon fill="#63b8ff" stroke="#63b8ff" points="177.13,-131.35 187.7,-131.95 179.81,-124.89 177.13,-131.35"/>
</a>
</g>
</g>
<!-- Node4 -->
<g id="Node000004" class="node">
<title>Node4</title>
<g id="a_Node000004"><a xlink:href="main_8cpp.html" target="_top" xlink:title="Application entry point demonstrating Hexagonal Architecture assembly.">
<polygon fill="white" stroke="#666666" points="289.5,-90.5 153.5,-90.5 153.5,-71.5 289.5,-71.5 289.5,-90.5"/>
<text text-anchor="middle" x="221.5" y="-78.5" font-family="Helvetica,sans-Serif" font-size="10.00">src/application/main.cpp</text>
</a>
</g>
</g>
<!-- Node2&#45;&gt;Node4 -->
<g id="edge3_Node000002_Node000004" class="edge">
<title>Node2&#45;&gt;Node4</title>
<g id="a_edge3_Node000002_Node000004"><a xlink:title=" ">
<path fill="none" stroke="#63b8ff" d="M221.5,-121.6C221.5,-110.8 221.5,-98.78 221.5,-90.84"/>
<polygon fill="#63b8ff" stroke="#63b8ff" points="218,-121.8 221.5,-131.8 225,-121.8 218,-121.8"/>
</a>
</g>
</g>
<!-- Node5&#45;&gt;Node4 -->
<g id="edge5_Node000005_Node000004" class="edge">
<title>Node5&#45;&gt;Node4</title>
<g id="a_edge5_Node000005_Node000004"><a xlink:title=" ">
<path fill="none" stroke="#63b8ff" d="M337.87,-128.26C306.91,-115.95 267.05,-100.11 242.93,-90.52"/>
<polygon fill="#63b8ff" stroke="#63b8ff" points="336.58,-131.51 347.17,-131.95 339.17,-125.01 336.58,-131.51"/>
</a>
</g>
</g>
<!-- Node6 -->
<g id="Node000006" class="node">
<title>Node6</title>
<g id="a_Node000006"><a xlink:href="_calculator_service_8cpp.html" target="_top" xlink:title=" ">
<polygon fill="white" stroke="#666666" points="457,-96 308,-96 308,-66 457,-66 457,-96"/>
<text text-anchor="start" x="316" y="-84" font-family="Helvetica,sans-Serif" font-size="10.00">src/domain/logic/Calculator</text>
<text text-anchor="middle" x="382.5" y="-73" font-family="Helvetica,sans-Serif" font-size="10.00">Service.cpp</text>
</a>
</g>
</g>
<!-- Node5&#45;&gt;Node6 -->
<g id="edge6_Node000005_Node000006" class="edge">
<title>Node5&#45;&gt;Node6</title>
<g id="a_edge6_Node000005_Node000006"><a xlink:title=" ">
<path fill="none" stroke="#63b8ff" d="M382.5,-121.54C382.5,-112.96 382.5,-103.61 382.5,-96.16"/>
<polygon fill="#63b8ff" stroke="#63b8ff" points="379,-121.8 382.5,-131.8 386,-121.8 379,-121.8"/>
</a>
</g>
</g>
<!-- Node5&#45;&gt;Node7 -->
<g id="edge7_Node000005_Node000007" class="edge">
<title>Node5&#45;&gt;Node7</title>
<g id="a_edge7_Node000005_Node000007"><a xlink:title=" ">
<path fill="none" stroke="#63b8ff" d="M428.35,-128.32C454.77,-118.14 487.52,-105.51 512.16,-96.01"/>
<polygon fill="#63b8ff" stroke="#63b8ff" points="427,-125.09 418.93,-131.95 429.52,-131.62 427,-125.09"/>
</a>
</g>
</g>
<!-- Node8 -->
<g id="Node000008" class="node">
<title>Node8</title>
<g id="a_Node000008"><a xlink:href="_process_track_use_case_8cpp.html" target="_top" xlink:title="Implementation of ProcessTrackUseCase &#45; Core business workflow orchestration.">
<polygon fill="white" stroke="#666666" points="621.5,-30 475.5,-30 475.5,0 621.5,0 621.5,-30"/>
<text text-anchor="start" x="483.5" y="-18" font-family="Helvetica,sans-Serif" font-size="10.00">src/domain/usecases</text>
<text text-anchor="middle" x="548.5" y="-7" font-family="Helvetica,sans-Serif" font-size="10.00">/ProcessTrackUseCase.cpp</text>
</a>
</g>
</g>
<!-- Node7&#45;&gt;Node8 -->
<g id="edge8_Node000007_Node000008" class="edge">
<title>Node7&#45;&gt;Node8</title>
<g id="a_edge8_Node000007_Node000008"><a xlink:title=" ">
<path fill="none" stroke="#63b8ff" d="M548.5,-55.54C548.5,-46.96 548.5,-37.61 548.5,-30.16"/>
<polygon fill="#63b8ff" stroke="#63b8ff" points="545,-55.8 548.5,-65.8 552,-55.8 545,-55.8"/>
</a>
</g>
</g>
</g>
</svg>
