<?xml version="1.0" encoding="UTF-8" standalone="no"?>
<!DOCTYPE svg PUBLIC "-//W3C//DTD SVG 1.1//EN"
 "http://www.w3.org/Graphics/SVG/1.1/DTD/svg11.dtd">
<!-- Generated by graphviz version 2.43.0 (0)
 -->
<!-- Title: src/domain/usecases/ProcessTrackUseCase.hpp Pages: 1 -->
<svg width="529pt" height="225pt"
 viewBox="0.00 0.00 528.50 225.00" xmlns="http://www.w3.org/2000/svg" xmlns:xlink="http://www.w3.org/1999/xlink">
<g id="graph0" class="graph" transform="scale(1 1) rotate(0) translate(4 221)">
<title>src/domain/usecases/ProcessTrackUseCase.hpp</title>
<!-- Node1 -->
<g id="Node000001" class="node">
<title>Node1</title>
<g id="a_Node000001"><a xlink:title="Process Track Use Case &#45; Core business workflow orchestration.">
<polygon fill="#999999" stroke="#666666" points="339,-217 193,-217 193,-187 339,-187 339,-217"/>
<text text-anchor="start" x="201" y="-205" font-family="Helvetica,sans-Serif" font-size="10.00">src/domain/usecases</text>
<text text-anchor="middle" x="266" y="-194" font-family="Helvetica,sans-Serif" font-size="10.00">/ProcessTrackUseCase.hpp</text>
</a>
</g>
</g>
<!-- Node2 -->
<g id="Node000002" class="node">
<title>Node2</title>
<g id="a_Node000002"><a xlink:href="_track_data_8hpp.html" target="_top" xlink:title=" ">
<polygon fill="white" stroke="#666666" points="160,-24.5 0,-24.5 0,-5.5 160,-5.5 160,-24.5"/>
<text text-anchor="middle" x="80" y="-12.5" font-family="Helvetica,sans-Serif" font-size="10.00">domain/model/TrackData.hpp</text>
</a>
</g>
</g>
<!-- Node1&#45;&gt;Node2 -->
<g id="edge1_Node000001_Node000002" class="edge">
<title>Node1&#45;&gt;Node2</title>
<g id="a_edge1_Node000001_Node000002"><a xlink:title=" ">
<path fill="none" stroke="#63b8ff" d="M192.99,-189.73C139.33,-177.08 70.5,-150.64 39,-96 26.41,-74.16 46.04,-48.02 62.24,-31.71"/>
<polygon fill="#63b8ff" stroke="#63b8ff" points="64.92,-33.98 69.76,-24.55 60.1,-28.91 64.92,-33.98"/>
</a>
</g>
</g>
<!-- Node3 -->
<g id="Node000003" class="node">
<title>Node3</title>
<g id="a_Node000003"><a xlink:href="_delay_calculated_track_data_8hpp.html" target="_top" xlink:title=" ">
<polygon fill="white" stroke="#666666" points="376,-30 206,-30 206,0 376,0 376,-30"/>
<text text-anchor="start" x="214" y="-18" font-family="Helvetica,sans-Serif" font-size="10.00">domain/model/DelayCalculated</text>
<text text-anchor="middle" x="291" y="-7" font-family="Helvetica,sans-Serif" font-size="10.00">TrackData.hpp</text>
</a>
</g>
</g>
<!-- Node1&#45;&gt;Node3 -->
<g id="edge2_Node000001_Node000003" class="edge">
<title>Node1&#45;&gt;Node3</title>
<g id="a_edge2_Node000001_Node000003"><a xlink:title=" ">
<path fill="none" stroke="#63b8ff" d="M325.88,-186.97C347.45,-179.37 370.51,-167.94 387,-151 405.25,-132.25 403.25,-121.73 408,-96 410.42,-82.89 415.35,-77.13 408,-66 398.49,-51.59 383.88,-41.32 368.17,-34"/>
<polygon fill="#63b8ff" stroke="#63b8ff" points="369.4,-30.72 358.82,-30.03 366.66,-37.16 369.4,-30.72"/>
</a>
</g>
</g>
<!-- Node4 -->
<g id="Node000004" class="node">
<title>Node4</title>
<g id="a_Node000004"><a xlink:href="_i_data_receiver_8hpp.html" target="_top" xlink:title="Declares the incoming port abstraction for acquiring raw domain input (TrackData).">
<polygon fill="white" stroke="#666666" points="177.5,-96 48.5,-96 48.5,-66 177.5,-66 177.5,-96"/>
<text text-anchor="start" x="56.5" y="-84" font-family="Helvetica,sans-Serif" font-size="10.00">domain/ports/incoming</text>
<text text-anchor="middle" x="113" y="-73" font-family="Helvetica,sans-Serif" font-size="10.00">/IDataReceiver.hpp</text>
</a>
</g>
</g>
<!-- Node1&#45;&gt;Node4 -->
<g id="edge3_Node000001_Node000004" class="edge">
<title>Node1&#45;&gt;Node4</title>
<g id="a_edge3_Node000001_Node000004"><a xlink:title=" ">
<path fill="none" stroke="#63b8ff" d="M217.87,-186.92C196.54,-178.92 172.21,-167.21 154,-151 140.05,-138.58 129.46,-120.25 122.55,-105.6"/>
<polygon fill="#63b8ff" stroke="#63b8ff" points="125.61,-103.88 118.35,-96.16 119.22,-106.72 125.61,-103.88"/>
</a>
</g>
</g>
<!-- Node5 -->
<g id="Node000005" class="node">
<title>Node5</title>
<g id="a_Node000005"><a xlink:href="_i_data_sender_8hpp.html" target="_top" xlink:title="Declares the outgoing port abstraction for emitting processed DelayCalculatedTrackData.">
<polygon fill="white" stroke="#666666" points="322.5,-96 195.5,-96 195.5,-66 322.5,-66 322.5,-96"/>
<text text-anchor="start" x="203.5" y="-84" font-family="Helvetica,sans-Serif" font-size="10.00">domain/ports/outgoing</text>
<text text-anchor="middle" x="259" y="-73" font-family="Helvetica,sans-Serif" font-size="10.00">/IDataSender.hpp</text>
</a>
</g>
</g>
<!-- Node1&#45;&gt;Node5 -->
<g id="edge5_Node000001_Node000005" class="edge">
<title>Node1&#45;&gt;Node5</title>
<g id="a_edge5_Node000001_Node000005"><a xlink:title=" ">
<path fill="none" stroke="#63b8ff" d="M210.16,-186.92C191.93,-179.39 173.65,-168.02 163,-151 149.05,-128.73 173.07,-111.48 200.56,-99.79"/>
<polygon fill="#63b8ff" stroke="#63b8ff" points="201.97,-103 209.97,-96.04 199.38,-96.49 201.97,-103"/>
</a>
</g>
</g>
<!-- Node6 -->
<g id="Node000006" class="node">
<title>Node6</title>
<g id="a_Node000006"><a xlink:href="_calculator_service_8hpp.html" target="_top" xlink:title="Declares the application service coordinating domain calculations and I/O.">
<polygon fill="white" stroke="#666666" points="360.5,-151 171.5,-151 171.5,-132 360.5,-132 360.5,-151"/>
<text text-anchor="middle" x="266" y="-139" font-family="Helvetica,sans-Serif" font-size="10.00">domain/logic/CalculatorService.hpp</text>
</a>
</g>
</g>
<!-- Node1&#45;&gt;Node6 -->
<g id="edge7_Node000001_Node000006" class="edge">
<title>Node1&#45;&gt;Node6</title>
<g id="a_edge7_Node000001_Node000006"><a xlink:title=" ">
<path fill="none" stroke="#63b8ff" d="M266,-186.84C266,-179.21 266,-169.7 266,-161.45"/>
<polygon fill="#63b8ff" stroke="#63b8ff" points="269.5,-161.27 266,-151.27 262.5,-161.27 269.5,-161.27"/>
</a>
</g>
</g>
<!-- Node7 -->
<g id="Node000007" class="node">
<title>Node7</title>
<g id="a_Node000007"><a xlink:title=" ">
<polygon fill="#e0e0e0" stroke="#999999" points="399,-90.5 341,-90.5 341,-71.5 399,-71.5 399,-90.5"/>
<text text-anchor="middle" x="370" y="-78.5" font-family="Helvetica,sans-Serif" font-size="10.00">memory</text>
</a>
</g>
</g>
<!-- Node1&#45;&gt;Node7 -->
<g id="edge11_Node000001_Node000007" class="edge">
<title>Node1&#45;&gt;Node7</title>
<g id="a_edge11_Node000001_Node000007"><a xlink:title=" ">
<path fill="none" stroke="#63b8ff" d="M322.64,-186.93C340.95,-179.41 359.28,-168.04 370,-151 379.35,-136.13 377.99,-115.66 375.12,-100.88"/>
<polygon fill="#63b8ff" stroke="#63b8ff" points="378.47,-99.82 372.78,-90.88 371.65,-101.41 378.47,-99.82"/>
</a>
</g>
</g>
<!-- Node8 -->
<g id="Node000008" class="node">
<title>Node8</title>
<g id="a_Node000008"><a xlink:title=" ">
<polygon fill="#e0e0e0" stroke="#999999" points="520.5,-151 455.5,-151 455.5,-132 520.5,-132 520.5,-151"/>
<text text-anchor="middle" x="488" y="-139" font-family="Helvetica,sans-Serif" font-size="10.00">stdexcept</text>
</a>
</g>
</g>
<!-- Node1&#45;&gt;Node8 -->
<g id="edge12_Node000001_Node000008" class="edge">
<title>Node1&#45;&gt;Node8</title>
<g id="a_edge12_Node000001_Node000008"><a xlink:title=" ">
<path fill="none" stroke="#63b8ff" d="M319.17,-186.99C357.98,-176.76 409.88,-163.09 445.84,-153.61"/>
<polygon fill="#63b8ff" stroke="#63b8ff" points="446.76,-156.99 455.54,-151.05 444.98,-150.22 446.76,-156.99"/>
</a>
</g>
</g>
<!-- Node4&#45;&gt;Node2 -->
<g id="edge4_Node000004_Node000002" class="edge">
<title>Node4&#45;&gt;Node2</title>
<g id="a_edge4_Node000004_Node000002"><a xlink:title=" ">
<path fill="none" stroke="#63b8ff" d="M105.68,-65.8C100.83,-56.41 94.45,-44.02 89.25,-33.95"/>
<polygon fill="#63b8ff" stroke="#63b8ff" points="92.25,-32.13 84.56,-24.84 86.03,-35.34 92.25,-32.13"/>
</a>
</g>
</g>
<!-- Node5&#45;&gt;Node3 -->
<g id="edge6_Node000005_Node000003" class="edge">
<title>Node5&#45;&gt;Node3</title>
<g id="a_edge6_Node000005_Node000003"><a xlink:title=" ">
<path fill="none" stroke="#63b8ff" d="M266.1,-65.8C270,-58.01 274.92,-48.16 279.36,-39.28"/>
<polygon fill="#63b8ff" stroke="#63b8ff" points="282.58,-40.67 283.92,-30.16 276.32,-37.54 282.58,-40.67"/>
</a>
</g>
</g>
<!-- Node6&#45;&gt;Node4 -->
<g id="edge8_Node000006_Node000004" class="edge">
<title>Node6&#45;&gt;Node4</title>
<g id="a_edge8_Node000006_Node000004"><a xlink:title=" ">
<path fill="none" stroke="#63b8ff" d="M243.75,-131.99C221.73,-123.57 187.36,-110.43 159.38,-99.73"/>
<polygon fill="#63b8ff" stroke="#63b8ff" points="160.37,-96.37 149.78,-96.06 157.87,-102.9 160.37,-96.37"/>
</a>
</g>
</g>
<!-- Node6&#45;&gt;Node5 -->
<g id="edge9_Node000006_Node000005" class="edge">
<title>Node6&#45;&gt;Node5</title>
<g id="a_edge9_Node000006_Node000005"><a xlink:title=" ">
<path fill="none" stroke="#63b8ff" d="M264.97,-131.87C264.16,-125.11 262.99,-115.35 261.9,-106.26"/>
<polygon fill="#63b8ff" stroke="#63b8ff" points="265.35,-105.63 260.69,-96.11 258.4,-106.46 265.35,-105.63"/>
</a>
</g>
</g>
<!-- Node6&#45;&gt;Node7 -->
<g id="edge10_Node000006_Node000007" class="edge">
<title>Node6&#45;&gt;Node7</title>
<g id="a_edge10_Node000006_Node000007"><a xlink:title=" ">
<path fill="none" stroke="#63b8ff" d="M281.35,-131.87C298.32,-122.32 325.9,-106.81 345.79,-95.62"/>
<polygon fill="#63b8ff" stroke="#63b8ff" points="347.59,-98.62 354.59,-90.67 344.16,-92.52 347.59,-98.62"/>
</a>
</g>
</g>
</g>
</svg>
