<?xml version="1.0" encoding="UTF-8" standalone="no"?>
<!DOCTYPE svg PUBLIC "-//W3C//DTD SVG 1.1//EN"
 "http://www.w3.org/Graphics/SVG/1.1/DTD/svg11.dtd">
<!-- Generated by graphviz version 2.43.0 (0)
 -->
<!-- Title: src/domain/usecases/ProcessTrackUseCase.cpp Pages: 1 -->
<svg width="566pt" height="280pt"
 viewBox="0.00 0.00 566.00 280.00" xmlns="http://www.w3.org/2000/svg" xmlns:xlink="http://www.w3.org/1999/xlink">
<g id="graph0" class="graph" transform="scale(1 1) rotate(0) translate(4 276)">
<title>src/domain/usecases/ProcessTrackUseCase.cpp</title>
<!-- Node1 -->
<g id="Node000001" class="node">
<title>Node1</title>
<g id="a_Node000001"><a xlink:title="Implementation of ProcessTrackUseCase &#45; Core business workflow orchestration.">
<polygon fill="#999999" stroke="#666666" points="490,-272 344,-272 344,-242 490,-242 490,-272"/>
<text text-anchor="start" x="352" y="-260" font-family="Helvetica,sans-Serif" font-size="10.00">src/domain/usecases</text>
<text text-anchor="middle" x="417" y="-249" font-family="Helvetica,sans-Serif" font-size="10.00">/ProcessTrackUseCase.cpp</text>
</a>
</g>
</g>
<!-- Node2 -->
<g id="Node000002" class="node">
<title>Node2</title>
<g id="a_Node000002"><a xlink:href="_process_track_use_case_8hpp.html" target="_top" xlink:title="Process Track Use Case &#45; Core business workflow orchestration.">
<polygon fill="white" stroke="#666666" points="337.5,-206 194.5,-206 194.5,-187 337.5,-187 337.5,-206"/>
<text text-anchor="middle" x="266" y="-194" font-family="Helvetica,sans-Serif" font-size="10.00">ProcessTrackUseCase.hpp</text>
</a>
</g>
</g>
<!-- Node1&#45;&gt;Node2 -->
<g id="edge1_Node000001_Node000002" class="edge">
<title>Node1&#45;&gt;Node2</title>
<g id="a_edge1_Node000001_Node000002"><a xlink:title=" ">
<path fill="none" stroke="#63b8ff" d="M380.83,-241.99C355.53,-232.18 322.04,-219.21 297.76,-209.81"/>
<polygon fill="#63b8ff" stroke="#63b8ff" points="298.89,-206.49 288.3,-206.14 296.36,-213.02 298.89,-206.49"/>
</a>
</g>
</g>
<!-- Node10 -->
<g id="Node000010" class="node">
<title>Node10</title>
<g id="a_Node000010"><a xlink:title=" ">
<polygon fill="#e0e0e0" stroke="#999999" points="406,-206 356,-206 356,-187 406,-187 406,-206"/>
<text text-anchor="middle" x="381" y="-194" font-family="Helvetica,sans-Serif" font-size="10.00">chrono</text>
</a>
</g>
</g>
<!-- Node1&#45;&gt;Node10 -->
<g id="edge14_Node000001_Node000010" class="edge">
<title>Node1&#45;&gt;Node10</title>
<g id="a_edge14_Node000001_Node000010"><a xlink:title=" ">
<path fill="none" stroke="#63b8ff" d="M408.29,-241.84C403.33,-233.78 397.07,-223.62 391.8,-215.06"/>
<polygon fill="#63b8ff" stroke="#63b8ff" points="394.62,-212.95 386.39,-206.27 388.65,-216.62 394.62,-212.95"/>
</a>
</g>
</g>
<!-- Node11 -->
<g id="Node000011" class="node">
<title>Node11</title>
<g id="a_Node000011"><a xlink:title=" ">
<polygon fill="#e0e0e0" stroke="#999999" points="484,-206 424,-206 424,-187 484,-187 484,-206"/>
<text text-anchor="middle" x="454" y="-194" font-family="Helvetica,sans-Serif" font-size="10.00">iostream</text>
</a>
</g>
</g>
<!-- Node1&#45;&gt;Node11 -->
<g id="edge15_Node000001_Node000011" class="edge">
<title>Node1&#45;&gt;Node11</title>
<g id="a_edge15_Node000001_Node000011"><a xlink:title=" ">
<path fill="none" stroke="#63b8ff" d="M425.96,-241.84C431.11,-233.69 437.62,-223.4 443.07,-214.78"/>
<polygon fill="#63b8ff" stroke="#63b8ff" points="446.07,-216.59 448.46,-206.27 440.15,-212.85 446.07,-216.59"/>
</a>
</g>
</g>
<!-- Node12 -->
<g id="Node000012" class="node">
<title>Node12</title>
<g id="a_Node000012"><a xlink:title=" ">
<polygon fill="#e0e0e0" stroke="#999999" points="558,-206 502,-206 502,-187 558,-187 558,-206"/>
<text text-anchor="middle" x="530" y="-194" font-family="Helvetica,sans-Serif" font-size="10.00">sstream</text>
</a>
</g>
</g>
<!-- Node1&#45;&gt;Node12 -->
<g id="edge16_Node000001_Node000012" class="edge">
<title>Node1&#45;&gt;Node12</title>
<g id="a_edge16_Node000001_Node000012"><a xlink:title=" ">
<path fill="none" stroke="#63b8ff" d="M444.07,-241.99C462.25,-232.58 486.07,-220.24 504.02,-210.95"/>
<polygon fill="#63b8ff" stroke="#63b8ff" points="506.04,-213.84 513.31,-206.14 502.82,-207.63 506.04,-213.84"/>
</a>
</g>
</g>
<!-- Node3 -->
<g id="Node000003" class="node">
<title>Node3</title>
<g id="a_Node000003"><a xlink:href="_track_data_8hpp.html" target="_top" xlink:title=" ">
<polygon fill="white" stroke="#666666" points="160,-24.5 0,-24.5 0,-5.5 160,-5.5 160,-24.5"/>
<text text-anchor="middle" x="80" y="-12.5" font-family="Helvetica,sans-Serif" font-size="10.00">domain/model/TrackData.hpp</text>
</a>
</g>
</g>
<!-- Node2&#45;&gt;Node3 -->
<g id="edge2_Node000002_Node000003" class="edge">
<title>Node2&#45;&gt;Node3</title>
<g id="a_edge2_Node000002_Node000003"><a xlink:title=" ">
<path fill="none" stroke="#63b8ff" d="M196.96,-186.99C142.67,-176.14 71.02,-151.54 39,-96 26.41,-74.16 46.04,-48.02 62.24,-31.71"/>
<polygon fill="#63b8ff" stroke="#63b8ff" points="64.92,-33.98 69.76,-24.55 60.1,-28.91 64.92,-33.98"/>
</a>
</g>
</g>
<!-- Node4 -->
<g id="Node000004" class="node">
<title>Node4</title>
<g id="a_Node000004"><a xlink:href="_delay_calculated_track_data_8hpp.html" target="_top" xlink:title=" ">
<polygon fill="white" stroke="#666666" points="376,-30 206,-30 206,0 376,0 376,-30"/>
<text text-anchor="start" x="214" y="-18" font-family="Helvetica,sans-Serif" font-size="10.00">domain/model/DelayCalculated</text>
<text text-anchor="middle" x="291" y="-7" font-family="Helvetica,sans-Serif" font-size="10.00">TrackData.hpp</text>
</a>
</g>
</g>
<!-- Node2&#45;&gt;Node4 -->
<g id="edge3_Node000002_Node000004" class="edge">
<title>Node2&#45;&gt;Node4</title>
<g id="a_edge3_Node000002_Node000004"><a xlink:title=" ">
<path fill="none" stroke="#63b8ff" d="M316.59,-186.99C340.57,-180.65 368.05,-169.72 387,-151 405.62,-132.61 403.25,-121.73 408,-96 410.42,-82.89 415.35,-77.13 408,-66 398.49,-51.59 383.88,-41.32 368.17,-34"/>
<polygon fill="#63b8ff" stroke="#63b8ff" points="369.4,-30.72 358.82,-30.03 366.66,-37.16 369.4,-30.72"/>
</a>
</g>
</g>
<!-- Node5 -->
<g id="Node000005" class="node">
<title>Node5</title>
<g id="a_Node000005"><a xlink:href="_i_data_receiver_8hpp.html" target="_top" xlink:title="Declares the incoming port abstraction for acquiring raw domain input (TrackData).">
<polygon fill="white" stroke="#666666" points="177.5,-96 48.5,-96 48.5,-66 177.5,-66 177.5,-96"/>
<text text-anchor="start" x="56.5" y="-84" font-family="Helvetica,sans-Serif" font-size="10.00">domain/ports/incoming</text>
<text text-anchor="middle" x="113" y="-73" font-family="Helvetica,sans-Serif" font-size="10.00">/IDataReceiver.hpp</text>
</a>
</g>
</g>
<!-- Node2&#45;&gt;Node5 -->
<g id="edge4_Node000002_Node000005" class="edge">
<title>Node2&#45;&gt;Node5</title>
<g id="a_edge4_Node000002_Node000005"><a xlink:title=" ">
<path fill="none" stroke="#63b8ff" d="M227.68,-186.99C204.35,-180.28 175.09,-169 154,-151 139.7,-138.8 129.09,-120.3 122.25,-105.53"/>
<polygon fill="#63b8ff" stroke="#63b8ff" points="125.31,-103.8 118.12,-96.02 118.89,-106.59 125.31,-103.8"/>
</a>
</g>
</g>
<!-- Node6 -->
<g id="Node000006" class="node">
<title>Node6</title>
<g id="a_Node000006"><a xlink:href="_i_data_sender_8hpp.html" target="_top" xlink:title="Declares the outgoing port abstraction for emitting processed DelayCalculatedTrackData.">
<polygon fill="white" stroke="#666666" points="322.5,-96 195.5,-96 195.5,-66 322.5,-66 322.5,-96"/>
<text text-anchor="start" x="203.5" y="-84" font-family="Helvetica,sans-Serif" font-size="10.00">domain/ports/outgoing</text>
<text text-anchor="middle" x="259" y="-73" font-family="Helvetica,sans-Serif" font-size="10.00">/IDataSender.hpp</text>
</a>
</g>
</g>
<!-- Node2&#45;&gt;Node6 -->
<g id="edge6_Node000002_Node000006" class="edge">
<title>Node2&#45;&gt;Node6</title>
<g id="a_edge6_Node000002_Node000006"><a xlink:title=" ">
<path fill="none" stroke="#63b8ff" d="M218.15,-186.99C197.53,-180.7 175.36,-169.8 163,-151 148.47,-128.89 172.92,-111.55 200.78,-99.78"/>
<polygon fill="#63b8ff" stroke="#63b8ff" points="202.3,-102.94 210.3,-96 199.72,-96.44 202.3,-102.94"/>
</a>
</g>
</g>
<!-- Node7 -->
<g id="Node000007" class="node">
<title>Node7</title>
<g id="a_Node000007"><a xlink:href="_calculator_service_8hpp.html" target="_top" xlink:title="Declares the application service coordinating domain calculations and I/O.">
<polygon fill="white" stroke="#666666" points="360.5,-151 171.5,-151 171.5,-132 360.5,-132 360.5,-151"/>
<text text-anchor="middle" x="266" y="-139" font-family="Helvetica,sans-Serif" font-size="10.00">domain/logic/CalculatorService.hpp</text>
</a>
</g>
</g>
<!-- Node2&#45;&gt;Node7 -->
<g id="edge8_Node000002_Node000007" class="edge">
<title>Node2&#45;&gt;Node7</title>
<g id="a_edge8_Node000002_Node000007"><a xlink:title=" ">
<path fill="none" stroke="#63b8ff" d="M266,-186.75C266,-179.8 266,-169.85 266,-161.13"/>
<polygon fill="#63b8ff" stroke="#63b8ff" points="269.5,-161.09 266,-151.09 262.5,-161.09 269.5,-161.09"/>
</a>
</g>
</g>
<!-- Node8 -->
<g id="Node000008" class="node">
<title>Node8</title>
<g id="a_Node000008"><a xlink:title=" ">
<polygon fill="#e0e0e0" stroke="#999999" points="399,-90.5 341,-90.5 341,-71.5 399,-71.5 399,-90.5"/>
<text text-anchor="middle" x="370" y="-78.5" font-family="Helvetica,sans-Serif" font-size="10.00">memory</text>
</a>
</g>
</g>
<!-- Node2&#45;&gt;Node8 -->
<g id="edge12_Node000002_Node000008" class="edge">
<title>Node2&#45;&gt;Node8</title>
<g id="a_edge12_Node000002_Node000008"><a xlink:title=" ">
<path fill="none" stroke="#63b8ff" d="M314.85,-186.95C335.5,-180.65 357.62,-169.77 370,-151 379.67,-136.34 378.27,-115.84 375.3,-100.99"/>
<polygon fill="#63b8ff" stroke="#63b8ff" points="378.62,-99.84 372.88,-90.94 371.81,-101.48 378.62,-99.84"/>
</a>
</g>
</g>
<!-- Node9 -->
<g id="Node000009" class="node">
<title>Node9</title>
<g id="a_Node000009"><a xlink:title=" ">
<polygon fill="#e0e0e0" stroke="#999999" points="520.5,-151 455.5,-151 455.5,-132 520.5,-132 520.5,-151"/>
<text text-anchor="middle" x="488" y="-139" font-family="Helvetica,sans-Serif" font-size="10.00">stdexcept</text>
</a>
</g>
</g>
<!-- Node2&#45;&gt;Node9 -->
<g id="edge13_Node000002_Node000009" class="edge">
<title>Node2&#45;&gt;Node9</title>
<g id="a_edge13_Node000002_Node000009"><a xlink:title=" ">
<path fill="none" stroke="#63b8ff" d="M301.67,-186.98C340.85,-177.63 403.73,-162.62 445.45,-152.66"/>
<polygon fill="#63b8ff" stroke="#63b8ff" points="446.4,-156.03 455.31,-150.3 444.77,-149.22 446.4,-156.03"/>
</a>
</g>
</g>
<!-- Node5&#45;&gt;Node3 -->
<g id="edge5_Node000005_Node000003" class="edge">
<title>Node5&#45;&gt;Node3</title>
<g id="a_edge5_Node000005_Node000003"><a xlink:title=" ">
<path fill="none" stroke="#63b8ff" d="M105.68,-65.8C100.83,-56.41 94.45,-44.02 89.25,-33.95"/>
<polygon fill="#63b8ff" stroke="#63b8ff" points="92.25,-32.13 84.56,-24.84 86.03,-35.34 92.25,-32.13"/>
</a>
</g>
</g>
<!-- Node6&#45;&gt;Node4 -->
<g id="edge7_Node000006_Node000004" class="edge">
<title>Node6&#45;&gt;Node4</title>
<g id="a_edge7_Node000006_Node000004"><a xlink:title=" ">
<path fill="none" stroke="#63b8ff" d="M266.1,-65.8C270,-58.01 274.92,-48.16 279.36,-39.28"/>
<polygon fill="#63b8ff" stroke="#63b8ff" points="282.58,-40.67 283.92,-30.16 276.32,-37.54 282.58,-40.67"/>
</a>
</g>
</g>
<!-- Node7&#45;&gt;Node5 -->
<g id="edge9_Node000007_Node000005" class="edge">
<title>Node7&#45;&gt;Node5</title>
<g id="a_edge9_Node000007_Node000005"><a xlink:title=" ">
<path fill="none" stroke="#63b8ff" d="M243.75,-131.99C221.73,-123.57 187.36,-110.43 159.38,-99.73"/>
<polygon fill="#63b8ff" stroke="#63b8ff" points="160.37,-96.37 149.78,-96.06 157.87,-102.9 160.37,-96.37"/>
</a>
</g>
</g>
<!-- Node7&#45;&gt;Node6 -->
<g id="edge10_Node000007_Node000006" class="edge">
<title>Node7&#45;&gt;Node6</title>
<g id="a_edge10_Node000007_Node000006"><a xlink:title=" ">
<path fill="none" stroke="#63b8ff" d="M264.97,-131.87C264.16,-125.11 262.99,-115.35 261.9,-106.26"/>
<polygon fill="#63b8ff" stroke="#63b8ff" points="265.35,-105.63 260.69,-96.11 258.4,-106.46 265.35,-105.63"/>
</a>
</g>
</g>
<!-- Node7&#45;&gt;Node8 -->
<g id="edge11_Node000007_Node000008" class="edge">
<title>Node7&#45;&gt;Node8</title>
<g id="a_edge11_Node000007_Node000008"><a xlink:title=" ">
<path fill="none" stroke="#63b8ff" d="M281.35,-131.87C298.32,-122.32 325.9,-106.81 345.79,-95.62"/>
<polygon fill="#63b8ff" stroke="#63b8ff" points="347.59,-98.62 354.59,-90.67 344.16,-92.52 347.59,-98.62"/>
</a>
</g>
</g>
</g>
</svg>
