<?xml version="1.0" encoding="UTF-8" standalone="no"?>
<!DOCTYPE svg PUBLIC "-//W3C//DTD SVG 1.1//EN"
 "http://www.w3.org/Graphics/SVG/1.1/DTD/svg11.dtd">
<!-- Generated by graphviz version 2.43.0 (0)
 -->
<!-- Title: src/domain/model/TrackData.hpp Pages: 1 -->
<svg width="779pt" height="291pt"
 viewBox="0.00 0.00 779.00 291.00" xmlns="http://www.w3.org/2000/svg" xmlns:xlink="http://www.w3.org/1999/xlink">
<g id="graph0" class="graph" transform="scale(1 1) rotate(0) translate(4 287)">
<title>src/domain/model/TrackData.hpp</title>
<!-- Node1 -->
<g id="Node000001" class="node">
<title>Node1</title>
<g id="a_Node000001"><a xlink:title=" ">
<polygon fill="#999999" stroke="#666666" points="598.5,-283 421.5,-283 421.5,-264 598.5,-264 598.5,-283"/>
<text text-anchor="middle" x="510" y="-271" font-family="Helvetica,sans-Serif" font-size="10.00">src/domain/model/TrackData.hpp</text>
</a>
</g>
</g>
<!-- Node2 -->
<g id="Node000002" class="node">
<title>Node2</title>
<g id="a_Node000002"><a xlink:href="_zero_m_q_data_receiver_8hpp.html" target="_top" xlink:title=" ">
<polygon fill="white" stroke="#666666" points="258.5,-162 113.5,-162 113.5,-132 258.5,-132 258.5,-162"/>
<text text-anchor="start" x="121.5" y="-150" font-family="Helvetica,sans-Serif" font-size="10.00">src/adapters/incoming</text>
<text text-anchor="middle" x="186" y="-139" font-family="Helvetica,sans-Serif" font-size="10.00">/ZeroMQDataReceiver.hpp</text>
</a>
</g>
</g>
<!-- Node1&#45;&gt;Node2 -->
<g id="edge1_Node000001_Node000002" class="edge">
<title>Node1&#45;&gt;Node2</title>
<g id="a_edge1_Node000001_Node000002"><a xlink:title=" ">
<path fill="none" stroke="#63b8ff" d="M411.13,-264.16C369.74,-257.93 322.04,-247.04 282,-228 247.71,-211.7 215.44,-180.3 198.45,-162.06"/>
<polygon fill="#63b8ff" stroke="#63b8ff" points="410.84,-267.66 421.24,-265.61 411.84,-260.73 410.84,-267.66"/>
</a>
</g>
</g>
<!-- Node5 -->
<g id="Node000005" class="node">
<title>Node5</title>
<g id="a_Node000005"><a xlink:href="_calculator_service_8cpp.html" target="_top" xlink:title=" ">
<polygon fill="white" stroke="#666666" points="629.5,-96 480.5,-96 480.5,-66 629.5,-66 629.5,-96"/>
<text text-anchor="start" x="488.5" y="-84" font-family="Helvetica,sans-Serif" font-size="10.00">src/domain/logic/Calculator</text>
<text text-anchor="middle" x="555" y="-73" font-family="Helvetica,sans-Serif" font-size="10.00">Service.cpp</text>
</a>
</g>
</g>
<!-- Node1&#45;&gt;Node5 -->
<g id="edge4_Node000001_Node000005" class="edge">
<title>Node1&#45;&gt;Node5</title>
<g id="a_edge4_Node000001_Node000005"><a xlink:title=" ">
<path fill="none" stroke="#63b8ff" d="M514.46,-253.6C523.48,-215.44 543.68,-129.91 551.66,-96.12"/>
<polygon fill="#63b8ff" stroke="#63b8ff" points="510.94,-253.28 512.05,-263.82 517.76,-254.89 510.94,-253.28"/>
</a>
</g>
</g>
<!-- Node6 -->
<g id="Node000006" class="node">
<title>Node6</title>
<g id="a_Node000006"><a xlink:href="_track_calculations_8hpp.html" target="_top" xlink:title=" ">
<polygon fill="white" stroke="#666666" points="763,-156.5 557,-156.5 557,-137.5 763,-137.5 763,-156.5"/>
<text text-anchor="middle" x="660" y="-144.5" font-family="Helvetica,sans-Serif" font-size="10.00">src/domain/logic/TrackCalculations.hpp</text>
</a>
</g>
</g>
<!-- Node1&#45;&gt;Node6 -->
<g id="edge5_Node000001_Node000006" class="edge">
<title>Node1&#45;&gt;Node6</title>
<g id="a_edge5_Node000001_Node000006"><a xlink:title=" ">
<path fill="none" stroke="#63b8ff" d="M524.84,-256.34C539.62,-240.64 563.33,-216.51 586,-198 605.57,-182.01 630.22,-166.11 645.55,-156.67"/>
<polygon fill="#63b8ff" stroke="#63b8ff" points="522.22,-254.01 517.97,-263.71 527.35,-258.78 522.22,-254.01"/>
</a>
</g>
</g>
<!-- Node7 -->
<g id="Node000007" class="node">
<title>Node7</title>
<g id="a_Node000007"><a xlink:href="_track_data_8cpp.html" target="_top" xlink:title=" ">
<polygon fill="white" stroke="#666666" points="771,-222.5 595,-222.5 595,-203.5 771,-203.5 771,-222.5"/>
<text text-anchor="middle" x="683" y="-210.5" font-family="Helvetica,sans-Serif" font-size="10.00">src/domain/model/TrackData.cpp</text>
</a>
</g>
</g>
<!-- Node1&#45;&gt;Node7 -->
<g id="edge7_Node000001_Node000007" class="edge">
<title>Node1&#45;&gt;Node7</title>
<g id="a_edge7_Node000001_Node000007"><a xlink:title=" ">
<path fill="none" stroke="#63b8ff" d="M544.98,-260.67C578.44,-249.36 628.08,-232.57 657.81,-222.52"/>
<polygon fill="#63b8ff" stroke="#63b8ff" points="543.51,-257.47 535.16,-263.99 545.75,-264.11 543.51,-257.47"/>
</a>
</g>
</g>
<!-- Node8 -->
<g id="Node000008" class="node">
<title>Node8</title>
<g id="a_Node000008"><a xlink:href="_i_data_receiver_8hpp.html" target="_top" xlink:title="Declares the incoming port abstraction for acquiring raw domain input (TrackData).">
<polygon fill="white" stroke="#666666" points="437,-228 291,-228 291,-198 437,-198 437,-228"/>
<text text-anchor="start" x="299" y="-216" font-family="Helvetica,sans-Serif" font-size="10.00">src/domain/ports/incoming</text>
<text text-anchor="middle" x="364" y="-205" font-family="Helvetica,sans-Serif" font-size="10.00">/IDataReceiver.hpp</text>
</a>
</g>
</g>
<!-- Node1&#45;&gt;Node8 -->
<g id="edge8_Node000001_Node000008" class="edge">
<title>Node1&#45;&gt;Node8</title>
<g id="a_edge8_Node000001_Node000008"><a xlink:title=" ">
<path fill="none" stroke="#63b8ff" d="M479.32,-260.21C455.89,-250.82 423.56,-237.87 399.1,-228.06"/>
<polygon fill="#63b8ff" stroke="#63b8ff" points="478.19,-263.52 488.77,-263.99 480.79,-257.03 478.19,-263.52"/>
</a>
</g>
</g>
<!-- Node10 -->
<g id="Node000010" class="node">
<title>Node10</title>
<g id="a_Node000010"><a xlink:href="_process_track_use_case_8hpp.html" target="_top" xlink:title="Process Track Use Case &#45; Core business workflow orchestration.">
<polygon fill="white" stroke="#666666" points="462,-96 316,-96 316,-66 462,-66 462,-96"/>
<text text-anchor="start" x="324" y="-84" font-family="Helvetica,sans-Serif" font-size="10.00">src/domain/usecases</text>
<text text-anchor="middle" x="389" y="-73" font-family="Helvetica,sans-Serif" font-size="10.00">/ProcessTrackUseCase.hpp</text>
</a>
</g>
</g>
<!-- Node1&#45;&gt;Node10 -->
<g id="edge16_Node000001_Node000010" class="edge">
<title>Node1&#45;&gt;Node10</title>
<g id="a_edge16_Node000001_Node000010"><a xlink:title=" ">
<path fill="none" stroke="#63b8ff" d="M509.46,-253.65C507.73,-224.71 500.75,-168.83 473,-132 461.05,-116.14 442.48,-104.33 425.83,-96.19"/>
<polygon fill="#63b8ff" stroke="#63b8ff" points="505.98,-254.12 509.92,-263.95 512.97,-253.81 505.98,-254.12"/>
</a>
</g>
</g>
<!-- Node3 -->
<g id="Node000003" class="node">
<title>Node3</title>
<g id="a_Node000003"><a xlink:href="_zero_m_q_data_receiver_8cpp.html" target="_top" xlink:title=" ">
<polygon fill="white" stroke="#666666" points="144,-96 0,-96 0,-66 144,-66 144,-96"/>
<text text-anchor="start" x="8" y="-84" font-family="Helvetica,sans-Serif" font-size="10.00">src/adapters/incoming</text>
<text text-anchor="middle" x="72" y="-73" font-family="Helvetica,sans-Serif" font-size="10.00">/ZeroMQDataReceiver.cpp</text>
</a>
</g>
</g>
<!-- Node2&#45;&gt;Node3 -->
<g id="edge2_Node000002_Node000003" class="edge">
<title>Node2&#45;&gt;Node3</title>
<g id="a_edge2_Node000002_Node000003"><a xlink:title=" ">
<path fill="none" stroke="#63b8ff" d="M152.1,-126.97C134.4,-117.03 113.13,-105.09 96.96,-96.01"/>
<polygon fill="#63b8ff" stroke="#63b8ff" points="150.55,-130.11 160.98,-131.95 153.98,-124.01 150.55,-130.11"/>
</a>
</g>
</g>
<!-- Node4 -->
<g id="Node000004" class="node">
<title>Node4</title>
<g id="a_Node000004"><a xlink:href="main_8cpp.html" target="_top" xlink:title="Application entry point demonstrating Hexagonal Architecture assembly.">
<polygon fill="white" stroke="#666666" points="298,-90.5 162,-90.5 162,-71.5 298,-71.5 298,-90.5"/>
<text text-anchor="middle" x="230" y="-78.5" font-family="Helvetica,sans-Serif" font-size="10.00">src/application/main.cpp</text>
</a>
</g>
</g>
<!-- Node2&#45;&gt;Node4 -->
<g id="edge3_Node000002_Node000004" class="edge">
<title>Node2&#45;&gt;Node4</title>
<g id="a_edge3_Node000002_Node000004"><a xlink:title=" ">
<path fill="none" stroke="#63b8ff" d="M201.62,-123.28C209.33,-112.07 218.18,-99.19 223.92,-90.84"/>
<polygon fill="#63b8ff" stroke="#63b8ff" points="198.55,-121.57 195.77,-131.8 204.31,-125.54 198.55,-121.57"/>
</a>
</g>
</g>
<!-- Node6&#45;&gt;Node5 -->
<g id="edge6_Node000006_Node000005" class="edge">
<title>Node6&#45;&gt;Node5</title>
<g id="a_edge6_Node000006_Node000005"><a xlink:title=" ">
<path fill="none" stroke="#63b8ff" d="M636.89,-131.91C619.44,-121.28 595.61,-106.75 578.16,-96.12"/>
<polygon fill="#63b8ff" stroke="#63b8ff" points="635.48,-135.15 645.84,-137.37 639.12,-129.18 635.48,-135.15"/>
</a>
</g>
</g>
<!-- Node8&#45;&gt;Node2 -->
<g id="edge9_Node000008_Node000002" class="edge">
<title>Node8&#45;&gt;Node2</title>
<g id="a_edge9_Node000008_Node000002"><a xlink:title=" ">
<path fill="none" stroke="#63b8ff" d="M315.21,-194.46C286.81,-184.25 251.5,-171.55 224.97,-162.01"/>
<polygon fill="#63b8ff" stroke="#63b8ff" points="314.34,-197.86 324.94,-197.95 316.71,-191.28 314.34,-197.86"/>
</a>
</g>
</g>
<!-- Node9 -->
<g id="Node000009" class="node">
<title>Node9</title>
<g id="a_Node000009"><a xlink:href="_calculator_service_8hpp.html" target="_top" xlink:title="Declares the application service coordinating domain calculations and I/O.">
<polygon fill="white" stroke="#666666" points="463.5,-162 314.5,-162 314.5,-132 463.5,-132 463.5,-162"/>
<text text-anchor="start" x="322.5" y="-150" font-family="Helvetica,sans-Serif" font-size="10.00">src/domain/logic/Calculator</text>
<text text-anchor="middle" x="389" y="-139" font-family="Helvetica,sans-Serif" font-size="10.00">Service.hpp</text>
</a>
</g>
</g>
<!-- Node8&#45;&gt;Node9 -->
<g id="edge10_Node000008_Node000009" class="edge">
<title>Node8&#45;&gt;Node9</title>
<g id="a_edge10_Node000008_Node000009"><a xlink:title=" ">
<path fill="none" stroke="#63b8ff" d="M373.22,-188.39C376.66,-179.59 380.46,-169.86 383.47,-162.16"/>
<polygon fill="#63b8ff" stroke="#63b8ff" points="369.93,-187.21 369.55,-197.8 376.45,-189.76 369.93,-187.21"/>
</a>
</g>
</g>
<!-- Node8&#45;&gt;Node10 -->
<g id="edge15_Node000008_Node000010" class="edge">
<title>Node8&#45;&gt;Node10</title>
<g id="a_edge15_Node000008_Node000010"><a xlink:title=" ">
<path fill="none" stroke="#63b8ff" d="M331.09,-191.82C321.13,-183.88 311.41,-173.8 306,-162 300.45,-149.88 299.44,-143.61 306,-132 315.27,-115.6 332.31,-103.98 348.56,-96.09"/>
<polygon fill="#63b8ff" stroke="#63b8ff" points="329.3,-194.85 339.42,-197.99 333.46,-189.23 329.3,-194.85"/>
</a>
</g>
</g>
<!-- Node9&#45;&gt;Node4 -->
<g id="edge11_Node000009_Node000004" class="edge">
<title>Node9&#45;&gt;Node4</title>
<g id="a_edge11_Node000009_Node000004"><a xlink:title=" ">
<path fill="none" stroke="#63b8ff" d="M344.53,-128.1C314.01,-115.82 274.88,-100.06 251.16,-90.52"/>
<polygon fill="#63b8ff" stroke="#63b8ff" points="343.52,-131.47 354.11,-131.95 346.14,-124.97 343.52,-131.47"/>
</a>
</g>
</g>
<!-- Node9&#45;&gt;Node5 -->
<g id="edge12_Node000009_Node000005" class="edge">
<title>Node9&#45;&gt;Node5</title>
<g id="a_edge12_Node000009_Node000005"><a xlink:title=" ">
<path fill="none" stroke="#63b8ff" d="M434.85,-128.32C461.27,-118.14 494.02,-105.51 518.66,-96.01"/>
<polygon fill="#63b8ff" stroke="#63b8ff" points="433.5,-125.09 425.43,-131.95 436.02,-131.62 433.5,-125.09"/>
</a>
</g>
</g>
<!-- Node9&#45;&gt;Node10 -->
<g id="edge13_Node000009_Node000010" class="edge">
<title>Node9&#45;&gt;Node10</title>
<g id="a_edge13_Node000009_Node000010"><a xlink:title=" ">
<path fill="none" stroke="#63b8ff" d="M389,-121.54C389,-112.96 389,-103.61 389,-96.16"/>
<polygon fill="#63b8ff" stroke="#63b8ff" points="385.5,-121.8 389,-131.8 392.5,-121.8 385.5,-121.8"/>
</a>
</g>
</g>
<!-- Node11 -->
<g id="Node000011" class="node">
<title>Node11</title>
<g id="a_Node000011"><a xlink:href="_process_track_use_case_8cpp.html" target="_top" xlink:title="Implementation of ProcessTrackUseCase &#45; Core business workflow orchestration.">
<polygon fill="white" stroke="#666666" points="462,-30 316,-30 316,0 462,0 462,-30"/>
<text text-anchor="start" x="324" y="-18" font-family="Helvetica,sans-Serif" font-size="10.00">src/domain/usecases</text>
<text text-anchor="middle" x="389" y="-7" font-family="Helvetica,sans-Serif" font-size="10.00">/ProcessTrackUseCase.cpp</text>
</a>
</g>
</g>
<!-- Node10&#45;&gt;Node11 -->
<g id="edge14_Node000010_Node000011" class="edge">
<title>Node10&#45;&gt;Node11</title>
<g id="a_edge14_Node000010_Node000011"><a xlink:title=" ">
<path fill="none" stroke="#63b8ff" d="M389,-55.54C389,-46.96 389,-37.61 389,-30.16"/>
<polygon fill="#63b8ff" stroke="#63b8ff" points="385.5,-55.8 389,-65.8 392.5,-55.8 385.5,-55.8"/>
</a>
</g>
</g>
</g>
</svg>
