<?xml version="1.0" encoding="UTF-8" standalone="no"?>
<!DOCTYPE svg PUBLIC "-//W3C//DTD SVG 1.1//EN"
 "http://www.w3.org/Graphics/SVG/1.1/DTD/svg11.dtd">
<!-- Generated by graphviz version 2.43.0 (0)
 -->
<!-- Title: src/domain/logic/TrackCalculations.hpp Pages: 1 -->
<svg width="252pt" height="82pt"
 viewBox="0.00 0.00 252.00 82.00" xmlns="http://www.w3.org/2000/svg" xmlns:xlink="http://www.w3.org/1999/xlink">
<g id="graph0" class="graph" transform="scale(1 1) rotate(0) translate(4 78)">
<title>src/domain/logic/TrackCalculations.hpp</title>
<!-- Node1 -->
<g id="Node000001" class="node">
<title>Node1</title>
<g id="a_Node000001"><a xlink:title=" ">
<polygon fill="#999999" stroke="#666666" points="244,-74 38,-74 38,-55 244,-55 244,-74"/>
<text text-anchor="middle" x="141" y="-62" font-family="Helvetica,sans-Serif" font-size="10.00">src/domain/logic/TrackCalculations.hpp</text>
</a>
</g>
</g>
<!-- Node2 -->
<g id="Node000002" class="node">
<title>Node2</title>
<g id="a_Node000002"><a xlink:href="_track_data_8hpp.html" target="_top" xlink:title=" ">
<polygon fill="white" stroke="#666666" points="160,-19 0,-19 0,0 160,0 160,-19"/>
<text text-anchor="middle" x="80" y="-7" font-family="Helvetica,sans-Serif" font-size="10.00">domain/model/TrackData.hpp</text>
</a>
</g>
</g>
<!-- Node1&#45;&gt;Node2 -->
<g id="edge1_Node000001_Node000002" class="edge">
<title>Node1&#45;&gt;Node2</title>
<g id="a_edge1_Node000001_Node000002"><a xlink:title=" ">
<path fill="none" stroke="#63b8ff" d="M131.2,-54.98C122.18,-47.15 108.59,-35.34 97.68,-25.86"/>
<polygon fill="#63b8ff" stroke="#63b8ff" points="99.82,-23.09 89.98,-19.17 95.23,-28.37 99.82,-23.09"/>
</a>
</g>
</g>
<!-- Node3 -->
<g id="Node000003" class="node">
<title>Node3</title>
<g id="a_Node000003"><a xlink:title=" ">
<polygon fill="#e0e0e0" stroke="#999999" points="228,-19 178,-19 178,0 228,0 228,-19"/>
<text text-anchor="middle" x="203" y="-7" font-family="Helvetica,sans-Serif" font-size="10.00">chrono</text>
</a>
</g>
</g>
<!-- Node1&#45;&gt;Node3 -->
<g id="edge2_Node000001_Node000003" class="edge">
<title>Node1&#45;&gt;Node3</title>
<g id="a_edge2_Node000001_Node000003"><a xlink:title=" ">
<path fill="none" stroke="#63b8ff" d="M150.96,-54.98C160.13,-47.15 173.94,-35.34 185.03,-25.86"/>
<polygon fill="#63b8ff" stroke="#63b8ff" points="187.53,-28.33 192.86,-19.17 182.98,-23.01 187.53,-28.33"/>
</a>
</g>
</g>
</g>
</svg>
