<?xml version="1.0" encoding="UTF-8" standalone="no"?>
<!DOCTYPE svg PUBLIC "-//W3C//DTD SVG 1.1//EN"
 "http://www.w3.org/Graphics/SVG/1.1/DTD/svg11.dtd">
<!-- Generated by graphviz version 2.43.0 (0)
 -->
<!-- Title: src/adapters/incoming/ZeroMQDataReceiver.hpp Pages: 1 -->
<svg width="605pt" height="159pt"
 viewBox="0.00 0.00 605.00 159.00" xmlns="http://www.w3.org/2000/svg" xmlns:xlink="http://www.w3.org/1999/xlink">
<g id="graph0" class="graph" transform="scale(1 1) rotate(0) translate(4 155)">
<title>src/adapters/incoming/ZeroMQDataReceiver.hpp</title>
<!-- Node1 -->
<g id="Node000001" class="node">
<title>Node1</title>
<g id="a_Node000001"><a xlink:title=" ">
<polygon fill="#999999" stroke="#666666" points="392,-151 247,-151 247,-121 392,-121 392,-151"/>
<text text-anchor="start" x="255" y="-139" font-family="Helvetica,sans-Serif" font-size="10.00">src/adapters/incoming</text>
<text text-anchor="middle" x="319.5" y="-128" font-family="Helvetica,sans-Serif" font-size="10.00">/ZeroMQDataReceiver.hpp</text>
</a>
</g>
</g>
<!-- Node2 -->
<g id="Node000002" class="node">
<title>Node2</title>
<g id="a_Node000002"><a xlink:href="_i_data_receiver_8hpp.html" target="_top" xlink:title="Declares the incoming port abstraction for acquiring raw domain input (TrackData).">
<polygon fill="white" stroke="#666666" points="129,-85 0,-85 0,-55 129,-55 129,-85"/>
<text text-anchor="start" x="8" y="-73" font-family="Helvetica,sans-Serif" font-size="10.00">domain/ports/incoming</text>
<text text-anchor="middle" x="64.5" y="-62" font-family="Helvetica,sans-Serif" font-size="10.00">/IDataReceiver.hpp</text>
</a>
</g>
</g>
<!-- Node1&#45;&gt;Node2 -->
<g id="edge1_Node000001_Node000002" class="edge">
<title>Node1&#45;&gt;Node2</title>
<g id="a_edge1_Node000001_Node000002"><a xlink:title=" ">
<path fill="none" stroke="#63b8ff" d="M263.54,-120.95C224.18,-111.08 171.37,-97.82 130.04,-87.45"/>
<polygon fill="#63b8ff" stroke="#63b8ff" points="130.88,-84.05 120.33,-85.01 129.18,-90.84 130.88,-84.05"/>
</a>
</g>
</g>
<!-- Node3 -->
<g id="Node000003" class="node">
<title>Node3</title>
<g id="a_Node000003"><a xlink:href="_track_data_8hpp.html" target="_top" xlink:title=" ">
<polygon fill="white" stroke="#666666" points="190.5,-19 30.5,-19 30.5,0 190.5,0 190.5,-19"/>
<text text-anchor="middle" x="110.5" y="-7" font-family="Helvetica,sans-Serif" font-size="10.00">domain/model/TrackData.hpp</text>
</a>
</g>
</g>
<!-- Node1&#45;&gt;Node3 -->
<g id="edge3_Node000001_Node000003" class="edge">
<title>Node1&#45;&gt;Node3</title>
<g id="a_edge3_Node000001_Node000003"><a xlink:title=" ">
<path fill="none" stroke="#63b8ff" d="M259.07,-120.97C232.61,-113.06 202.07,-101.39 177.5,-85 154.3,-69.52 133.89,-44.21 121.86,-27.46"/>
<polygon fill="#63b8ff" stroke="#63b8ff" points="124.66,-25.36 116.08,-19.14 118.92,-29.35 124.66,-25.36"/>
</a>
</g>
</g>
<!-- Node4 -->
<g id="Node000004" class="node">
<title>Node4</title>
<g id="a_Node000004"><a xlink:title=" ">
<polygon fill="#e0e0e0" stroke="#999999" points="245,-79.5 186,-79.5 186,-60.5 245,-60.5 245,-79.5"/>
<text text-anchor="middle" x="215.5" y="-67.5" font-family="Helvetica,sans-Serif" font-size="10.00">zmq.hpp</text>
</a>
</g>
</g>
<!-- Node1&#45;&gt;Node4 -->
<g id="edge4_Node000001_Node000004" class="edge">
<title>Node1&#45;&gt;Node4</title>
<g id="a_edge4_Node000001_Node000004"><a xlink:title=" ">
<path fill="none" stroke="#63b8ff" d="M296.68,-120.95C279.32,-110.27 255.56,-95.65 238.23,-84.98"/>
<polygon fill="#63b8ff" stroke="#63b8ff" points="239.69,-81.78 229.34,-79.52 236.02,-87.74 239.69,-81.78"/>
</a>
</g>
</g>
<!-- Node5 -->
<g id="Node000005" class="node">
<title>Node5</title>
<g id="a_Node000005"><a xlink:title=" ">
<polygon fill="#e0e0e0" stroke="#999999" points="307.5,-79.5 263.5,-79.5 263.5,-60.5 307.5,-60.5 307.5,-79.5"/>
<text text-anchor="middle" x="285.5" y="-67.5" font-family="Helvetica,sans-Serif" font-size="10.00">string</text>
</a>
</g>
</g>
<!-- Node1&#45;&gt;Node5 -->
<g id="edge5_Node000001_Node000005" class="edge">
<title>Node1&#45;&gt;Node5</title>
<g id="a_edge5_Node000001_Node000005"><a xlink:title=" ">
<path fill="none" stroke="#63b8ff" d="M311.95,-120.8C306.97,-111.41 300.38,-99.02 295.03,-88.95"/>
<polygon fill="#63b8ff" stroke="#63b8ff" points="297.98,-87.03 290.2,-79.84 291.8,-90.32 297.98,-87.03"/>
</a>
</g>
</g>
<!-- Node6 -->
<g id="Node000006" class="node">
<title>Node6</title>
<g id="a_Node000006"><a xlink:title=" ">
<polygon fill="#e0e0e0" stroke="#999999" points="381.5,-79.5 325.5,-79.5 325.5,-60.5 381.5,-60.5 381.5,-79.5"/>
<text text-anchor="middle" x="353.5" y="-67.5" font-family="Helvetica,sans-Serif" font-size="10.00">sstream</text>
</a>
</g>
</g>
<!-- Node1&#45;&gt;Node6 -->
<g id="edge6_Node000001_Node000006" class="edge">
<title>Node1&#45;&gt;Node6</title>
<g id="a_edge6_Node000001_Node000006"><a xlink:title=" ">
<path fill="none" stroke="#63b8ff" d="M327.05,-120.8C332.03,-111.41 338.62,-99.02 343.97,-88.95"/>
<polygon fill="#63b8ff" stroke="#63b8ff" points="347.2,-90.32 348.8,-79.84 341.02,-87.03 347.2,-90.32"/>
</a>
</g>
</g>
<!-- Node7 -->
<g id="Node000007" class="node">
<title>Node7</title>
<g id="a_Node000007"><a xlink:title=" ">
<polygon fill="#e0e0e0" stroke="#999999" points="447,-79.5 400,-79.5 400,-60.5 447,-60.5 447,-79.5"/>
<text text-anchor="middle" x="423.5" y="-67.5" font-family="Helvetica,sans-Serif" font-size="10.00">vector</text>
</a>
</g>
</g>
<!-- Node1&#45;&gt;Node7 -->
<g id="edge7_Node000001_Node000007" class="edge">
<title>Node1&#45;&gt;Node7</title>
<g id="a_edge7_Node000001_Node000007"><a xlink:title=" ">
<path fill="none" stroke="#63b8ff" d="M342.32,-120.95C359.68,-110.27 383.44,-95.65 400.77,-84.98"/>
<polygon fill="#63b8ff" stroke="#63b8ff" points="402.98,-87.74 409.66,-79.52 399.31,-81.78 402.98,-87.74"/>
</a>
</g>
</g>
<!-- Node8 -->
<g id="Node000008" class="node">
<title>Node8</title>
<g id="a_Node000008"><a xlink:title=" ">
<polygon fill="#e0e0e0" stroke="#999999" points="530,-79.5 465,-79.5 465,-60.5 530,-60.5 530,-79.5"/>
<text text-anchor="middle" x="497.5" y="-67.5" font-family="Helvetica,sans-Serif" font-size="10.00">stdexcept</text>
</a>
</g>
</g>
<!-- Node1&#45;&gt;Node8 -->
<g id="edge8_Node000001_Node000008" class="edge">
<title>Node1&#45;&gt;Node8</title>
<g id="a_edge8_Node000001_Node000008"><a xlink:title=" ">
<path fill="none" stroke="#63b8ff" d="M358.56,-120.95C390.19,-109.58 434.26,-93.74 464.23,-82.96"/>
<polygon fill="#63b8ff" stroke="#63b8ff" points="465.59,-86.19 473.81,-79.52 463.22,-79.61 465.59,-86.19"/>
</a>
</g>
</g>
<!-- Node9 -->
<g id="Node000009" class="node">
<title>Node9</title>
<g id="a_Node000009"><a xlink:title=" ">
<polygon fill="#e0e0e0" stroke="#999999" points="597,-79.5 548,-79.5 548,-60.5 597,-60.5 597,-79.5"/>
<text text-anchor="middle" x="572.5" y="-67.5" font-family="Helvetica,sans-Serif" font-size="10.00">cctype</text>
</a>
</g>
</g>
<!-- Node1&#45;&gt;Node9 -->
<g id="edge9_Node000001_Node000009" class="edge">
<title>Node1&#45;&gt;Node9</title>
<g id="a_edge9_Node000001_Node000009"><a xlink:title=" ">
<path fill="none" stroke="#63b8ff" d="M392.21,-121.86C435.5,-113.2 491.23,-100.59 539.5,-85 541.13,-84.47 542.79,-83.9 544.45,-83.29"/>
<polygon fill="#63b8ff" stroke="#63b8ff" points="545.85,-86.5 553.87,-79.58 543.28,-79.99 545.85,-86.5"/>
</a>
</g>
</g>
<!-- Node2&#45;&gt;Node3 -->
<g id="edge2_Node000002_Node000003" class="edge">
<title>Node2&#45;&gt;Node3</title>
<g id="a_edge2_Node000002_Node000003"><a xlink:title=" ">
<path fill="none" stroke="#63b8ff" d="M75.64,-54.84C82.18,-46.52 90.48,-35.96 97.34,-27.23"/>
<polygon fill="#63b8ff" stroke="#63b8ff" points="100.18,-29.29 103.61,-19.27 94.67,-24.96 100.18,-29.29"/>
</a>
</g>
</g>
</g>
</svg>
