<?xml version="1.0" encoding="UTF-8" standalone="no"?>
<!DOCTYPE svg PUBLIC "-//W3C//DTD SVG 1.1//EN"
 "http://www.w3.org/Graphics/SVG/1.1/DTD/svg11.dtd">
<!-- Generated by graphviz version 2.43.0 (0)
 -->
<!-- Title: src/adapters/outgoing/ZeroMQDataSender.cpp Pages: 1 -->
<svg width="492pt" height="236pt"
 viewBox="0.00 0.00 492.00 236.00" xmlns="http://www.w3.org/2000/svg" xmlns:xlink="http://www.w3.org/1999/xlink">
<g id="graph0" class="graph" transform="scale(1 1) rotate(0) translate(4 232)">
<title>src/adapters/outgoing/ZeroMQDataSender.cpp</title>
<!-- Node1 -->
<g id="Node000001" class="node">
<title>Node1</title>
<g id="a_Node000001"><a xlink:title="Implementation of ZeroMQ publisher adapter for DelayCalculatedTrackData transmission.">
<polygon fill="#999999" stroke="#666666" points="439,-228 304,-228 304,-198 439,-198 439,-228"/>
<text text-anchor="start" x="312" y="-216" font-family="Helvetica,sans-Serif" font-size="10.00">src/adapters/outgoing</text>
<text text-anchor="middle" x="371.5" y="-205" font-family="Helvetica,sans-Serif" font-size="10.00">/ZeroMQDataSender.cpp</text>
</a>
</g>
</g>
<!-- Node2 -->
<g id="Node000002" class="node">
<title>Node2</title>
<g id="a_Node000002"><a xlink:href="_zero_m_q_data_sender_8hpp.html" target="_top" xlink:title=" ">
<polygon fill="white" stroke="#666666" points="324.5,-162 154.5,-162 154.5,-132 324.5,-132 324.5,-162"/>
<text text-anchor="start" x="162.5" y="-150" font-family="Helvetica,sans-Serif" font-size="10.00">adapters/outgoing/ZeroMQData</text>
<text text-anchor="middle" x="239.5" y="-139" font-family="Helvetica,sans-Serif" font-size="10.00">Sender.hpp</text>
</a>
</g>
</g>
<!-- Node1&#45;&gt;Node2 -->
<g id="edge1_Node000001_Node000002" class="edge">
<title>Node1&#45;&gt;Node2</title>
<g id="a_edge1_Node000001_Node000002"><a xlink:title=" ">
<path fill="none" stroke="#63b8ff" d="M342.53,-197.95C323.45,-188.7 298.25,-176.49 277.56,-166.45"/>
<polygon fill="#63b8ff" stroke="#63b8ff" points="278.93,-163.23 268.4,-162.01 275.87,-169.52 278.93,-163.23"/>
</a>
</g>
</g>
<!-- Node7 -->
<g id="Node000007" class="node">
<title>Node7</title>
<g id="a_Node000007"><a xlink:title=" ">
<polygon fill="#e0e0e0" stroke="#999999" points="379.5,-90.5 323.5,-90.5 323.5,-71.5 379.5,-71.5 379.5,-90.5"/>
<text text-anchor="middle" x="351.5" y="-78.5" font-family="Helvetica,sans-Serif" font-size="10.00">sstream</text>
</a>
</g>
</g>
<!-- Node1&#45;&gt;Node7 -->
<g id="edge9_Node000001_Node000007" class="edge">
<title>Node1&#45;&gt;Node7</title>
<g id="a_edge9_Node000001_Node000007"><a xlink:title=" ">
<path fill="none" stroke="#63b8ff" d="M369.32,-197.84C365.71,-174.34 358.46,-127.26 354.41,-100.93"/>
<polygon fill="#63b8ff" stroke="#63b8ff" points="357.83,-100.1 352.85,-90.75 350.91,-101.16 357.83,-100.1"/>
</a>
</g>
</g>
<!-- Node8 -->
<g id="Node000008" class="node">
<title>Node8</title>
<g id="a_Node000008"><a xlink:title=" ">
<polygon fill="#e0e0e0" stroke="#999999" points="447.5,-90.5 397.5,-90.5 397.5,-71.5 447.5,-71.5 447.5,-90.5"/>
<text text-anchor="middle" x="422.5" y="-78.5" font-family="Helvetica,sans-Serif" font-size="10.00">cstring</text>
</a>
</g>
</g>
<!-- Node1&#45;&gt;Node8 -->
<g id="edge10_Node000001_Node000008" class="edge">
<title>Node1&#45;&gt;Node8</title>
<g id="a_edge10_Node000001_Node000008"><a xlink:title=" ">
<path fill="none" stroke="#63b8ff" d="M377.05,-197.84C386.36,-174.13 405.08,-126.41 415.35,-100.23"/>
<polygon fill="#63b8ff" stroke="#63b8ff" points="418.67,-101.34 419.07,-90.75 412.16,-98.78 418.67,-101.34"/>
</a>
</g>
</g>
<!-- Node9 -->
<g id="Node000009" class="node">
<title>Node9</title>
<g id="a_Node000009"><a xlink:title=" ">
<polygon fill="#e0e0e0" stroke="#999999" points="484,-156.5 419,-156.5 419,-137.5 484,-137.5 484,-156.5"/>
<text text-anchor="middle" x="451.5" y="-144.5" font-family="Helvetica,sans-Serif" font-size="10.00">stdexcept</text>
</a>
</g>
</g>
<!-- Node1&#45;&gt;Node9 -->
<g id="edge11_Node000001_Node000009" class="edge">
<title>Node1&#45;&gt;Node9</title>
<g id="a_edge11_Node000001_Node000009"><a xlink:title=" ">
<path fill="none" stroke="#63b8ff" d="M389.25,-197.8C402.09,-187.53 419.42,-173.67 432.53,-163.18"/>
<polygon fill="#63b8ff" stroke="#63b8ff" points="434.82,-165.82 440.44,-156.84 430.45,-160.36 434.82,-165.82"/>
</a>
</g>
</g>
<!-- Node3 -->
<g id="Node000003" class="node">
<title>Node3</title>
<g id="a_Node000003"><a xlink:href="_i_data_sender_8hpp.html" target="_top" xlink:title="Declares the outgoing port abstraction for emitting processed DelayCalculatedTrackData.">
<polygon fill="white" stroke="#666666" points="305,-96 178,-96 178,-66 305,-66 305,-96"/>
<text text-anchor="start" x="186" y="-84" font-family="Helvetica,sans-Serif" font-size="10.00">domain/ports/outgoing</text>
<text text-anchor="middle" x="241.5" y="-73" font-family="Helvetica,sans-Serif" font-size="10.00">/IDataSender.hpp</text>
</a>
</g>
</g>
<!-- Node2&#45;&gt;Node3 -->
<g id="edge2_Node000002_Node000003" class="edge">
<title>Node2&#45;&gt;Node3</title>
<g id="a_edge2_Node000002_Node000003"><a xlink:title=" ">
<path fill="none" stroke="#63b8ff" d="M239.94,-131.8C240.18,-124.34 240.47,-114.99 240.74,-106.41"/>
<polygon fill="#63b8ff" stroke="#63b8ff" points="244.24,-106.27 241.06,-96.16 237.25,-106.05 244.24,-106.27"/>
</a>
</g>
</g>
<!-- Node4 -->
<g id="Node000004" class="node">
<title>Node4</title>
<g id="a_Node000004"><a xlink:href="_delay_calculated_track_data_8hpp.html" target="_top" xlink:title=" ">
<polygon fill="white" stroke="#666666" points="280.5,-30 110.5,-30 110.5,0 280.5,0 280.5,-30"/>
<text text-anchor="start" x="118.5" y="-18" font-family="Helvetica,sans-Serif" font-size="10.00">domain/model/DelayCalculated</text>
<text text-anchor="middle" x="195.5" y="-7" font-family="Helvetica,sans-Serif" font-size="10.00">TrackData.hpp</text>
</a>
</g>
</g>
<!-- Node2&#45;&gt;Node4 -->
<g id="edge4_Node000002_Node000004" class="edge">
<title>Node2&#45;&gt;Node4</title>
<g id="a_edge4_Node000002_Node000004"><a xlink:title=" ">
<path fill="none" stroke="#63b8ff" d="M206.99,-131.84C192.42,-123.65 176.69,-111.79 168.5,-96 158.93,-77.56 168.24,-55.01 178.45,-38.56"/>
<polygon fill="#63b8ff" stroke="#63b8ff" points="181.45,-40.37 184.1,-30.11 175.63,-36.48 181.45,-40.37"/>
</a>
</g>
</g>
<!-- Node5 -->
<g id="Node000005" class="node">
<title>Node5</title>
<g id="a_Node000005"><a xlink:title=" ">
<polygon fill="#e0e0e0" stroke="#999999" points="59,-90.5 0,-90.5 0,-71.5 59,-71.5 59,-90.5"/>
<text text-anchor="middle" x="29.5" y="-78.5" font-family="Helvetica,sans-Serif" font-size="10.00">zmq.hpp</text>
</a>
</g>
</g>
<!-- Node2&#45;&gt;Node5 -->
<g id="edge5_Node000002_Node000005" class="edge">
<title>Node2&#45;&gt;Node5</title>
<g id="a_edge5_Node000002_Node000005"><a xlink:title=" ">
<path fill="none" stroke="#63b8ff" d="M188.37,-131.92C154.26,-122.31 108.5,-109.01 68.5,-96 66.39,-95.31 64.22,-94.59 62.03,-93.84"/>
<polygon fill="#63b8ff" stroke="#63b8ff" points="63.11,-90.51 52.52,-90.52 60.81,-97.12 63.11,-90.51"/>
</a>
</g>
</g>
<!-- Node6 -->
<g id="Node000006" class="node">
<title>Node6</title>
<g id="a_Node000006"><a xlink:title=" ">
<polygon fill="#e0e0e0" stroke="#999999" points="121.5,-90.5 77.5,-90.5 77.5,-71.5 121.5,-71.5 121.5,-90.5"/>
<text text-anchor="middle" x="99.5" y="-78.5" font-family="Helvetica,sans-Serif" font-size="10.00">string</text>
</a>
</g>
</g>
<!-- Node2&#45;&gt;Node6 -->
<g id="edge6_Node000002_Node000006" class="edge">
<title>Node2&#45;&gt;Node6</title>
<g id="a_edge6_Node000002_Node000006"><a xlink:title=" ">
<path fill="none" stroke="#63b8ff" d="M208.78,-131.95C184.55,-120.88 151.04,-105.56 127.54,-94.82"/>
<polygon fill="#63b8ff" stroke="#63b8ff" points="128.68,-91.49 118.13,-90.52 125.77,-97.86 128.68,-91.49"/>
</a>
</g>
</g>
<!-- Node2&#45;&gt;Node7 -->
<g id="edge7_Node000002_Node000007" class="edge">
<title>Node2&#45;&gt;Node7</title>
<g id="a_edge7_Node000002_Node000007"><a xlink:title=" ">
<path fill="none" stroke="#63b8ff" d="M264.08,-131.95C283.03,-121.13 309.08,-106.24 327.8,-95.54"/>
<polygon fill="#63b8ff" stroke="#63b8ff" points="329.65,-98.52 336.59,-90.52 326.18,-92.44 329.65,-98.52"/>
</a>
</g>
</g>
<!-- Node2&#45;&gt;Node8 -->
<g id="edge8_Node000002_Node000008" class="edge">
<title>Node2&#45;&gt;Node8</title>
<g id="a_edge8_Node000002_Node000008"><a xlink:title=" ">
<path fill="none" stroke="#63b8ff" d="M283.78,-132C313.56,-122.37 353.61,-109.02 388.5,-96 389.92,-95.47 391.37,-94.92 392.83,-94.35"/>
<polygon fill="#63b8ff" stroke="#63b8ff" points="394.46,-97.47 402.45,-90.52 391.87,-90.97 394.46,-97.47"/>
</a>
</g>
</g>
<!-- Node3&#45;&gt;Node4 -->
<g id="edge3_Node000003_Node000004" class="edge">
<title>Node3&#45;&gt;Node4</title>
<g id="a_edge3_Node000003_Node000004"><a xlink:title=" ">
<path fill="none" stroke="#63b8ff" d="M231.29,-65.8C225.51,-57.76 218.16,-47.53 211.62,-38.43"/>
<polygon fill="#63b8ff" stroke="#63b8ff" points="214.36,-36.24 205.68,-30.16 208.67,-40.33 214.36,-36.24"/>
</a>
</g>
</g>
</g>
</svg>
