<?xml version="1.0" encoding="UTF-8" standalone="no"?>
<!DOCTYPE svg PUBLIC "-//W3C//DTD SVG 1.1//EN"
 "http://www.w3.org/Graphics/SVG/1.1/DTD/svg11.dtd">
<!-- Generated by graphviz version 2.43.0 (0)
 -->
<!-- Title: src/adapters/incoming/ZeroMQDataReceiver.hpp Pages: 1 -->
<svg width="306pt" height="104pt"
 viewBox="0.00 0.00 306.00 104.00" xmlns="http://www.w3.org/2000/svg" xmlns:xlink="http://www.w3.org/1999/xlink">
<g id="graph0" class="graph" transform="scale(1 1) rotate(0) translate(4 100)">
<title>src/adapters/incoming/ZeroMQDataReceiver.hpp</title>
<!-- Node1 -->
<g id="Node000001" class="node">
<title>Node1</title>
<g id="a_Node000001"><a xlink:title=" ">
<polygon fill="#999999" stroke="#666666" points="223.5,-96 78.5,-96 78.5,-66 223.5,-66 223.5,-96"/>
<text text-anchor="start" x="86.5" y="-84" font-family="Helvetica,sans-Serif" font-size="10.00">src/adapters/incoming</text>
<text text-anchor="middle" x="151" y="-73" font-family="Helvetica,sans-Serif" font-size="10.00">/ZeroMQDataReceiver.hpp</text>
</a>
</g>
</g>
<!-- Node2 -->
<g id="Node000002" class="node">
<title>Node2</title>
<g id="a_Node000002"><a xlink:href="_zero_m_q_data_receiver_8cpp.html" target="_top" xlink:title=" ">
<polygon fill="white" stroke="#666666" points="144,-30 0,-30 0,0 144,0 144,-30"/>
<text text-anchor="start" x="8" y="-18" font-family="Helvetica,sans-Serif" font-size="10.00">src/adapters/incoming</text>
<text text-anchor="middle" x="72" y="-7" font-family="Helvetica,sans-Serif" font-size="10.00">/ZeroMQDataReceiver.cpp</text>
</a>
</g>
</g>
<!-- Node1&#45;&gt;Node2 -->
<g id="edge1_Node000001_Node000002" class="edge">
<title>Node1&#45;&gt;Node2</title>
<g id="a_edge1_Node000001_Node000002"><a xlink:title=" ">
<path fill="none" stroke="#63b8ff" d="M125.67,-59.48C113.86,-49.91 100.11,-38.77 89.48,-30.16"/>
<polygon fill="#63b8ff" stroke="#63b8ff" points="123.49,-62.22 133.47,-65.8 127.9,-56.78 123.49,-62.22"/>
</a>
</g>
</g>
<!-- Node3 -->
<g id="Node000003" class="node">
<title>Node3</title>
<g id="a_Node000003"><a xlink:href="main_8cpp.html" target="_top" xlink:title="Application entry point demonstrating Hexagonal Architecture assembly.">
<polygon fill="white" stroke="#666666" points="298,-24.5 162,-24.5 162,-5.5 298,-5.5 298,-24.5"/>
<text text-anchor="middle" x="230" y="-12.5" font-family="Helvetica,sans-Serif" font-size="10.00">src/application/main.cpp</text>
</a>
</g>
</g>
<!-- Node1&#45;&gt;Node3 -->
<g id="edge2_Node000001_Node000003" class="edge">
<title>Node1&#45;&gt;Node3</title>
<g id="a_edge2_Node000001_Node000003"><a xlink:title=" ">
<path fill="none" stroke="#63b8ff" d="M176.6,-59.26C190.98,-47.61 208.17,-33.69 219.08,-24.84"/>
<polygon fill="#63b8ff" stroke="#63b8ff" points="174.1,-56.78 168.53,-65.8 178.51,-62.22 174.1,-56.78"/>
</a>
</g>
</g>
</g>
</svg>
