<?xml version="1.0" encoding="UTF-8" standalone="no"?>
<!DOCTYPE svg PUBLIC "-//W3C//DTD SVG 1.1//EN"
 "http://www.w3.org/Graphics/SVG/1.1/DTD/svg11.dtd">
<!-- Generated by graphviz version 2.43.0 (0)
 -->
<!-- Title: src/adapters/incoming/ZeroMQDataReceiver.cpp Pages: 1 -->
<svg width="629pt" height="225pt"
 viewBox="0.00 0.00 628.50 225.00" xmlns="http://www.w3.org/2000/svg" xmlns:xlink="http://www.w3.org/1999/xlink">
<g id="graph0" class="graph" transform="scale(1 1) rotate(0) translate(4 221)">
<title>src/adapters/incoming/ZeroMQDataReceiver.cpp</title>
<!-- Node1 -->
<g id="Node000001" class="node">
<title>Node1</title>
<g id="a_Node000001"><a xlink:title=" ">
<polygon fill="#999999" stroke="#666666" points="593,-217 449,-217 449,-187 593,-187 593,-217"/>
<text text-anchor="start" x="457" y="-205" font-family="Helvetica,sans-Serif" font-size="10.00">src/adapters/incoming</text>
<text text-anchor="middle" x="521" y="-194" font-family="Helvetica,sans-Serif" font-size="10.00">/ZeroMQDataReceiver.cpp</text>
</a>
</g>
</g>
<!-- Node2 -->
<g id="Node000002" class="node">
<title>Node2</title>
<g id="a_Node000002"><a xlink:href="_zero_m_q_data_receiver_8hpp.html" target="_top" xlink:title=" ">
<polygon fill="white" stroke="#666666" points="463.5,-151 290.5,-151 290.5,-121 463.5,-121 463.5,-151"/>
<text text-anchor="start" x="298.5" y="-139" font-family="Helvetica,sans-Serif" font-size="10.00">adapters/incoming/ZeroMQData</text>
<text text-anchor="middle" x="377" y="-128" font-family="Helvetica,sans-Serif" font-size="10.00">Receiver.hpp</text>
</a>
</g>
</g>
<!-- Node1&#45;&gt;Node2 -->
<g id="edge1_Node000001_Node000002" class="edge">
<title>Node1&#45;&gt;Node2</title>
<g id="a_edge1_Node000001_Node000002"><a xlink:title=" ">
<path fill="none" stroke="#63b8ff" d="M489.4,-186.95C468.39,-177.62 440.6,-165.27 417.91,-155.18"/>
<polygon fill="#63b8ff" stroke="#63b8ff" points="419.09,-151.88 408.53,-151.01 416.24,-158.27 419.09,-151.88"/>
</a>
</g>
</g>
<!-- Node9 -->
<g id="Node000009" class="node">
<title>Node9</title>
<g id="a_Node000009"><a xlink:title=" ">
<polygon fill="#e0e0e0" stroke="#999999" points="553.5,-79.5 488.5,-79.5 488.5,-60.5 553.5,-60.5 553.5,-79.5"/>
<text text-anchor="middle" x="521" y="-67.5" font-family="Helvetica,sans-Serif" font-size="10.00">stdexcept</text>
</a>
</g>
</g>
<!-- Node1&#45;&gt;Node9 -->
<g id="edge11_Node000001_Node000009" class="edge">
<title>Node1&#45;&gt;Node9</title>
<g id="a_edge11_Node000001_Node000009"><a xlink:title=" ">
<path fill="none" stroke="#63b8ff" d="M521,-186.84C521,-163.34 521,-116.26 521,-89.93"/>
<polygon fill="#63b8ff" stroke="#63b8ff" points="524.5,-89.75 521,-79.75 517.5,-89.75 524.5,-89.75"/>
</a>
</g>
</g>
<!-- Node10 -->
<g id="Node000010" class="node">
<title>Node10</title>
<g id="a_Node000010"><a xlink:title=" ">
<polygon fill="#e0e0e0" stroke="#999999" points="620.5,-79.5 571.5,-79.5 571.5,-60.5 620.5,-60.5 620.5,-79.5"/>
<text text-anchor="middle" x="596" y="-67.5" font-family="Helvetica,sans-Serif" font-size="10.00">cctype</text>
</a>
</g>
</g>
<!-- Node1&#45;&gt;Node10 -->
<g id="edge12_Node000001_Node000010" class="edge">
<title>Node1&#45;&gt;Node10</title>
<g id="a_edge12_Node000001_Node000010"><a xlink:title=" ">
<path fill="none" stroke="#63b8ff" d="M529.17,-186.84C542.97,-162.92 570.87,-114.56 585.88,-88.53"/>
<polygon fill="#63b8ff" stroke="#63b8ff" points="588.99,-90.16 590.95,-79.75 582.92,-86.66 588.99,-90.16"/>
</a>
</g>
</g>
<!-- Node3 -->
<g id="Node000003" class="node">
<title>Node3</title>
<g id="a_Node000003"><a xlink:href="_i_data_receiver_8hpp.html" target="_top" xlink:title="Declares the incoming port abstraction for acquiring raw domain input (TrackData).">
<polygon fill="white" stroke="#666666" points="191.5,-85 62.5,-85 62.5,-55 191.5,-55 191.5,-85"/>
<text text-anchor="start" x="70.5" y="-73" font-family="Helvetica,sans-Serif" font-size="10.00">domain/ports/incoming</text>
<text text-anchor="middle" x="127" y="-62" font-family="Helvetica,sans-Serif" font-size="10.00">/IDataReceiver.hpp</text>
</a>
</g>
</g>
<!-- Node2&#45;&gt;Node3 -->
<g id="edge2_Node000002_Node000003" class="edge">
<title>Node2&#45;&gt;Node3</title>
<g id="a_edge2_Node000002_Node000003"><a xlink:title=" ">
<path fill="none" stroke="#63b8ff" d="M322.14,-120.95C283.63,-111.1 231.99,-97.88 191.51,-87.51"/>
<polygon fill="#63b8ff" stroke="#63b8ff" points="192.29,-84.1 181.74,-85.01 190.56,-90.88 192.29,-84.1"/>
</a>
</g>
</g>
<!-- Node4 -->
<g id="Node000004" class="node">
<title>Node4</title>
<g id="a_Node000004"><a xlink:href="_track_data_8hpp.html" target="_top" xlink:title=" ">
<polygon fill="white" stroke="#666666" points="160,-19 0,-19 0,0 160,0 160,-19"/>
<text text-anchor="middle" x="80" y="-7" font-family="Helvetica,sans-Serif" font-size="10.00">domain/model/TrackData.hpp</text>
</a>
</g>
</g>
<!-- Node2&#45;&gt;Node4 -->
<g id="edge4_Node000002_Node000004" class="edge">
<title>Node2&#45;&gt;Node4</title>
<g id="a_edge4_Node000002_Node000004"><a xlink:title=" ">
<path fill="none" stroke="#63b8ff" d="M290.17,-133.88C204.79,-130.72 83.01,-120 53,-85 38.79,-68.43 52.56,-43.79 65.09,-27.45"/>
<polygon fill="#63b8ff" stroke="#63b8ff" points="68.11,-29.28 71.73,-19.32 62.69,-24.85 68.11,-29.28"/>
</a>
</g>
</g>
<!-- Node5 -->
<g id="Node000005" class="node">
<title>Node5</title>
<g id="a_Node000005"><a xlink:title=" ">
<polygon fill="#e0e0e0" stroke="#999999" points="268.5,-79.5 209.5,-79.5 209.5,-60.5 268.5,-60.5 268.5,-79.5"/>
<text text-anchor="middle" x="239" y="-67.5" font-family="Helvetica,sans-Serif" font-size="10.00">zmq.hpp</text>
</a>
</g>
</g>
<!-- Node2&#45;&gt;Node5 -->
<g id="edge5_Node000002_Node000005" class="edge">
<title>Node2&#45;&gt;Node5</title>
<g id="a_edge5_Node000002_Node000005"><a xlink:title=" ">
<path fill="none" stroke="#63b8ff" d="M346.72,-120.95C322.83,-109.88 289.8,-94.56 266.64,-83.82"/>
<polygon fill="#63b8ff" stroke="#63b8ff" points="267.91,-80.55 257.37,-79.52 264.96,-86.9 267.91,-80.55"/>
</a>
</g>
</g>
<!-- Node6 -->
<g id="Node000006" class="node">
<title>Node6</title>
<g id="a_Node000006"><a xlink:title=" ">
<polygon fill="#e0e0e0" stroke="#999999" points="331,-79.5 287,-79.5 287,-60.5 331,-60.5 331,-79.5"/>
<text text-anchor="middle" x="309" y="-67.5" font-family="Helvetica,sans-Serif" font-size="10.00">string</text>
</a>
</g>
</g>
<!-- Node2&#45;&gt;Node6 -->
<g id="edge6_Node000002_Node000006" class="edge">
<title>Node2&#45;&gt;Node6</title>
<g id="a_edge6_Node000002_Node000006"><a xlink:title=" ">
<path fill="none" stroke="#63b8ff" d="M361.91,-120.8C351.2,-110.72 336.83,-97.19 325.77,-86.78"/>
<polygon fill="#63b8ff" stroke="#63b8ff" points="328.08,-84.15 318.4,-79.84 323.28,-89.25 328.08,-84.15"/>
</a>
</g>
</g>
<!-- Node7 -->
<g id="Node000007" class="node">
<title>Node7</title>
<g id="a_Node000007"><a xlink:title=" ">
<polygon fill="#e0e0e0" stroke="#999999" points="405,-79.5 349,-79.5 349,-60.5 405,-60.5 405,-79.5"/>
<text text-anchor="middle" x="377" y="-67.5" font-family="Helvetica,sans-Serif" font-size="10.00">sstream</text>
</a>
</g>
</g>
<!-- Node2&#45;&gt;Node7 -->
<g id="edge7_Node000002_Node000007" class="edge">
<title>Node2&#45;&gt;Node7</title>
<g id="a_edge7_Node000002_Node000007"><a xlink:title=" ">
<path fill="none" stroke="#63b8ff" d="M377,-120.8C377,-111.7 377,-99.79 377,-89.9"/>
<polygon fill="#63b8ff" stroke="#63b8ff" points="380.5,-89.84 377,-79.84 373.5,-89.84 380.5,-89.84"/>
</a>
</g>
</g>
<!-- Node8 -->
<g id="Node000008" class="node">
<title>Node8</title>
<g id="a_Node000008"><a xlink:title=" ">
<polygon fill="#e0e0e0" stroke="#999999" points="470.5,-79.5 423.5,-79.5 423.5,-60.5 470.5,-60.5 470.5,-79.5"/>
<text text-anchor="middle" x="447" y="-67.5" font-family="Helvetica,sans-Serif" font-size="10.00">vector</text>
</a>
</g>
</g>
<!-- Node2&#45;&gt;Node8 -->
<g id="edge8_Node000002_Node000008" class="edge">
<title>Node2&#45;&gt;Node8</title>
<g id="a_edge8_Node000002_Node000008"><a xlink:title=" ">
<path fill="none" stroke="#63b8ff" d="M392.54,-120.8C403.56,-110.72 418.35,-97.19 429.74,-86.78"/>
<polygon fill="#63b8ff" stroke="#63b8ff" points="432.31,-89.18 437.33,-79.84 427.58,-84.01 432.31,-89.18"/>
</a>
</g>
</g>
<!-- Node2&#45;&gt;Node9 -->
<g id="edge9_Node000002_Node000009" class="edge">
<title>Node2&#45;&gt;Node9</title>
<g id="a_edge9_Node000002_Node000009"><a xlink:title=" ">
<path fill="none" stroke="#63b8ff" d="M408.6,-120.95C433.63,-109.83 468.3,-94.42 492.49,-83.67"/>
<polygon fill="#63b8ff" stroke="#63b8ff" points="494.12,-86.78 501.84,-79.52 491.28,-80.38 494.12,-86.78"/>
</a>
</g>
</g>
<!-- Node2&#45;&gt;Node10 -->
<g id="edge10_Node000002_Node000010" class="edge">
<title>Node2&#45;&gt;Node10</title>
<g id="a_edge10_Node000002_Node000010"><a xlink:title=" ">
<path fill="none" stroke="#63b8ff" d="M437.53,-120.98C474.22,-111.93 521.75,-99.22 563,-85 564.43,-84.51 565.89,-83.98 567.36,-83.43"/>
<polygon fill="#63b8ff" stroke="#63b8ff" points="568.98,-86.55 576.98,-79.6 566.39,-80.05 568.98,-86.55"/>
</a>
</g>
</g>
<!-- Node3&#45;&gt;Node4 -->
<g id="edge3_Node000003_Node000004" class="edge">
<title>Node3&#45;&gt;Node4</title>
<g id="a_edge3_Node000003_Node000004"><a xlink:title=" ">
<path fill="none" stroke="#63b8ff" d="M115.62,-54.84C108.94,-46.52 100.45,-35.96 93.44,-27.23"/>
<polygon fill="#63b8ff" stroke="#63b8ff" points="96.03,-24.87 87.04,-19.27 90.58,-29.25 96.03,-24.87"/>
</a>
</g>
</g>
</g>
</svg>
