<?xml version="1.0" encoding="UTF-8" standalone="no"?>
<!DOCTYPE svg PUBLIC "-//W3C//DTD SVG 1.1//EN"
 "http://www.w3.org/Graphics/SVG/1.1/DTD/svg11.dtd">
<!-- Generated by graphviz version 2.43.0 (0)
 -->
<!-- Title: src/application/main.cpp Pages: 1 -->
<svg width="858pt" height="225pt"
 viewBox="0.00 0.00 857.50 225.00" xmlns="http://www.w3.org/2000/svg" xmlns:xlink="http://www.w3.org/1999/xlink">
<g id="graph0" class="graph" transform="scale(1 1) rotate(0) translate(4 221)">
<title>src/application/main.cpp</title>
<!-- Node1 -->
<g id="Node000001" class="node">
<title>Node1</title>
<g id="a_Node000001"><a xlink:title="Application entry point wiring ZeroMQ adapters to the CalculatorService.">
<polygon fill="#999999" stroke="#666666" points="365,-217 229,-217 229,-198 365,-198 365,-217"/>
<text text-anchor="middle" x="297" y="-205" font-family="Helvetica,sans-Serif" font-size="10.00">src/application/main.cpp</text>
</a>
</g>
</g>
<!-- Node2 -->
<g id="Node000002" class="node">
<title>Node2</title>
<g id="a_Node000002"><a xlink:title=" ">
<polygon fill="#e0e0e0" stroke="#999999" points="95,-156.5 35,-156.5 35,-137.5 95,-137.5 95,-156.5"/>
<text text-anchor="middle" x="65" y="-144.5" font-family="Helvetica,sans-Serif" font-size="10.00">iostream</text>
</a>
</g>
</g>
<!-- Node1&#45;&gt;Node2 -->
<g id="edge1_Node000001_Node000002" class="edge">
<title>Node1&#45;&gt;Node2</title>
<g id="a_edge1_Node000001_Node000002"><a xlink:title=" ">
<path fill="none" stroke="#63b8ff" d="M253.31,-197.96C213.94,-189.91 154.64,-176.87 104,-162 101.73,-161.33 99.4,-160.61 97.06,-159.85"/>
<polygon fill="#63b8ff" stroke="#63b8ff" points="98.13,-156.51 87.54,-156.6 95.87,-163.14 98.13,-156.51"/>
</a>
</g>
</g>
<!-- Node3 -->
<g id="Node000003" class="node">
<title>Node3</title>
<g id="a_Node000003"><a xlink:href="domain_2logic_2_calculator_service_8hpp.html" target="_top" xlink:title="Declares the application service coordinating domain calculations and I/O.">
<polygon fill="white" stroke="#666666" points="490.5,-156.5 301.5,-156.5 301.5,-137.5 490.5,-137.5 490.5,-156.5"/>
<text text-anchor="middle" x="396" y="-144.5" font-family="Helvetica,sans-Serif" font-size="10.00">domain/logic/CalculatorService.hpp</text>
</a>
</g>
</g>
<!-- Node1&#45;&gt;Node3 -->
<g id="edge2_Node000001_Node000003" class="edge">
<title>Node1&#45;&gt;Node3</title>
<g id="a_edge2_Node000001_Node000003"><a xlink:title=" ">
<path fill="none" stroke="#63b8ff" d="M311.61,-197.87C327.69,-188.36 353.78,-172.95 372.7,-161.77"/>
<polygon fill="#63b8ff" stroke="#63b8ff" points="374.5,-164.77 381.33,-156.67 370.94,-158.74 374.5,-164.77"/>
</a>
</g>
</g>
<!-- Node8 -->
<g id="Node000008" class="node">
<title>Node8</title>
<g id="a_Node000008"><a xlink:href="_zero_m_q_data_receiver_8hpp.html" target="_top" xlink:title=" ">
<polygon fill="white" stroke="#666666" points="681.5,-162 508.5,-162 508.5,-132 681.5,-132 681.5,-162"/>
<text text-anchor="start" x="516.5" y="-150" font-family="Helvetica,sans-Serif" font-size="10.00">adapters/incoming/ZeroMQData</text>
<text text-anchor="middle" x="595" y="-139" font-family="Helvetica,sans-Serif" font-size="10.00">Receiver.hpp</text>
</a>
</g>
</g>
<!-- Node1&#45;&gt;Node8 -->
<g id="edge7_Node000001_Node000008" class="edge">
<title>Node1&#45;&gt;Node8</title>
<g id="a_edge7_Node000001_Node000008"><a xlink:title=" ">
<path fill="none" stroke="#63b8ff" d="M340.33,-197.99C385.64,-189.1 457.79,-174.94 513.75,-163.95"/>
<polygon fill="#63b8ff" stroke="#63b8ff" points="514.51,-167.37 523.64,-162.01 513.16,-160.5 514.51,-167.37"/>
</a>
</g>
</g>
<!-- Node15 -->
<g id="Node000015" class="node">
<title>Node15</title>
<g id="a_Node000015"><a xlink:href="_zero_m_q_data_sender_8hpp.html" target="_top" xlink:title=" ">
<polygon fill="white" stroke="#666666" points="283,-162 113,-162 113,-132 283,-132 283,-162"/>
<text text-anchor="start" x="121" y="-150" font-family="Helvetica,sans-Serif" font-size="10.00">adapters/outgoing/ZeroMQData</text>
<text text-anchor="middle" x="198" y="-139" font-family="Helvetica,sans-Serif" font-size="10.00">Sender.hpp</text>
</a>
</g>
</g>
<!-- Node1&#45;&gt;Node15 -->
<g id="edge16_Node000001_Node000015" class="edge">
<title>Node1&#45;&gt;Node15</title>
<g id="a_edge16_Node000001_Node000015"><a xlink:title=" ">
<path fill="none" stroke="#63b8ff" d="M282.39,-197.87C268.83,-189.86 248.17,-177.65 230.69,-167.31"/>
<polygon fill="#63b8ff" stroke="#63b8ff" points="232.28,-164.19 221.89,-162.11 228.71,-170.22 232.28,-164.19"/>
</a>
</g>
</g>
<!-- Node4 -->
<g id="Node000004" class="node">
<title>Node4</title>
<g id="a_Node000004"><a xlink:href="_i_data_receiver_8hpp.html" target="_top" xlink:title="Declares the incoming port abstraction for acquiring raw domain input (TrackData).">
<polygon fill="white" stroke="#666666" points="595.5,-96 466.5,-96 466.5,-66 595.5,-66 595.5,-96"/>
<text text-anchor="start" x="474.5" y="-84" font-family="Helvetica,sans-Serif" font-size="10.00">domain/ports/incoming</text>
<text text-anchor="middle" x="531" y="-73" font-family="Helvetica,sans-Serif" font-size="10.00">/IDataReceiver.hpp</text>
</a>
</g>
</g>
<!-- Node3&#45;&gt;Node4 -->
<g id="edge3_Node000003_Node000004" class="edge">
<title>Node3&#45;&gt;Node4</title>
<g id="a_edge3_Node000003_Node000004"><a xlink:title=" ">
<path fill="none" stroke="#63b8ff" d="M414.21,-137.37C434.08,-127.95 466.48,-112.59 492.12,-100.43"/>
<polygon fill="#63b8ff" stroke="#63b8ff" points="493.69,-103.56 501.22,-96.12 490.69,-97.24 493.69,-103.56"/>
</a>
</g>
</g>
<!-- Node6 -->
<g id="Node000006" class="node">
<title>Node6</title>
<g id="a_Node000006"><a xlink:href="_i_data_sender_8hpp.html" target="_top" xlink:title="Declares the outgoing port abstraction for emitting processed DelayCalculatedTrackData.">
<polygon fill="white" stroke="#666666" points="233.5,-96 106.5,-96 106.5,-66 233.5,-66 233.5,-96"/>
<text text-anchor="start" x="114.5" y="-84" font-family="Helvetica,sans-Serif" font-size="10.00">domain/ports/outgoing</text>
<text text-anchor="middle" x="170" y="-73" font-family="Helvetica,sans-Serif" font-size="10.00">/IDataSender.hpp</text>
</a>
</g>
</g>
<!-- Node3&#45;&gt;Node6 -->
<g id="edge5_Node000003_Node000006" class="edge">
<title>Node3&#45;&gt;Node6</title>
<g id="a_edge5_Node000003_Node000006"><a xlink:title=" ">
<path fill="none" stroke="#63b8ff" d="M365.52,-137.37C330.8,-127.54 273.21,-111.23 229.51,-98.85"/>
<polygon fill="#63b8ff" stroke="#63b8ff" points="230.42,-95.47 219.85,-96.12 228.51,-102.21 230.42,-95.47"/>
</a>
</g>
</g>
<!-- Node5 -->
<g id="Node000005" class="node">
<title>Node5</title>
<g id="a_Node000005"><a xlink:href="_track_data_8hpp.html" target="_top" xlink:title=" ">
<polygon fill="white" stroke="#666666" points="657,-24.5 497,-24.5 497,-5.5 657,-5.5 657,-24.5"/>
<text text-anchor="middle" x="577" y="-12.5" font-family="Helvetica,sans-Serif" font-size="10.00">domain/model/TrackData.hpp</text>
</a>
</g>
</g>
<!-- Node4&#45;&gt;Node5 -->
<g id="edge4_Node000004_Node000005" class="edge">
<title>Node4&#45;&gt;Node5</title>
<g id="a_edge4_Node000004_Node000005"><a xlink:title=" ">
<path fill="none" stroke="#63b8ff" d="M541.21,-65.8C548.17,-56.11 557.42,-43.24 564.77,-33.01"/>
<polygon fill="#63b8ff" stroke="#63b8ff" points="567.65,-35.01 570.64,-24.84 561.96,-30.92 567.65,-35.01"/>
</a>
</g>
</g>
<!-- Node7 -->
<g id="Node000007" class="node">
<title>Node7</title>
<g id="a_Node000007"><a xlink:href="_delay_calculated_track_data_8hpp.html" target="_top" xlink:title=" ">
<polygon fill="white" stroke="#666666" points="209,-30 39,-30 39,0 209,0 209,-30"/>
<text text-anchor="start" x="47" y="-18" font-family="Helvetica,sans-Serif" font-size="10.00">domain/model/DelayCalculated</text>
<text text-anchor="middle" x="124" y="-7" font-family="Helvetica,sans-Serif" font-size="10.00">TrackData.hpp</text>
</a>
</g>
</g>
<!-- Node6&#45;&gt;Node7 -->
<g id="edge6_Node000006_Node000007" class="edge">
<title>Node6&#45;&gt;Node7</title>
<g id="a_edge6_Node000006_Node000007"><a xlink:title=" ">
<path fill="none" stroke="#63b8ff" d="M159.79,-65.8C154.01,-57.76 146.66,-47.53 140.12,-38.43"/>
<polygon fill="#63b8ff" stroke="#63b8ff" points="142.86,-36.24 134.18,-30.16 137.17,-40.33 142.86,-36.24"/>
</a>
</g>
</g>
<!-- Node8&#45;&gt;Node4 -->
<g id="edge8_Node000008_Node000004" class="edge">
<title>Node8&#45;&gt;Node4</title>
<g id="a_edge8_Node000008_Node000004"><a xlink:title=" ">
<path fill="none" stroke="#63b8ff" d="M580.8,-131.8C572.43,-123.43 561.68,-112.68 552.31,-103.31"/>
<polygon fill="#63b8ff" stroke="#63b8ff" points="554.71,-100.76 545.16,-96.16 549.76,-105.71 554.71,-100.76"/>
</a>
</g>
</g>
<!-- Node8&#45;&gt;Node5 -->
<g id="edge9_Node000008_Node000005" class="edge">
<title>Node8&#45;&gt;Node5</title>
<g id="a_edge9_Node000008_Node000005"><a xlink:title=" ">
<path fill="none" stroke="#63b8ff" d="M599.93,-131.92C604.85,-115.77 610.9,-88.62 605,-66 601.91,-54.16 595.33,-42.15 589.32,-32.88"/>
<polygon fill="#63b8ff" stroke="#63b8ff" points="592.19,-30.88 583.65,-24.61 586.42,-34.84 592.19,-30.88"/>
</a>
</g>
</g>
<!-- Node9 -->
<g id="Node000009" class="node">
<title>Node9</title>
<g id="a_Node000009"><a xlink:title=" ">
<polygon fill="#e0e0e0" stroke="#999999" points="385.5,-90.5 326.5,-90.5 326.5,-71.5 385.5,-71.5 385.5,-90.5"/>
<text text-anchor="middle" x="356" y="-78.5" font-family="Helvetica,sans-Serif" font-size="10.00">zmq.hpp</text>
</a>
</g>
</g>
<!-- Node8&#45;&gt;Node9 -->
<g id="edge10_Node000008_Node000009" class="edge">
<title>Node8&#45;&gt;Node9</title>
<g id="a_edge10_Node000008_Node000009"><a xlink:title=" ">
<path fill="none" stroke="#63b8ff" d="M531.95,-131.94C492.36,-122.69 440.38,-109.78 395,-96 392.73,-95.31 390.41,-94.57 388.07,-93.8"/>
<polygon fill="#63b8ff" stroke="#63b8ff" points="389.15,-90.47 378.56,-90.53 386.88,-97.09 389.15,-90.47"/>
</a>
</g>
</g>
<!-- Node10 -->
<g id="Node000010" class="node">
<title>Node10</title>
<g id="a_Node000010"><a xlink:title=" ">
<polygon fill="#e0e0e0" stroke="#999999" points="448,-90.5 404,-90.5 404,-71.5 448,-71.5 448,-90.5"/>
<text text-anchor="middle" x="426" y="-78.5" font-family="Helvetica,sans-Serif" font-size="10.00">string</text>
</a>
</g>
</g>
<!-- Node8&#45;&gt;Node10 -->
<g id="edge11_Node000008_Node000010" class="edge">
<title>Node8&#45;&gt;Node10</title>
<g id="a_edge11_Node000008_Node000010"><a xlink:title=" ">
<path fill="none" stroke="#63b8ff" d="M554.58,-132C527.17,-122.32 490.2,-108.9 458,-96 456.83,-95.53 455.64,-95.04 454.43,-94.55"/>
<polygon fill="#63b8ff" stroke="#63b8ff" points="455.78,-91.32 445.21,-90.64 453.05,-97.76 455.78,-91.32"/>
</a>
</g>
</g>
<!-- Node11 -->
<g id="Node000011" class="node">
<title>Node11</title>
<g id="a_Node000011"><a xlink:title=" ">
<polygon fill="#e0e0e0" stroke="#999999" points="308,-90.5 252,-90.5 252,-71.5 308,-71.5 308,-90.5"/>
<text text-anchor="middle" x="280" y="-78.5" font-family="Helvetica,sans-Serif" font-size="10.00">sstream</text>
</a>
</g>
</g>
<!-- Node8&#45;&gt;Node11 -->
<g id="edge12_Node000008_Node000011" class="edge">
<title>Node8&#45;&gt;Node11</title>
<g id="a_edge12_Node000008_Node000011"><a xlink:title=" ">
<path fill="none" stroke="#63b8ff" d="M508.35,-132.05C440.91,-120.88 353.07,-105.55 318,-96 315.57,-95.34 313.07,-94.59 310.57,-93.78"/>
<polygon fill="#63b8ff" stroke="#63b8ff" points="311.69,-90.46 301.09,-90.51 309.4,-97.08 311.69,-90.46"/>
</a>
</g>
</g>
<!-- Node12 -->
<g id="Node000012" class="node">
<title>Node12</title>
<g id="a_Node000012"><a xlink:title=" ">
<polygon fill="#e0e0e0" stroke="#999999" points="699.5,-90.5 652.5,-90.5 652.5,-71.5 699.5,-71.5 699.5,-90.5"/>
<text text-anchor="middle" x="676" y="-78.5" font-family="Helvetica,sans-Serif" font-size="10.00">vector</text>
</a>
</g>
</g>
<!-- Node8&#45;&gt;Node12 -->
<g id="edge13_Node000008_Node000012" class="edge">
<title>Node8&#45;&gt;Node12</title>
<g id="a_edge13_Node000008_Node000012"><a xlink:title=" ">
<path fill="none" stroke="#63b8ff" d="M612.98,-131.8C625.98,-121.53 643.51,-107.67 656.79,-97.18"/>
<polygon fill="#63b8ff" stroke="#63b8ff" points="659.13,-99.79 664.81,-90.84 654.79,-94.3 659.13,-99.79"/>
</a>
</g>
</g>
<!-- Node13 -->
<g id="Node000013" class="node">
<title>Node13</title>
<g id="a_Node000013"><a xlink:title=" ">
<polygon fill="#e0e0e0" stroke="#999999" points="782.5,-90.5 717.5,-90.5 717.5,-71.5 782.5,-71.5 782.5,-90.5"/>
<text text-anchor="middle" x="750" y="-78.5" font-family="Helvetica,sans-Serif" font-size="10.00">stdexcept</text>
</a>
</g>
</g>
<!-- Node8&#45;&gt;Node13 -->
<g id="edge14_Node000008_Node000013" class="edge">
<title>Node8&#45;&gt;Node13</title>
<g id="a_edge14_Node000008_Node000013"><a xlink:title=" ">
<path fill="none" stroke="#63b8ff" d="M629.02,-131.95C656.2,-120.73 693.93,-105.15 720,-94.39"/>
<polygon fill="#63b8ff" stroke="#63b8ff" points="721.46,-97.57 729.37,-90.52 718.79,-91.1 721.46,-97.57"/>
</a>
</g>
</g>
<!-- Node14 -->
<g id="Node000014" class="node">
<title>Node14</title>
<g id="a_Node000014"><a xlink:title=" ">
<polygon fill="#e0e0e0" stroke="#999999" points="849.5,-90.5 800.5,-90.5 800.5,-71.5 849.5,-71.5 849.5,-90.5"/>
<text text-anchor="middle" x="825" y="-78.5" font-family="Helvetica,sans-Serif" font-size="10.00">cctype</text>
</a>
</g>
</g>
<!-- Node8&#45;&gt;Node14 -->
<g id="edge15_Node000008_Node000014" class="edge">
<title>Node8&#45;&gt;Node14</title>
<g id="a_edge15_Node000008_Node000014"><a xlink:title=" ">
<path fill="none" stroke="#63b8ff" d="M660.95,-131.92C699.56,-123.01 749.03,-110.47 792,-96 793.44,-95.52 794.9,-95 796.37,-94.45"/>
<polygon fill="#63b8ff" stroke="#63b8ff" points="797.99,-97.58 806,-90.65 795.41,-91.07 797.99,-97.58"/>
</a>
</g>
</g>
<!-- Node15&#45;&gt;Node6 -->
<g id="edge17_Node000015_Node000006" class="edge">
<title>Node15&#45;&gt;Node6</title>
<g id="a_edge17_Node000015_Node000006"><a xlink:title=" ">
<path fill="none" stroke="#63b8ff" d="M191.79,-131.8C188.41,-124.09 184.16,-114.37 180.31,-105.56"/>
<polygon fill="#63b8ff" stroke="#63b8ff" points="183.41,-103.92 176.2,-96.16 177,-106.73 183.41,-103.92"/>
</a>
</g>
</g>
<!-- Node15&#45;&gt;Node7 -->
<g id="edge18_Node000015_Node000007" class="edge">
<title>Node15&#45;&gt;Node7</title>
<g id="a_edge18_Node000015_Node000007"><a xlink:title=" ">
<path fill="none" stroke="#63b8ff" d="M144.8,-131.99C126.75,-124.42 108.51,-113.01 98,-96 87.05,-78.29 96.37,-55.48 106.77,-38.76"/>
<polygon fill="#63b8ff" stroke="#63b8ff" points="109.87,-40.42 112.54,-30.16 104.06,-36.52 109.87,-40.42"/>
</a>
</g>
</g>
<!-- Node15&#45;&gt;Node9 -->
<g id="edge19_Node000015_Node000009" class="edge">
<title>Node15&#45;&gt;Node9</title>
<g id="a_edge19_Node000015_Node000009"><a xlink:title=" ">
<path fill="none" stroke="#63b8ff" d="M232.67,-131.95C260.38,-120.73 298.85,-105.15 325.42,-94.39"/>
<polygon fill="#63b8ff" stroke="#63b8ff" points="327.02,-97.52 334.97,-90.52 324.39,-91.03 327.02,-97.52"/>
</a>
</g>
</g>
<!-- Node15&#45;&gt;Node10 -->
<g id="edge20_Node000015_Node000010" class="edge">
<title>Node15&#45;&gt;Node10</title>
<g id="a_edge20_Node000015_Node000010"><a xlink:title=" ">
<path fill="none" stroke="#63b8ff" d="M265.43,-131.97C303.88,-123.21 352.7,-110.79 395,-96 396.39,-95.51 397.81,-94.99 399.23,-94.44"/>
<polygon fill="#63b8ff" stroke="#63b8ff" points="400.65,-97.64 408.51,-90.54 397.94,-91.18 400.65,-97.64"/>
</a>
</g>
</g>
<!-- Node15&#45;&gt;Node11 -->
<g id="edge21_Node000015_Node000011" class="edge">
<title>Node15&#45;&gt;Node11</title>
<g id="a_edge21_Node000015_Node000011"><a xlink:title=" ">
<path fill="none" stroke="#63b8ff" d="M216.2,-131.8C229.36,-121.53 247.11,-107.67 260.55,-97.18"/>
<polygon fill="#63b8ff" stroke="#63b8ff" points="262.94,-99.76 268.67,-90.84 258.63,-94.24 262.94,-99.76"/>
</a>
</g>
</g>
<!-- Node16 -->
<g id="Node000016" class="node">
<title>Node16</title>
<g id="a_Node000016"><a xlink:title=" ">
<polygon fill="#e0e0e0" stroke="#999999" points="50,-90.5 0,-90.5 0,-71.5 50,-71.5 50,-90.5"/>
<text text-anchor="middle" x="25" y="-78.5" font-family="Helvetica,sans-Serif" font-size="10.00">cstring</text>
</a>
</g>
</g>
<!-- Node15&#45;&gt;Node16 -->
<g id="edge22_Node000015_Node000016" class="edge">
<title>Node15&#45;&gt;Node16</title>
<g id="a_edge22_Node000015_Node000016"><a xlink:title=" ">
<path fill="none" stroke="#63b8ff" d="M160.03,-131.95C129.43,-120.63 86.83,-104.88 57.72,-94.1"/>
<polygon fill="#63b8ff" stroke="#63b8ff" points="58.62,-90.7 48.02,-90.52 56.19,-97.27 58.62,-90.7"/>
</a>
</g>
</g>
</g>
</svg>
