<?xml version="1.0" encoding="UTF-8" standalone="no"?>
<!DOCTYPE svg PUBLIC "-//W3C//DTD SVG 1.1//EN"
 "http://www.w3.org/Graphics/SVG/1.1/DTD/svg11.dtd">
<!-- Generated by graphviz version 2.43.0 (0)
 -->
<!-- Title: main Pages: 1 -->
<svg width="391pt" height="161pt"
 viewBox="0.00 0.00 391.00 160.50" xmlns="http://www.w3.org/2000/svg" xmlns:xlink="http://www.w3.org/1999/xlink">
<g id="graph0" class="graph" transform="scale(1 1) rotate(0) translate(4 156.5)">
<title>main</title>
<!-- Node1 -->
<g id="Node000001" class="node">
<title>Node1</title>
<g id="a_Node000001"><a xlink:title=" ">
<polygon fill="#999999" stroke="#666666" points="41,-77 0,-77 0,-58 41,-58 41,-77"/>
<text text-anchor="middle" x="20.5" y="-65" font-family="Helvetica,sans-Serif" font-size="10.00">main</text>
</a>
</g>
</g>
<!-- Node2 -->
<g id="Node000002" class="node">
<title>Node2</title>
<g id="a_Node000002"><a xlink:href="class_calculator_service.html#a769ea16b132231936fb0241586dd29e7" target="_top" xlink:title="Begin the processing loop (blocking call).">
<polygon fill="white" stroke="#666666" points="185,-82.5 77,-82.5 77,-52.5 185,-52.5 185,-82.5"/>
<text text-anchor="start" x="85" y="-70.5" font-family="Helvetica,sans-Serif" font-size="10.00">CalculatorService::</text>
<text text-anchor="middle" x="131" y="-59.5" font-family="Helvetica,sans-Serif" font-size="10.00">start</text>
</a>
</g>
</g>
<!-- Node1&#45;&gt;Node2 -->
<g id="edge1_Node000001_Node000002" class="edge">
<title>Node1&#45;&gt;Node2</title>
<g id="a_edge1_Node000001_Node000002"><a xlink:title=" ">
<path fill="none" stroke="#63b8ff" d="M41.15,-67.5C48.5,-67.5 57.31,-67.5 66.49,-67.5"/>
<polygon fill="#63b8ff" stroke="#63b8ff" points="66.54,-71 76.54,-67.5 66.54,-64 66.54,-71"/>
</a>
</g>
</g>
<!-- Node3 -->
<g id="Node000003" class="node">
<title>Node3</title>
<g id="a_Node000003"><a xlink:href="class_track_calculations.html#a667256730f5193686d3114e5494cad4e" target="_top" xlink:title="Calculates first hop delay time in nanoseconds.">
<polygon fill="white" stroke="#666666" points="379.5,-152.5 224.5,-152.5 224.5,-122.5 379.5,-122.5 379.5,-152.5"/>
<text text-anchor="start" x="232.5" y="-140.5" font-family="Helvetica,sans-Serif" font-size="10.00">TrackCalculations::</text>
<text text-anchor="middle" x="302" y="-129.5" font-family="Helvetica,sans-Serif" font-size="10.00">calculateFirstHopDelayTime</text>
</a>
</g>
</g>
<!-- Node2&#45;&gt;Node3 -->
<g id="edge2_Node000002_Node000003" class="edge">
<title>Node2&#45;&gt;Node3</title>
<g id="a_edge2_Node000002_Node000003"><a xlink:title=" ">
<path fill="none" stroke="#63b8ff" d="M157.88,-82.5C175.32,-92.2 199.07,-104.63 221,-113.5 225.96,-115.5 231.15,-117.43 236.4,-119.26"/>
<polygon fill="#63b8ff" stroke="#63b8ff" points="235.29,-122.57 245.88,-122.43 237.51,-115.94 235.29,-122.57"/>
</a>
</g>
</g>
<!-- Node4 -->
<g id="Node000004" class="node">
<title>Node4</title>
<g id="a_Node000004"><a xlink:href="class_track_calculations.html#a9bba5b67b4497fb443b56c6e7dd6c45a" target="_top" xlink:title="Calculates second hop sent time as the current system time in nanoseconds.">
<polygon fill="white" stroke="#666666" points="383,-104.5 221,-104.5 221,-74.5 383,-74.5 383,-104.5"/>
<text text-anchor="start" x="229" y="-92.5" font-family="Helvetica,sans-Serif" font-size="10.00">TrackCalculations::</text>
<text text-anchor="middle" x="302" y="-81.5" font-family="Helvetica,sans-Serif" font-size="10.00">calculateSecondHopSentTime</text>
</a>
</g>
</g>
<!-- Node2&#45;&gt;Node4 -->
<g id="edge3_Node000002_Node000004" class="edge">
<title>Node2&#45;&gt;Node4</title>
<g id="a_edge3_Node000002_Node000004"><a xlink:title=" ">
<path fill="none" stroke="#63b8ff" d="M185.01,-74.4C193.31,-75.48 202.08,-76.62 210.93,-77.78"/>
<polygon fill="#63b8ff" stroke="#63b8ff" points="210.58,-81.26 220.94,-79.08 211.48,-74.32 210.58,-81.26"/>
</a>
</g>
</g>
<!-- Node5 -->
<g id="Node000005" class="node">
<title>Node5</title>
<g id="a_Node000005"><a xlink:href="class_i_data_receiver.html#a3876c1e633f292f74e8437c9db42b5aa" target="_top" xlink:title="Obtain one TrackData item from the underlying source (blocking by default).">
<polygon fill="white" stroke="#666666" points="366,-56 238,-56 238,-37 366,-37 366,-56"/>
<text text-anchor="middle" x="302" y="-44" font-family="Helvetica,sans-Serif" font-size="10.00">IDataReceiver::receive</text>
</a>
</g>
</g>
<!-- Node2&#45;&gt;Node5 -->
<g id="edge4_Node000002_Node000005" class="edge">
<title>Node2&#45;&gt;Node5</title>
<g id="a_edge4_Node000002_Node000005"><a xlink:title=" ">
<path fill="none" stroke="#63b8ff" d="M185.01,-60.91C198.48,-59.24 213.21,-57.41 227.5,-55.63"/>
<polygon fill="#63b8ff" stroke="#63b8ff" points="228.32,-59.06 237.81,-54.35 227.46,-52.11 228.32,-59.06"/>
</a>
</g>
</g>
<!-- Node6 -->
<g id="Node000006" class="node">
<title>Node6</title>
<g id="a_Node000006"><a xlink:href="class_i_data_sender.html#a43884e2a8d38928a0a4169ab64ba8fcd" target="_top" xlink:title="Send one enriched DelayCalculatedTrackData instance to the external world.">
<polygon fill="white" stroke="#666666" points="355,-19 249,-19 249,0 355,0 355,-19"/>
<text text-anchor="middle" x="302" y="-7" font-family="Helvetica,sans-Serif" font-size="10.00">IDataSender::send</text>
</a>
</g>
</g>
<!-- Node2&#45;&gt;Node6 -->
<g id="edge5_Node000002_Node000006" class="edge">
<title>Node2&#45;&gt;Node6</title>
<g id="a_edge5_Node000002_Node000006"><a xlink:title=" ">
<path fill="none" stroke="#63b8ff" d="M162.76,-52.38C179.66,-44.5 201.16,-35.14 221,-28.5 228.6,-25.95 236.72,-23.61 244.76,-21.5"/>
<polygon fill="#63b8ff" stroke="#63b8ff" points="245.65,-24.89 254.49,-19.05 243.94,-18.1 245.65,-24.89"/>
</a>
</g>
</g>
</g>
</svg>
