<?xml version="1.0" encoding="UTF-8" standalone="no"?>
<!DOCTYPE svg PUBLIC "-//W3C//DTD SVG 1.1//EN"
 "http://www.w3.org/Graphics/SVG/1.1/DTD/svg11.dtd">
<!-- Generated by graphviz version 2.43.0 (0)
 -->
<!-- Title: ZeroMQDataSender Pages: 1 -->
<svg width="141pt" height="232pt"
 viewBox="0.00 0.00 141.00 232.00" xmlns="http://www.w3.org/2000/svg" xmlns:xlink="http://www.w3.org/1999/xlink">
<g id="graph0" class="graph" transform="scale(1 1) rotate(0) translate(4 228)">
<title>ZeroMQDataSender</title>
<!-- Node1 -->
<g id="Node000001" class="node">
<title>Node1</title>
<g id="a_Node000001"><a xlink:title="ZeroMQ publisher adapter (PUB side) sending DelayCalculatedTrackData as JSON.">
<polygon fill="#999999" stroke="transparent" points="133,-79 0,-79 0,0 133,0 133,-79"/>
<text text-anchor="start" x="18.5" y="-66.5" font-family="Helvetica,sans-Serif" font-size="10.00">ZeroMQDataSender</text>
<text text-anchor="start" x="65" y="-51.5" font-family="Helvetica,sans-Serif" font-size="10.00"> </text>
<text text-anchor="start" x="4.5" y="-36.5" font-family="Helvetica,sans-Serif" font-size="10.00">+</text>
<text text-anchor="start" x="17.5" y="-36.5" font-family="Helvetica,sans-Serif" font-size="10.00">ZeroMQDataSender()</text>
<text text-anchor="start" x="4.5" y="-21.5" font-family="Helvetica,sans-Serif" font-size="10.00">+</text>
<text text-anchor="start" x="17.5" y="-21.5" font-family="Helvetica,sans-Serif" font-size="10.00">~ZeroMQDataSender()</text>
<text text-anchor="start" x="4.5" y="-6.5" font-family="Helvetica,sans-Serif" font-size="10.00">+</text>
<text text-anchor="start" x="17.5" y="-6.5" font-family="Helvetica,sans-Serif" font-size="10.00">send()</text>
<polygon fill="#666666" stroke="#666666" points="0.5,-61.5 0.5,-61.5 133.5,-61.5 133.5,-61.5 0.5,-61.5"/>
<polygon fill="#666666" stroke="#666666" points="0.5,-46.5 0.5,-46.5 133.5,-46.5 133.5,-46.5 0.5,-46.5"/>
<polygon fill="none" stroke="#666666" points="0,0 0,-79 133,-79 133,0 0,0"/>
</a>
</g>
</g>
<!-- Node2 -->
<g id="Node000002" class="node">
<title>Node2</title>
<g id="a_Node000002"><a xlink:href="class_i_data_sender.html" target="_top" xlink:title="Abstraction representing a sink/egress for enriched track data.">
<polygon fill="white" stroke="transparent" points="115,-224 18,-224 18,-115 115,-115 115,-224"/>
<text text-anchor="start" x="36.5" y="-211.5" font-family="Helvetica,sans-Serif" font-size="10.00">IDataSender</text>
<text text-anchor="start" x="65" y="-196.5" font-family="Helvetica,sans-Serif" font-size="10.00"> </text>
<text text-anchor="start" x="22.5" y="-181.5" font-family="Helvetica,sans-Serif" font-size="10.00">+</text>
<text text-anchor="start" x="35.5" y="-181.5" font-family="Helvetica,sans-Serif" font-size="10.00">~IDataSender()</text>
<text text-anchor="start" x="22.5" y="-166.5" font-family="Helvetica,sans-Serif" font-size="10.00">+</text>
<text text-anchor="start" x="35.5" y="-166.5" font-family="Helvetica,sans-Serif" font-size="10.00">send()</text>
<text text-anchor="start" x="22.5" y="-151.5" font-family="Helvetica,sans-Serif" font-size="10.00">#</text>
<text text-anchor="start" x="35.5" y="-151.5" font-family="Helvetica,sans-Serif" font-size="10.00">IDataSender()</text>
<text text-anchor="start" x="22.5" y="-136.5" font-family="Helvetica,sans-Serif" font-size="10.00">#</text>
<text text-anchor="start" x="35.5" y="-136.5" font-family="Helvetica,sans-Serif" font-size="10.00">IDataSender()</text>
<text text-anchor="start" x="22.5" y="-121.5" font-family="Helvetica,sans-Serif" font-size="10.00">#</text>
<text text-anchor="start" x="35.5" y="-121.5" font-family="Helvetica,sans-Serif" font-size="10.00">operator=()</text>
<polygon fill="#666666" stroke="#666666" points="18.5,-206.5 18.5,-206.5 115.5,-206.5 115.5,-206.5 18.5,-206.5"/>
<polygon fill="#666666" stroke="#666666" points="18.5,-191.5 18.5,-191.5 115.5,-191.5 115.5,-191.5 18.5,-191.5"/>
<polygon fill="none" stroke="#666666" points="18,-115 18,-224 115,-224 115,-115 18,-115"/>
</a>
</g>
</g>
<!-- Node2&#45;&gt;Node1 -->
<g id="edge1_Node000001_Node000002" class="edge">
<title>Node2&#45;&gt;Node1</title>
<g id="a_edge1_Node000001_Node000002"><a xlink:title=" ">
<path fill="none" stroke="#63b8ff" d="M66.5,-104.7C66.5,-95.93 66.5,-87.16 66.5,-79.03"/>
<polygon fill="none" stroke="#63b8ff" points="63,-104.96 66.5,-114.96 70,-104.96 63,-104.96"/>
</a>
</g>
</g>
</g>
</svg>
