<?xml version="1.0" encoding="UTF-8" standalone="no"?>
<!DOCTYPE svg PUBLIC "-//W3C//DTD SVG 1.1//EN"
 "http://www.w3.org/Graphics/SVG/1.1/DTD/svg11.dtd">
<!-- Generated by graphviz version 2.43.0 (0)
 -->
<!-- Title: CalculatorService::start Pages: 1 -->
<svg width="314pt" height="172pt"
 viewBox="0.00 0.00 314.00 171.50" xmlns="http://www.w3.org/2000/svg" xmlns:xlink="http://www.w3.org/1999/xlink">
<g id="graph0" class="graph" transform="scale(1 1) rotate(0) translate(4 167.5)">
<title>CalculatorService::start</title>
<!-- Node1 -->
<g id="Node000001" class="node">
<title>Node1</title>
<g id="a_Node000001"><a xlink:title="Begin the processing loop (blocking call).">
<polygon fill="#999999" stroke="#666666" points="108,-91.5 0,-91.5 0,-61.5 108,-61.5 108,-91.5"/>
<text text-anchor="start" x="8" y="-79.5" font-family="Helvetica,sans-Serif" font-size="10.00">CalculatorService::</text>
<text text-anchor="middle" x="54" y="-68.5" font-family="Helvetica,sans-Serif" font-size="10.00">start</text>
</a>
</g>
</g>
<!-- Node2 -->
<g id="Node000002" class="node">
<title>Node2</title>
<g id="a_Node000002"><a xlink:href="class_track_calculations.html#a667256730f5193686d3114e5494cad4e" target="_top" xlink:title="Calculates first hop delay time in nanoseconds.">
<polygon fill="white" stroke="#666666" points="302.5,-163.5 147.5,-163.5 147.5,-133.5 302.5,-133.5 302.5,-163.5"/>
<text text-anchor="start" x="155.5" y="-151.5" font-family="Helvetica,sans-Serif" font-size="10.00">TrackCalculations::</text>
<text text-anchor="middle" x="225" y="-140.5" font-family="Helvetica,sans-Serif" font-size="10.00">calculateFirstHopDelayTime</text>
</a>
</g>
</g>
<!-- Node1&#45;&gt;Node2 -->
<g id="edge1_Node000001_Node000002" class="edge">
<title>Node1&#45;&gt;Node2</title>
<g id="a_edge1_Node000001_Node000002"><a xlink:title=" ">
<path fill="none" stroke="#63b8ff" d="M79.65,-91.56C97.16,-101.81 121.46,-115.15 144,-124.5 148.73,-126.46 153.69,-128.34 158.71,-130.12"/>
<polygon fill="#63b8ff" stroke="#63b8ff" points="157.81,-133.51 168.4,-133.42 160.06,-126.88 157.81,-133.51"/>
</a>
</g>
</g>
<!-- Node3 -->
<g id="Node000003" class="node">
<title>Node3</title>
<g id="a_Node000003"><a xlink:href="class_track_calculations.html#a9bba5b67b4497fb443b56c6e7dd6c45a" target="_top" xlink:title="Calculates second hop sent time as the current system time in nanoseconds.">
<polygon fill="white" stroke="#666666" points="306,-115.5 144,-115.5 144,-85.5 306,-85.5 306,-115.5"/>
<text text-anchor="start" x="152" y="-103.5" font-family="Helvetica,sans-Serif" font-size="10.00">TrackCalculations::</text>
<text text-anchor="middle" x="225" y="-92.5" font-family="Helvetica,sans-Serif" font-size="10.00">calculateSecondHopSentTime</text>
</a>
</g>
</g>
<!-- Node1&#45;&gt;Node3 -->
<g id="edge2_Node000001_Node000003" class="edge">
<title>Node1&#45;&gt;Node3</title>
<g id="a_edge2_Node000001_Node000003"><a xlink:title=" ">
<path fill="none" stroke="#63b8ff" d="M108.01,-84.03C116.31,-85.21 125.08,-86.45 133.93,-87.71"/>
<polygon fill="#63b8ff" stroke="#63b8ff" points="133.55,-91.19 143.94,-89.13 134.54,-84.26 133.55,-91.19"/>
</a>
</g>
</g>
<!-- Node4 -->
<g id="Node000004" class="node">
<title>Node4</title>
<g id="a_Node000004"><a xlink:href="class_delay_calculated_track_data.html#a2d3429b2f8abd54a70ea1731c860837d" target="_top" xlink:title="Validates if all required fields have reasonable values.">
<polygon fill="white" stroke="#666666" points="298,-67.5 152,-67.5 152,-37.5 298,-37.5 298,-67.5"/>
<text text-anchor="start" x="160" y="-55.5" font-family="Helvetica,sans-Serif" font-size="10.00">DelayCalculatedTrackData</text>
<text text-anchor="middle" x="225" y="-44.5" font-family="Helvetica,sans-Serif" font-size="10.00">::isValid</text>
</a>
</g>
</g>
<!-- Node1&#45;&gt;Node4 -->
<g id="edge3_Node000001_Node000004" class="edge">
<title>Node1&#45;&gt;Node4</title>
<g id="a_edge3_Node000001_Node000004"><a xlink:title=" ">
<path fill="none" stroke="#63b8ff" d="M108.01,-68.97C118.79,-67.44 130.37,-65.8 141.89,-64.16"/>
<polygon fill="#63b8ff" stroke="#63b8ff" points="142.57,-67.6 151.98,-62.73 141.58,-60.67 142.57,-67.6"/>
</a>
</g>
</g>
<!-- Node5 -->
<g id="Node000005" class="node">
<title>Node5</title>
<g id="a_Node000005"><a xlink:href="class_track_data.html#a33dc7e4638c14a6cedcde00bf2c6e074" target="_top" xlink:title="Validates if all required fields have reasonable values.">
<polygon fill="white" stroke="#666666" points="277,-19 173,-19 173,0 277,0 277,-19"/>
<text text-anchor="middle" x="225" y="-7" font-family="Helvetica,sans-Serif" font-size="10.00">TrackData::isValid</text>
</a>
</g>
</g>
<!-- Node1&#45;&gt;Node5 -->
<g id="edge4_Node000001_Node000005" class="edge">
<title>Node1&#45;&gt;Node5</title>
<g id="a_edge4_Node000001_Node000005"><a xlink:title=" ">
<path fill="none" stroke="#63b8ff" d="M78.74,-61.48C96.22,-50.98 120.87,-37.31 144,-28.5 150.7,-25.95 157.84,-23.67 165,-21.65"/>
<polygon fill="#63b8ff" stroke="#63b8ff" points="165.97,-25.01 174.73,-19.06 164.17,-18.25 165.97,-25.01"/>
</a>
</g>
</g>
</g>
</svg>
