<?xml version="1.0" encoding="UTF-8" standalone="no"?>
<!DOCTYPE svg PUBLIC "-//W3C//DTD SVG 1.1//EN"
 "http://www.w3.org/Graphics/SVG/1.1/DTD/svg11.dtd">
<!-- Generated by graphviz version 2.43.0 (0)
 -->
<!-- Title: Rectangle Pages: 1 -->
<svg width="86pt" height="247pt"
 viewBox="0.00 0.00 86.00 247.00" xmlns="http://www.w3.org/2000/svg" xmlns:xlink="http://www.w3.org/1999/xlink">
<g id="graph0" class="graph" transform="scale(1 1) rotate(0) translate(4 243)">
<title>Rectangle</title>
<!-- Node1 -->
<g id="Node000001" class="node">
<title>Node1</title>
<g id="a_Node000001"><a xlink:title="Concrete implementation of a rectangle shape.">
<polygon fill="#999999" stroke="transparent" points="78,-94 0,-94 0,0 78,0 78,-94"/>
<text text-anchor="start" x="14.5" y="-82" font-family="Helvetica,sans-Serif" font-size="10.00">Rectangle</text>
<text text-anchor="start" x="37" y="-67" font-family="Helvetica,sans-Serif" font-size="10.00"> </text>
<text text-anchor="start" x="4" y="-52" font-family="Helvetica,sans-Serif" font-size="10.00">+</text>
<text text-anchor="start" x="17" y="-52" font-family="Helvetica,sans-Serif" font-size="10.00">Rectangle()</text>
<text text-anchor="start" x="4" y="-37" font-family="Helvetica,sans-Serif" font-size="10.00">+</text>
<text text-anchor="start" x="17" y="-37" font-family="Helvetica,sans-Serif" font-size="10.00">draw()</text>
<text text-anchor="start" x="4" y="-22" font-family="Helvetica,sans-Serif" font-size="10.00">+</text>
<text text-anchor="start" x="17" y="-22" font-family="Helvetica,sans-Serif" font-size="10.00">area()</text>
<text text-anchor="start" x="4" y="-7" font-family="Helvetica,sans-Serif" font-size="10.00">+</text>
<text text-anchor="start" x="17" y="-7" font-family="Helvetica,sans-Serif" font-size="10.00">perimeter()</text>
<polygon fill="#666666" stroke="#666666" points="0,-77 0,-77 78,-77 78,-77 0,-77"/>
<polygon fill="#666666" stroke="#666666" points="0,-62 0,-62 78,-62 78,-62 0,-62"/>
<polygon fill="none" stroke="#666666" points="0,0 0,-94 78,-94 78,0 0,0"/>
</a>
</g>
</g>
<!-- Node2 -->
<g id="Node000002" class="node">
<title>Node2</title>
<g id="a_Node000002"><a xlink:href="class_shape.html" target="_top" xlink:title="Abstract base class representing a drawable shape.">
<polygon fill="white" stroke="transparent" points="77.5,-239 0.5,-239 0.5,-130 77.5,-130 77.5,-239"/>
<text text-anchor="start" x="24" y="-226.5" font-family="Helvetica,sans-Serif" font-size="10.00">Shape</text>
<text text-anchor="start" x="5" y="-211.5" font-family="Helvetica,sans-Serif" font-size="10.00">#</text>
<text text-anchor="start" x="18" y="-211.5" font-family="Helvetica,sans-Serif" font-size="10.00">name_</text>
<text text-anchor="start" x="5" y="-196.5" font-family="Helvetica,sans-Serif" font-size="10.00">+</text>
<text text-anchor="start" x="18" y="-196.5" font-family="Helvetica,sans-Serif" font-size="10.00">~Shape()</text>
<text text-anchor="start" x="5" y="-181.5" font-family="Helvetica,sans-Serif" font-size="10.00">+</text>
<text text-anchor="start" x="18" y="-181.5" font-family="Helvetica,sans-Serif" font-size="10.00">draw()</text>
<text text-anchor="start" x="5" y="-166.5" font-family="Helvetica,sans-Serif" font-size="10.00">+</text>
<text text-anchor="start" x="18" y="-166.5" font-family="Helvetica,sans-Serif" font-size="10.00">area()</text>
<text text-anchor="start" x="5" y="-151.5" font-family="Helvetica,sans-Serif" font-size="10.00">+</text>
<text text-anchor="start" x="18" y="-151.5" font-family="Helvetica,sans-Serif" font-size="10.00">perimeter()</text>
<text text-anchor="start" x="5" y="-136.5" font-family="Helvetica,sans-Serif" font-size="10.00">#</text>
<text text-anchor="start" x="18" y="-136.5" font-family="Helvetica,sans-Serif" font-size="10.00">Shape()</text>
<polygon fill="#666666" stroke="#666666" points="1,-221.5 1,-221.5 78,-221.5 78,-221.5 1,-221.5"/>
<polygon fill="#666666" stroke="#666666" points="1,-206.5 1,-206.5 16,-206.5 16,-206.5 1,-206.5"/>
<polygon fill="#666666" stroke="#666666" points="16,-206.5 16,-206.5 78,-206.5 78,-206.5 16,-206.5"/>
<polygon fill="none" stroke="#666666" points="0.5,-130 0.5,-239 77.5,-239 77.5,-130 0.5,-130"/>
</a>
</g>
</g>
<!-- Node2&#45;&gt;Node1 -->
<g id="edge1_Node000001_Node000002" class="edge">
<title>Node2&#45;&gt;Node1</title>
<g id="a_edge1_Node000001_Node000002"><a xlink:title=" ">
<path fill="none" stroke="#63b8ff" d="M39,-119.85C39,-111.19 39,-102.43 39,-94.16"/>
<polygon fill="none" stroke="#63b8ff" points="35.5,-119.95 39,-129.95 42.5,-119.95 35.5,-119.95"/>
</a>
</g>
</g>
</g>
</svg>
