<?xml version="1.0" encoding="UTF-8" standalone="no"?>
<!DOCTYPE svg PUBLIC "-//W3C//DTD SVG 1.1//EN"
 "http://www.w3.org/Graphics/SVG/1.1/DTD/svg11.dtd">
<!-- Generated by graphviz version 2.43.0 (0)
 -->
<!-- Title: ZeroMQDataReceiver Pages: 1 -->
<svg width="150pt" height="232pt"
 viewBox="0.00 0.00 150.00 232.00" xmlns="http://www.w3.org/2000/svg" xmlns:xlink="http://www.w3.org/1999/xlink">
<g id="graph0" class="graph" transform="scale(1 1) rotate(0) translate(4 228)">
<title>ZeroMQDataReceiver</title>
<!-- Node1 -->
<g id="Node000001" class="node">
<title>Node1</title>
<g id="a_Node000001"><a xlink:title="ZeroMQ SUB adapter for receiving TrackData published by a PUB socket (JSON format).">
<polygon fill="#999999" stroke="transparent" points="142,-79 0,-79 0,0 142,0 142,-79"/>
<text text-anchor="start" x="18" y="-66.5" font-family="Helvetica,sans-Serif" font-size="10.00">ZeroMQDataReceiver</text>
<text text-anchor="start" x="69" y="-51.5" font-family="Helvetica,sans-Serif" font-size="10.00"> </text>
<text text-anchor="start" x="4" y="-36.5" font-family="Helvetica,sans-Serif" font-size="10.00">+</text>
<text text-anchor="start" x="17" y="-36.5" font-family="Helvetica,sans-Serif" font-size="10.00">ZeroMQDataReceiver()</text>
<text text-anchor="start" x="4" y="-21.5" font-family="Helvetica,sans-Serif" font-size="10.00">+</text>
<text text-anchor="start" x="17" y="-21.5" font-family="Helvetica,sans-Serif" font-size="10.00">~ZeroMQDataReceiver()</text>
<text text-anchor="start" x="4" y="-6.5" font-family="Helvetica,sans-Serif" font-size="10.00">+</text>
<text text-anchor="start" x="17" y="-6.5" font-family="Helvetica,sans-Serif" font-size="10.00">receive()</text>
<polygon fill="#666666" stroke="#666666" points="0,-61.5 0,-61.5 142,-61.5 142,-61.5 0,-61.5"/>
<polygon fill="#666666" stroke="#666666" points="0,-46.5 0,-46.5 142,-46.5 142,-46.5 0,-46.5"/>
<polygon fill="none" stroke="#666666" points="0,0 0,-79 142,-79 142,0 0,0"/>
</a>
</g>
</g>
<!-- Node2 -->
<g id="Node000002" class="node">
<title>Node2</title>
<g id="a_Node000002"><a xlink:href="class_i_data_receiver.html" target="_top" xlink:title="Abstraction for receiving a single TrackData instance from an external source.">
<polygon fill="white" stroke="transparent" points="124,-224 18,-224 18,-115 124,-115 124,-224"/>
<text text-anchor="start" x="36" y="-211.5" font-family="Helvetica,sans-Serif" font-size="10.00">IDataReceiver</text>
<text text-anchor="start" x="69" y="-196.5" font-family="Helvetica,sans-Serif" font-size="10.00"> </text>
<text text-anchor="start" x="22" y="-181.5" font-family="Helvetica,sans-Serif" font-size="10.00">+</text>
<text text-anchor="start" x="35" y="-181.5" font-family="Helvetica,sans-Serif" font-size="10.00">~IDataReceiver()</text>
<text text-anchor="start" x="22" y="-166.5" font-family="Helvetica,sans-Serif" font-size="10.00">+</text>
<text text-anchor="start" x="35" y="-166.5" font-family="Helvetica,sans-Serif" font-size="10.00">receive()</text>
<text text-anchor="start" x="22" y="-151.5" font-family="Helvetica,sans-Serif" font-size="10.00">#</text>
<text text-anchor="start" x="35" y="-151.5" font-family="Helvetica,sans-Serif" font-size="10.00">IDataReceiver()</text>
<text text-anchor="start" x="22" y="-136.5" font-family="Helvetica,sans-Serif" font-size="10.00">#</text>
<text text-anchor="start" x="35" y="-136.5" font-family="Helvetica,sans-Serif" font-size="10.00">IDataReceiver()</text>
<text text-anchor="start" x="22" y="-121.5" font-family="Helvetica,sans-Serif" font-size="10.00">#</text>
<text text-anchor="start" x="35" y="-121.5" font-family="Helvetica,sans-Serif" font-size="10.00">operator=()</text>
<polygon fill="#666666" stroke="#666666" points="18,-206.5 18,-206.5 124,-206.5 124,-206.5 18,-206.5"/>
<polygon fill="#666666" stroke="#666666" points="18,-191.5 18,-191.5 124,-191.5 124,-191.5 18,-191.5"/>
<polygon fill="none" stroke="#666666" points="18,-115 18,-224 124,-224 124,-115 18,-115"/>
</a>
</g>
</g>
<!-- Node2&#45;&gt;Node1 -->
<g id="edge1_Node000001_Node000002" class="edge">
<title>Node2&#45;&gt;Node1</title>
<g id="a_edge1_Node000001_Node000002"><a xlink:title=" ">
<path fill="none" stroke="#63b8ff" d="M71,-104.7C71,-95.93 71,-87.16 71,-79.03"/>
<polygon fill="none" stroke="#63b8ff" points="67.5,-104.96 71,-114.96 74.5,-104.96 67.5,-104.96"/>
</a>
</g>
</g>
</g>
</svg>
