<?xml version="1.0" encoding="UTF-8" standalone="no"?>
<!DOCTYPE svg PUBLIC "-//W3C//DTD SVG 1.1//EN"
 "http://www.w3.org/Graphics/SVG/1.1/DTD/svg11.dtd">
<!-- Generated by graphviz version 2.43.0 (0)
 -->
<!-- Title: Shape Pages: 1 -->
<svg width="182pt" height="262pt"
 viewBox="0.00 0.00 182.00 262.00" xmlns="http://www.w3.org/2000/svg" xmlns:xlink="http://www.w3.org/1999/xlink">

<svg id="main" version="1.1" xmlns="http://www.w3.org/2000/svg" xmlns:xlink="http://www.w3.org/1999/xlink" xml:space="preserve" onload="init(evt)">
<style type="text/css"><![CDATA[
.node, .edge {opacity: 0.7;}
.node.selected, .edge.selected {opacity: 1;}
.edge:hover path { stroke: red; }
.edge:hover polygon { stroke: red; fill: red; }
]]></style>
<script type="application/ecmascript" xlink:href="svg.min.js"/>
<svg id="graph" class="graph">
<g id="graph0" class="graph" transform="scale(1 1) rotate(0) translate(4 258)">
<title>Shape</title>
<!-- Node1 -->
<g id="Node000001" class="node">
<title>Node1</title>
<g id="a_Node000001"><a xlink:title="Abstract base class representing a drawable shape.">
<polygon fill="#999999" stroke="transparent" points="125.5,-254 48.5,-254 48.5,-145 125.5,-145 125.5,-254"/>
<text text-anchor="start" x="72" y="-241.5" font-family="Helvetica,sans-Serif" font-size="10.00">Shape</text>
<text text-anchor="start" x="53" y="-226.5" font-family="Helvetica,sans-Serif" font-size="10.00">#</text>
<text text-anchor="start" x="66" y="-226.5" font-family="Helvetica,sans-Serif" font-size="10.00">name_</text>
<text text-anchor="start" x="53" y="-211.5" font-family="Helvetica,sans-Serif" font-size="10.00">+</text>
<text text-anchor="start" x="66" y="-211.5" font-family="Helvetica,sans-Serif" font-size="10.00">~Shape()</text>
<text text-anchor="start" x="53" y="-196.5" font-family="Helvetica,sans-Serif" font-size="10.00">+</text>
<text text-anchor="start" x="66" y="-196.5" font-family="Helvetica,sans-Serif" font-size="10.00">draw()</text>
<text text-anchor="start" x="53" y="-181.5" font-family="Helvetica,sans-Serif" font-size="10.00">+</text>
<text text-anchor="start" x="66" y="-181.5" font-family="Helvetica,sans-Serif" font-size="10.00">area()</text>
<text text-anchor="start" x="53" y="-166.5" font-family="Helvetica,sans-Serif" font-size="10.00">+</text>
<text text-anchor="start" x="66" y="-166.5" font-family="Helvetica,sans-Serif" font-size="10.00">perimeter()</text>
<text text-anchor="start" x="53" y="-151.5" font-family="Helvetica,sans-Serif" font-size="10.00">#</text>
<text text-anchor="start" x="66" y="-151.5" font-family="Helvetica,sans-Serif" font-size="10.00">Shape()</text>
<polygon fill="#666666" stroke="#666666" points="49,-236.5 49,-236.5 126,-236.5 126,-236.5 49,-236.5"/>
<polygon fill="#666666" stroke="#666666" points="49,-221.5 49,-221.5 64,-221.5 64,-221.5 49,-221.5"/>
<polygon fill="#666666" stroke="#666666" points="64,-221.5 64,-221.5 126,-221.5 126,-221.5 64,-221.5"/>
<polygon fill="none" stroke="#666666" points="48.5,-145 48.5,-254 125.5,-254 125.5,-145 48.5,-145"/>
</a>
</g>
</g>
<!-- Node2 -->
<g id="Node000002" class="node">
<title>Node2</title>
<g id="a_Node000002"><a xlink:href="class_circle.html" target="_top" xlink:title="Concrete implementation of a circle shape.">
<polygon fill="white" stroke="transparent" points="78,-109 0,-109 0,0 78,0 78,-109"/>
<text text-anchor="start" x="25" y="-96.5" font-family="Helvetica,sans-Serif" font-size="10.00">Circle</text>
<text text-anchor="start" x="37" y="-81.5" font-family="Helvetica,sans-Serif" font-size="10.00"> </text>
<text text-anchor="start" x="4" y="-66.5" font-family="Helvetica,sans-Serif" font-size="10.00">+</text>
<text text-anchor="start" x="17" y="-66.5" font-family="Helvetica,sans-Serif" font-size="10.00">Circle()</text>
<text text-anchor="start" x="4" y="-51.5" font-family="Helvetica,sans-Serif" font-size="10.00">+</text>
<text text-anchor="start" x="17" y="-51.5" font-family="Helvetica,sans-Serif" font-size="10.00">draw()</text>
<text text-anchor="start" x="4" y="-36.5" font-family="Helvetica,sans-Serif" font-size="10.00">+</text>
<text text-anchor="start" x="17" y="-36.5" font-family="Helvetica,sans-Serif" font-size="10.00">area()</text>
<text text-anchor="start" x="4" y="-21.5" font-family="Helvetica,sans-Serif" font-size="10.00">+</text>
<text text-anchor="start" x="17" y="-21.5" font-family="Helvetica,sans-Serif" font-size="10.00">perimeter()</text>
<text text-anchor="start" x="4" y="-6.5" font-family="Helvetica,sans-Serif" font-size="10.00">+</text>
<text text-anchor="start" x="17" y="-6.5" font-family="Helvetica,sans-Serif" font-size="10.00">getRadius()</text>
<polygon fill="#666666" stroke="#666666" points="0,-91.5 0,-91.5 78,-91.5 78,-91.5 0,-91.5"/>
<polygon fill="#666666" stroke="#666666" points="0,-76.5 0,-76.5 78,-76.5 78,-76.5 0,-76.5"/>
<polygon fill="none" stroke="#666666" points="0,0 0,-109 78,-109 78,0 0,0"/>
</a>
</g>
</g>
<!-- Node1&#45;&gt;Node2 -->
<g id="edge1_Node000001_Node000002" class="edge">
<title>Node1&#45;&gt;Node2</title>
<g id="a_edge1_Node000001_Node000002"><a xlink:title=" ">
<path fill="none" stroke="#63b8ff" d="M65.76,-135.23C62.88,-126.63 59.94,-117.87 57.11,-109.46"/>
<polygon fill="none" stroke="#63b8ff" points="62.49,-136.48 68.99,-144.85 69.13,-134.25 62.49,-136.48"/>
</a>
</g>
</g>
<!-- Node3 -->
<g id="Node000003" class="node">
<title>Node3</title>
<g id="a_Node000003"><a xlink:href="class_rectangle.html" target="_top" xlink:title="Concrete implementation of a rectangle shape.">
<polygon fill="white" stroke="transparent" points="174,-101.5 96,-101.5 96,-7.5 174,-7.5 174,-101.5"/>
<text text-anchor="start" x="110.5" y="-89.5" font-family="Helvetica,sans-Serif" font-size="10.00">Rectangle</text>
<text text-anchor="start" x="133" y="-74.5" font-family="Helvetica,sans-Serif" font-size="10.00"> </text>
<text text-anchor="start" x="100" y="-59.5" font-family="Helvetica,sans-Serif" font-size="10.00">+</text>
<text text-anchor="start" x="113" y="-59.5" font-family="Helvetica,sans-Serif" font-size="10.00">Rectangle()</text>
<text text-anchor="start" x="100" y="-44.5" font-family="Helvetica,sans-Serif" font-size="10.00">+</text>
<text text-anchor="start" x="113" y="-44.5" font-family="Helvetica,sans-Serif" font-size="10.00">draw()</text>
<text text-anchor="start" x="100" y="-29.5" font-family="Helvetica,sans-Serif" font-size="10.00">+</text>
<text text-anchor="start" x="113" y="-29.5" font-family="Helvetica,sans-Serif" font-size="10.00">area()</text>
<text text-anchor="start" x="100" y="-14.5" font-family="Helvetica,sans-Serif" font-size="10.00">+</text>
<text text-anchor="start" x="113" y="-14.5" font-family="Helvetica,sans-Serif" font-size="10.00">perimeter()</text>
<polygon fill="#666666" stroke="#666666" points="96,-84.5 96,-84.5 174,-84.5 174,-84.5 96,-84.5"/>
<polygon fill="#666666" stroke="#666666" points="96,-69.5 96,-69.5 174,-69.5 174,-69.5 96,-69.5"/>
<polygon fill="none" stroke="#666666" points="96,-7.5 96,-101.5 174,-101.5 174,-7.5 96,-7.5"/>
</a>
</g>
</g>
<!-- Node1&#45;&gt;Node3 -->
<g id="edge2_Node000001_Node000003" class="edge">
<title>Node1&#45;&gt;Node3</title>
<g id="a_edge2_Node000001_Node000003"><a xlink:title=" ">
<path fill="none" stroke="#63b8ff" d="M108.27,-135.13C112.02,-123.97 115.85,-112.54 119.41,-101.95"/>
<polygon fill="none" stroke="#63b8ff" points="104.87,-134.25 105.01,-144.85 111.51,-136.48 104.87,-134.25"/>
</a>
</g>
</g>
</g>
</svg>
</svg>

<style type='text/css'>
<![CDATA[
[data-mouse-over-selected='false'] { opacity: 0.7; }
[data-mouse-over-selected='true']  { opacity: 1.0; }
]]>
</style>
<script type="application/ecmascript"><![CDATA[
document.addEventListener('DOMContentLoaded', (event) => {
  highlightEdges();
  highlightAdjacentNodes();
});
]]></script>
</svg>
