<?xml version="1.0" encoding="UTF-8" standalone="no"?>
<!DOCTYPE svg PUBLIC "-//W3C//DTD SVG 1.1//EN"
 "http://www.w3.org/Graphics/SVG/1.1/DTD/svg11.dtd">
<!-- Generated by graphviz version 2.43.0 (0)
 -->
<!-- Title: ShapeFactory::createRandomShape Pages: 1 -->
<svg width="369pt" height="64pt"
 viewBox="0.00 0.00 369.00 64.00" xmlns="http://www.w3.org/2000/svg" xmlns:xlink="http://www.w3.org/1999/xlink">
<g id="graph0" class="graph" transform="scale(1 1) rotate(0) translate(4 60)">
<title>ShapeFactory::createRandomShape</title>
<!-- Node1 -->
<g id="Node000001" class="node">
<title>Node1</title>
<g id="a_Node000001"><a xlink:title="Create a random shape for testing purposes.">
<polygon fill="#999999" stroke="#666666" points="158,-42.5 0,-42.5 0,-12.5 158,-12.5 158,-42.5"/>
<text text-anchor="start" x="8" y="-30.5" font-family="Helvetica,sans-Serif" font-size="10.00">ShapeFactory::createRandom</text>
<text text-anchor="middle" x="79" y="-19.5" font-family="Helvetica,sans-Serif" font-size="10.00">Shape</text>
</a>
</g>
</g>
<!-- Node2 -->
<g id="Node000002" class="node">
<title>Node2</title>
<g id="a_Node000002"><a xlink:href="class_shape_factory.html#a3bea74bc905be9e8be1ca0836bb4baf3" target="_top" xlink:title="Create a circle with specified radius.">
<polygon fill="white" stroke="#666666" points="350.5,-56 204.5,-56 204.5,-37 350.5,-37 350.5,-56"/>
<text text-anchor="middle" x="277.5" y="-44" font-family="Helvetica,sans-Serif" font-size="10.00">ShapeFactory::createCircle</text>
</a>
</g>
</g>
<!-- Node1&#45;&gt;Node2 -->
<g id="edge1_Node000001_Node000002" class="edge">
<title>Node1&#45;&gt;Node2</title>
<g id="a_edge1_Node000001_Node000002"><a xlink:title=" ">
<path fill="none" stroke="#63b8ff" d="M158.23,-35.06C169.98,-36.2 182.13,-37.38 193.98,-38.52"/>
<polygon fill="#63b8ff" stroke="#63b8ff" points="193.99,-42.04 204.28,-39.52 194.67,-35.07 193.99,-42.04"/>
</a>
</g>
</g>
<!-- Node3 -->
<g id="Node000003" class="node">
<title>Node3</title>
<g id="a_Node000003"><a xlink:href="class_shape_factory.html#a1e70ea3e43d77528aba913db69cf2350" target="_top" xlink:title="Create a rectangle with specified dimensions.">
<polygon fill="white" stroke="#666666" points="361,-19 194,-19 194,0 361,0 361,-19"/>
<text text-anchor="middle" x="277.5" y="-7" font-family="Helvetica,sans-Serif" font-size="10.00">ShapeFactory::createRectangle</text>
</a>
</g>
</g>
<!-- Node1&#45;&gt;Node3 -->
<g id="edge2_Node000001_Node000003" class="edge">
<title>Node1&#45;&gt;Node3</title>
<g id="a_edge2_Node000001_Node000003"><a xlink:title=" ">
<path fill="none" stroke="#63b8ff" d="M158.23,-20.33C166.61,-19.57 175.2,-18.78 183.73,-18"/>
<polygon fill="#63b8ff" stroke="#63b8ff" points="184.07,-21.48 193.71,-17.08 183.43,-14.51 184.07,-21.48"/>
</a>
</g>
</g>
</g>
</svg>
