<?xml version="1.0" encoding="UTF-8" standalone="no"?>
<!DOCTYPE svg PUBLIC "-//W3C//DTD SVG 1.1//EN"
 "http://www.w3.org/Graphics/SVG/1.1/DTD/svg11.dtd">
<!-- Generated by graphviz version 2.43.0 (0)
 -->
<!-- Title: ShapeFactory::createCircle Pages: 1 -->
<svg width="425pt" height="55pt"
 viewBox="0.00 0.00 425.00 54.50" xmlns="http://www.w3.org/2000/svg" xmlns:xlink="http://www.w3.org/1999/xlink">

<svg id="main" version="1.1" xmlns="http://www.w3.org/2000/svg" xmlns:xlink="http://www.w3.org/1999/xlink" xml:space="preserve" onload="init(evt)">
<style type="text/css"><![CDATA[
.node, .edge {opacity: 0.7;}
.node.selected, .edge.selected {opacity: 1;}
.edge:hover path { stroke: red; }
.edge:hover polygon { stroke: red; fill: red; }
]]></style>
<script type="application/ecmascript" xlink:href="svg.min.js"/>
<svg id="graph" class="graph">
<g id="graph0" class="graph" transform="scale(1 1) rotate(0) translate(4 50.5)">
<title>ShapeFactory::createCircle</title>
<!-- Node1 -->
<g id="Node000001" class="node">
<title>Node1</title>
<g id="a_Node000001"><a xlink:title="Create a circle with specified radius.">
<polygon fill="#999999" stroke="#666666" points="417,-19 271,-19 271,0 417,0 417,-19"/>
<text text-anchor="middle" x="344" y="-7" font-family="Helvetica,sans-Serif" font-size="10.00">ShapeFactory::createCircle</text>
</a>
</g>
</g>
<!-- Node2 -->
<g id="Node000002" class="node">
<title>Node2</title>
<g id="a_Node000002"><a xlink:href="class_shape_factory.html#a301f0b3cede6fcc3573d82ccba3364ac" target="_top" xlink:title="Create a random shape for testing purposes.">
<polygon fill="white" stroke="#666666" points="235,-46.5 77,-46.5 77,-16.5 235,-16.5 235,-46.5"/>
<text text-anchor="start" x="85" y="-34.5" font-family="Helvetica,sans-Serif" font-size="10.00">ShapeFactory::createRandom</text>
<text text-anchor="middle" x="156" y="-23.5" font-family="Helvetica,sans-Serif" font-size="10.00">Shape</text>
</a>
</g>
</g>
<!-- Node1&#45;&gt;Node2 -->
<g id="edge1_Node000001_Node000002" class="edge">
<title>Node1&#45;&gt;Node2</title>
<g id="a_edge1_Node000001_Node000002"><a xlink:title=" ">
<path fill="none" stroke="#63b8ff" d="M260.63,-19.24C252.21,-20.24 243.68,-21.25 235.3,-22.24"/>
<polygon fill="#63b8ff" stroke="#63b8ff" points="261.3,-22.69 270.82,-18.04 260.48,-15.74 261.3,-22.69"/>
</a>
</g>
</g>
<!-- Node3 -->
<g id="Node000003" class="node">
<title>Node3</title>
<g id="a_Node000003"><a xlink:href="example__documented__code_8cpp.html#ae66f6b31b5ad750f1fe042a706a4e3d4" target="_top" xlink:title="Main function demonstrating the shape system.">
<polygon fill="white" stroke="#666666" points="41,-19 0,-19 0,0 41,0 41,-19"/>
<text text-anchor="middle" x="20.5" y="-7" font-family="Helvetica,sans-Serif" font-size="10.00">main</text>
</a>
</g>
</g>
<!-- Node1&#45;&gt;Node3 -->
<g id="edge3_Node000001_Node000003" class="edge">
<title>Node1&#45;&gt;Node3</title>
<g id="a_edge3_Node000001_Node000003"><a xlink:title=" ">
<path fill="none" stroke="#63b8ff" d="M260.47,-7.79C207.94,-6.98 138.47,-6.39 77,-7.5 65.05,-7.72 51.65,-8.19 41.02,-8.62"/>
<polygon fill="#63b8ff" stroke="#63b8ff" points="260.68,-11.3 270.74,-7.96 260.8,-4.3 260.68,-11.3"/>
</a>
</g>
</g>
<!-- Node2&#45;&gt;Node3 -->
<g id="edge2_Node000002_Node000003" class="edge">
<title>Node2&#45;&gt;Node3</title>
<g id="a_edge2_Node000002_Node000003"><a xlink:title=" ">
<path fill="none" stroke="#63b8ff" d="M66.88,-16.98C57.39,-15.41 48.55,-13.96 41.24,-12.75"/>
<polygon fill="#63b8ff" stroke="#63b8ff" points="66.52,-20.47 76.96,-18.64 67.66,-13.56 66.52,-20.47"/>
</a>
</g>
</g>
</g>
</svg>
</svg>

<style type='text/css'>
<![CDATA[
[data-mouse-over-selected='false'] { opacity: 0.7; }
[data-mouse-over-selected='true']  { opacity: 1.0; }
]]>
</style>
<script type="application/ecmascript"><![CDATA[
document.addEventListener('DOMContentLoaded', (event) => {
  highlightEdges();
  highlightAdjacentNodes();
});
]]></script>
</svg>
