<?xml version="1.0" encoding="UTF-8" standalone="no"?>
<!DOCTYPE svg PUBLIC "-//W3C//DTD SVG 1.1//EN"
 "http://www.w3.org/Graphics/SVG/1.1/DTD/svg11.dtd">
<!-- Generated by graphviz version 2.43.0 (0)
 -->
<!-- Title: src/domain/logic/CalculatorService.cpp Pages: 1 -->
<svg width="584pt" height="225pt"
 viewBox="0.00 0.00 584.42 225.00" xmlns="http://www.w3.org/2000/svg" xmlns:xlink="http://www.w3.org/1999/xlink">
<g id="graph0" class="graph" transform="scale(1 1) rotate(0) translate(4 221)">
<title>src/domain/logic/CalculatorService.cpp</title>
<!-- Node1 -->
<g id="Node000001" class="node">
<title>Node1</title>
<g id="a_Node000001"><a xlink:title=" ">
<polygon fill="#999999" stroke="#666666" points="462.92,-217 313.92,-217 313.92,-187 462.92,-187 462.92,-217"/>
<text text-anchor="start" x="321.92" y="-205" font-family="Helvetica,sans-Serif" font-size="10.00">src/domain/logic/Calculator</text>
<text text-anchor="middle" x="388.42" y="-194" font-family="Helvetica,sans-Serif" font-size="10.00">Service.cpp</text>
</a>
</g>
</g>
<!-- Node2 -->
<g id="Node000002" class="node">
<title>Node2</title>
<g id="a_Node000002"><a xlink:href="domain_2logic_2_calculator_service_8hpp.html" target="_top" xlink:title="Declares the application service coordinating domain calculations and I/O.">
<polygon fill="white" stroke="#666666" points="214.92,-151 25.92,-151 25.92,-132 214.92,-132 214.92,-151"/>
<text text-anchor="middle" x="120.42" y="-139" font-family="Helvetica,sans-Serif" font-size="10.00">domain/logic/CalculatorService.hpp</text>
</a>
</g>
</g>
<!-- Node1&#45;&gt;Node2 -->
<g id="edge1_Node000001_Node000002" class="edge">
<title>Node1&#45;&gt;Node2</title>
<g id="a_edge1_Node000001_Node000002"><a xlink:title=" ">
<path fill="none" stroke="#63b8ff" d="M324.23,-186.99C276.67,-176.61 212.85,-162.68 169.38,-153.19"/>
<polygon fill="#63b8ff" stroke="#63b8ff" points="170.12,-149.77 159.6,-151.05 168.63,-156.61 170.12,-149.77"/>
</a>
</g>
</g>
<!-- Node4 -->
<g id="Node000004" class="node">
<title>Node4</title>
<g id="a_Node000004"><a xlink:href="_track_data_8hpp.html" target="_top" xlink:title=" ">
<polygon fill="white" stroke="#666666" points="170.42,-24.5 10.42,-24.5 10.42,-5.5 170.42,-5.5 170.42,-24.5"/>
<text text-anchor="middle" x="90.42" y="-12.5" font-family="Helvetica,sans-Serif" font-size="10.00">domain/model/TrackData.hpp</text>
</a>
</g>
</g>
<!-- Node1&#45;&gt;Node4 -->
<g id="edge6_Node000001_Node000004" class="edge">
<title>Node1&#45;&gt;Node4</title>
<g id="a_edge6_Node000001_Node000004"><a xlink:title=" ">
<path fill="none" stroke="#63b8ff" d="M313.77,-196.17C210.82,-188.74 35.67,-173.01 16.42,-151 -8.45,-122.56 -1.3,-99.36 16.42,-66 25.27,-49.33 42.44,-37.21 58.01,-29.08"/>
<polygon fill="#63b8ff" stroke="#63b8ff" points="59.94,-32.04 67.41,-24.53 56.89,-25.73 59.94,-32.04"/>
</a>
</g>
</g>
<!-- Node6 -->
<g id="Node000006" class="node">
<title>Node6</title>
<g id="a_Node000006"><a xlink:href="_delay_calculated_track_data_8hpp.html" target="_top" xlink:title=" ">
<polygon fill="white" stroke="#666666" points="465.42,-30 295.42,-30 295.42,0 465.42,0 465.42,-30"/>
<text text-anchor="start" x="303.42" y="-18" font-family="Helvetica,sans-Serif" font-size="10.00">domain/model/DelayCalculated</text>
<text text-anchor="middle" x="380.42" y="-7" font-family="Helvetica,sans-Serif" font-size="10.00">TrackData.hpp</text>
</a>
</g>
</g>
<!-- Node1&#45;&gt;Node6 -->
<g id="edge7_Node000001_Node000006" class="edge">
<title>Node1&#45;&gt;Node6</title>
<g id="a_edge7_Node000001_Node000006"><a xlink:title=" ">
<path fill="none" stroke="#63b8ff" d="M413,-186.99C425.51,-178.38 439.5,-166.11 446.42,-151 449.94,-143.32 446.67,-140.44 446.42,-132 445.53,-102.63 455.89,-92.12 442.42,-66 436.22,-53.98 425.7,-43.84 415.07,-35.9"/>
<polygon fill="#63b8ff" stroke="#63b8ff" points="416.81,-32.85 406.6,-30.02 412.81,-38.6 416.81,-32.85"/>
</a>
</g>
</g>
<!-- Node7 -->
<g id="Node000007" class="node">
<title>Node7</title>
<g id="a_Node000007"><a xlink:href="_track_calculations_8hpp.html" target="_top" xlink:title=" ">
<polygon fill="white" stroke="#666666" points="421.92,-151 232.92,-151 232.92,-132 421.92,-132 421.92,-151"/>
<text text-anchor="middle" x="327.42" y="-139" font-family="Helvetica,sans-Serif" font-size="10.00">domain/logic/TrackCalculations.hpp</text>
</a>
</g>
</g>
<!-- Node1&#45;&gt;Node7 -->
<g id="edge8_Node000001_Node000007" class="edge">
<title>Node1&#45;&gt;Node7</title>
<g id="a_edge8_Node000001_Node000007"><a xlink:title=" ">
<path fill="none" stroke="#63b8ff" d="M373.65,-186.84C364.71,-178.26 353.28,-167.3 344.02,-158.42"/>
<polygon fill="#63b8ff" stroke="#63b8ff" points="346.2,-155.66 336.56,-151.27 341.35,-160.71 346.2,-155.66"/>
</a>
</g>
</g>
<!-- Node8 -->
<g id="Node000008" class="node">
<title>Node8</title>
<g id="a_Node000008"><a xlink:title=" ">
<polygon fill="#e0e0e0" stroke="#999999" points="433.42,-90.5 383.42,-90.5 383.42,-71.5 433.42,-71.5 433.42,-90.5"/>
<text text-anchor="middle" x="408.42" y="-78.5" font-family="Helvetica,sans-Serif" font-size="10.00">chrono</text>
</a>
</g>
</g>
<!-- Node1&#45;&gt;Node8 -->
<g id="edge12_Node000001_Node000008" class="edge">
<title>Node1&#45;&gt;Node8</title>
<g id="a_edge12_Node000001_Node000008"><a xlink:title=" ">
<path fill="none" stroke="#63b8ff" d="M405.65,-186.73C415.24,-177.63 426.24,-164.96 431.42,-151 437.91,-133.49 429.23,-113.19 420.74,-99.16"/>
<polygon fill="#63b8ff" stroke="#63b8ff" points="423.5,-96.99 415.08,-90.56 417.65,-100.84 423.5,-96.99"/>
</a>
</g>
</g>
<!-- Node9 -->
<g id="Node000009" class="node">
<title>Node9</title>
<g id="a_Node000009"><a xlink:title=" ">
<polygon fill="#e0e0e0" stroke="#999999" points="576.42,-151 516.42,-151 516.42,-132 576.42,-132 576.42,-151"/>
<text text-anchor="middle" x="546.42" y="-139" font-family="Helvetica,sans-Serif" font-size="10.00">iostream</text>
</a>
</g>
</g>
<!-- Node1&#45;&gt;Node9 -->
<g id="edge11_Node000001_Node000009" class="edge">
<title>Node1&#45;&gt;Node9</title>
<g id="a_edge11_Node000001_Node000009"><a xlink:title=" ">
<path fill="none" stroke="#63b8ff" d="M426.26,-186.99C452.86,-177.14 488.09,-164.1 513.52,-154.68"/>
<polygon fill="#63b8ff" stroke="#63b8ff" points="514.92,-157.89 523.09,-151.14 512.49,-151.33 514.92,-157.89"/>
</a>
</g>
</g>
<!-- Node3 -->
<g id="Node000003" class="node">
<title>Node3</title>
<g id="a_Node000003"><a xlink:href="_i_data_receiver_8hpp.html" target="_top" xlink:title="Declares the incoming port abstraction for acquiring raw domain input (TrackData).">
<polygon fill="white" stroke="#666666" points="154.92,-96 25.92,-96 25.92,-66 154.92,-66 154.92,-96"/>
<text text-anchor="start" x="33.92" y="-84" font-family="Helvetica,sans-Serif" font-size="10.00">domain/ports/incoming</text>
<text text-anchor="middle" x="90.42" y="-73" font-family="Helvetica,sans-Serif" font-size="10.00">/IDataReceiver.hpp</text>
</a>
</g>
</g>
<!-- Node2&#45;&gt;Node3 -->
<g id="edge2_Node000002_Node000003" class="edge">
<title>Node2&#45;&gt;Node3</title>
<g id="a_edge2_Node000002_Node000003"><a xlink:title=" ">
<path fill="none" stroke="#63b8ff" d="M115.99,-131.87C112.37,-124.81 107.09,-114.5 102.26,-105.08"/>
<polygon fill="#63b8ff" stroke="#63b8ff" points="105.33,-103.42 97.66,-96.11 99.11,-106.61 105.33,-103.42"/>
</a>
</g>
</g>
<!-- Node5 -->
<g id="Node000005" class="node">
<title>Node5</title>
<g id="a_Node000005"><a xlink:href="_i_data_sender_8hpp.html" target="_top" xlink:title="Declares the outgoing port abstraction for emitting processed DelayCalculatedTrackData.">
<polygon fill="white" stroke="#666666" points="299.92,-96 172.92,-96 172.92,-66 299.92,-66 299.92,-96"/>
<text text-anchor="start" x="180.92" y="-84" font-family="Helvetica,sans-Serif" font-size="10.00">domain/ports/outgoing</text>
<text text-anchor="middle" x="236.42" y="-73" font-family="Helvetica,sans-Serif" font-size="10.00">/IDataSender.hpp</text>
</a>
</g>
</g>
<!-- Node2&#45;&gt;Node5 -->
<g id="edge4_Node000002_Node000005" class="edge">
<title>Node2&#45;&gt;Node5</title>
<g id="a_edge4_Node000002_Node000005"><a xlink:title=" ">
<path fill="none" stroke="#63b8ff" d="M137.54,-131.87C153.71,-123.71 178.52,-111.2 199.24,-100.75"/>
<polygon fill="#63b8ff" stroke="#63b8ff" points="201.08,-103.74 208.43,-96.11 197.93,-97.49 201.08,-103.74"/>
</a>
</g>
</g>
<!-- Node3&#45;&gt;Node4 -->
<g id="edge3_Node000003_Node000004" class="edge">
<title>Node3&#45;&gt;Node4</title>
<g id="a_edge3_Node000003_Node000004"><a xlink:title=" ">
<path fill="none" stroke="#63b8ff" d="M90.42,-65.8C90.42,-56.7 90.42,-44.79 90.42,-34.9"/>
<polygon fill="#63b8ff" stroke="#63b8ff" points="93.92,-34.84 90.42,-24.84 86.92,-34.84 93.92,-34.84"/>
</a>
</g>
</g>
<!-- Node5&#45;&gt;Node6 -->
<g id="edge5_Node000005_Node000006" class="edge">
<title>Node5&#45;&gt;Node6</title>
<g id="a_edge5_Node000005_Node000006"><a xlink:title=" ">
<path fill="none" stroke="#63b8ff" d="M268.02,-65.95C289.03,-56.62 316.82,-44.27 339.51,-34.18"/>
<polygon fill="#63b8ff" stroke="#63b8ff" points="341.17,-37.27 348.89,-30.01 338.33,-30.88 341.17,-37.27"/>
</a>
</g>
</g>
<!-- Node7&#45;&gt;Node4 -->
<g id="edge9_Node000007_Node000004" class="edge">
<title>Node7&#45;&gt;Node4</title>
<g id="a_edge9_Node000007_Node000004"><a xlink:title=" ">
<path fill="none" stroke="#63b8ff" d="M328.03,-131.74C328.61,-116.2 327.41,-83.76 309.42,-66 290.26,-47.08 228.04,-34.02 174.79,-26.01"/>
<polygon fill="#63b8ff" stroke="#63b8ff" points="175.03,-22.5 164.62,-24.52 174.01,-29.43 175.03,-22.5"/>
</a>
</g>
</g>
<!-- Node7&#45;&gt;Node8 -->
<g id="edge10_Node000007_Node000008" class="edge">
<title>Node7&#45;&gt;Node8</title>
<g id="a_edge10_Node000007_Node000008"><a xlink:title=" ">
<path fill="none" stroke="#63b8ff" d="M339.37,-131.87C352.17,-122.62 372.72,-107.78 388.07,-96.69"/>
<polygon fill="#63b8ff" stroke="#63b8ff" points="390.36,-99.36 396.42,-90.67 386.26,-93.68 390.36,-99.36"/>
</a>
</g>
</g>
</g>
</svg>
