<?xml version="1.0" encoding="UTF-8" standalone="no"?>
<!DOCTYPE svg PUBLIC "-//W3C//DTD SVG 1.1//EN"
 "http://www.w3.org/Graphics/SVG/1.1/DTD/svg11.dtd">
<!-- Generated by graphviz version 2.43.0 (0)
 -->
<!-- Title: G Pages: 1 -->
<!--zoomable 354 -->

<svg id="main" version="1.1" xmlns="http://www.w3.org/2000/svg" xmlns:xlink="http://www.w3.org/1999/xlink" xml:space="preserve" onload="init(evt)">
<style type="text/css"><![CDATA[
.node, .edge {opacity: 0.7;}
.node.selected, .edge.selected {opacity: 1;}
.edge:hover path { stroke: red; }
.edge:hover polygon { stroke: red; fill: red; }
]]></style>

<defs>
  <circle id="rim" cx="0" cy="0" r="7"/>
  <circle id="rim2" cx="0" cy="0" r="3.5"/>
  <g id="zoomPlus">
    <use xlink:href="#rim" fill="#404040"><set attributeName="fill" to="#808080" begin="zoomplus.mouseover" end="zoomplus.mouseout"/></use>
    <path d="M-4,0h8M0,-4v8" fill="none" stroke="white" stroke-width="1.5" pointer-events="none"/>
  </g>
  <g id="zoomMin">
    <use xlink:href="#rim" fill="#404040"><set attributeName="fill" to="#808080" begin="zoomminus.mouseover" end="zoomminus.mouseout"/></use>
    <path d="M-4,0h8" fill="none" stroke="white" stroke-width="1.5" pointer-events="none"/>
  </g>
  <g id="arrowUp" transform="translate(30 24)">
    <use xlink:href="#rim"/>
    <path pointer-events="none" fill="none" stroke="white" stroke-width="1.5" d="M0,-3.0v7 M-2.5,-0.5L0,-3.0L2.5,-0.5"/>
  </g>
  <g id="arrowRight" transform="rotate(90) translate(36 -43)">
    <use xlink:href="#rim"/>
    <path pointer-events="none" fill="none" stroke="white" stroke-width="1.5" d="M0,-3.0v7 M-2.5,-0.5L0,-3.0L2.5,-0.5"/>
  </g>
  <g id="arrowDown" transform="rotate(180) translate(-30 -48)">
    <use xlink:href="#rim"/>
    <path pointer-events="none" fill="none" stroke="white" stroke-width="1.5" d="M0,-3.0v7 M-2.5,-0.5L0,-3.0L2.5,-0.5"/>
  </g>
  <g id="arrowLeft" transform="rotate(270) translate(-36 17)">
    <use xlink:href="#rim"/>
    <path pointer-events="none" fill="none" stroke="white" stroke-width="1.5" d="M0,-3.0v7 M-2.5,-0.5L0,-3.0L2.5,-0.5"/>
  </g>
  <g id="resetDef">
    <use xlink:href="#rim2" fill="#404040"><set attributeName="fill" to="#808080" begin="reset.mouseover" end="reset.mouseout"/></use>
  </g>
</defs>
<script type="application/ecmascript">
var viewWidth = 662;
var viewHeight = 354;
</script>
<script type="application/ecmascript" xlink:href="svg.min.js"/>
<svg id="graph" class="graph">
<g id="viewport">
<title>G</title>
<polygon fill="white" stroke="transparent" points="-4,4 -4,-350 658,-350 658,4 -4,4"/>
<g id="clust1" class="cluster">
<title>cluster_adapters_in</title>
<polygon fill="none" stroke="black" points="0,-98 0,-231 124,-231 124,-98 0,-98"/>
<text text-anchor="middle" x="62" y="-215.8" font-family="Times,serif" font-size="14.00">Input Adapters</text>
</g>
<g id="clust2" class="cluster">
<title>cluster_application</title>
<polygon fill="none" stroke="black" points="218,-130 218,-207 360,-207 360,-130 218,-130"/>
<text text-anchor="middle" x="289" y="-191.8" font-family="Times,serif" font-size="14.00">Application Layer</text>
</g>
<g id="clust3" class="cluster">
<title>cluster_domain</title>
<polygon fill="none" stroke="black" points="497,-149 497,-338 646,-338 646,-149 497,-149"/>
<text text-anchor="middle" x="571.5" y="-322.8" font-family="Times,serif" font-size="14.00">Domain Layer</text>
</g>
<g id="clust4" class="cluster">
<title>cluster_adapters_out</title>
<polygon fill="none" stroke="black" points="504,-8 504,-141 640,-141 640,-8 504,-8"/>
<text text-anchor="middle" x="572" y="-125.8" font-family="Times,serif" font-size="14.00">Output Adapters</text>
</g>
<!-- ConsoleReceiver -->
<g id="node1" class="node">
<title>ConsoleReceiver</title>
<polygon fill="white" stroke="black" points="101,-200 22,-200 22,-162 101,-162 101,-200"/>
<text text-anchor="middle" x="61.5" y="-184.8" font-family="Times,serif" font-size="14.00">Console</text>
<text text-anchor="middle" x="61.5" y="-169.8" font-family="Times,serif" font-size="14.00">Receiver</text>
</g>
<!-- CalculatorService -->
<g id="node3" class="node">
<title>CalculatorService</title>
<polygon fill="white" stroke="black" points="334,-176 244,-176 244,-138 334,-138 334,-176"/>
<text text-anchor="middle" x="289" y="-160.8" font-family="Times,serif" font-size="14.00">Calculator</text>
<text text-anchor="middle" x="289" y="-145.8" font-family="Times,serif" font-size="14.00">Service</text>
</g>
<!-- ConsoleReceiver&#45;&gt;CalculatorService -->
<g id="edge1" class="edge">
<title>ConsoleReceiver&#45;&gt;CalculatorService</title>
<path fill="none" stroke="black" d="M101.01,-176.9C137.54,-173.01 192.78,-167.13 233.76,-162.77"/>
<polygon fill="black" stroke="black" points="234.28,-166.24 243.85,-161.7 233.54,-159.28 234.28,-166.24"/>
<text text-anchor="middle" x="171" y="-176.8" font-family="Times,serif" font-size="14.00">TrackData</text>
</g>
<!-- ZeroMQReceiver -->
<g id="node2" class="node">
<title>ZeroMQReceiver</title>
<polygon fill="white" stroke="black" points="101,-144 22,-144 22,-106 101,-106 101,-144"/>
<text text-anchor="middle" x="61.5" y="-128.8" font-family="Times,serif" font-size="14.00">ZeroMQ</text>
<text text-anchor="middle" x="61.5" y="-113.8" font-family="Times,serif" font-size="14.00">Receiver</text>
</g>
<!-- ZeroMQReceiver&#45;&gt;CalculatorService -->
<g id="edge2" class="edge">
<title>ZeroMQReceiver&#45;&gt;CalculatorService</title>
<path fill="none" stroke="black" d="M101.01,-130.46C137.54,-135.65 192.78,-143.49 233.76,-149.3"/>
<polygon fill="black" stroke="black" points="233.46,-152.8 243.85,-150.74 234.44,-145.86 233.46,-152.8"/>
<text text-anchor="middle" x="171" y="-147.8" font-family="Times,serif" font-size="14.00">TrackData</text>
</g>
<!-- TrackCalculations -->
<g id="node4" class="node">
<title>TrackCalculations</title>
<polygon fill="white" stroke="black" points="623.5,-307 519.5,-307 519.5,-269 623.5,-269 623.5,-307"/>
<text text-anchor="middle" x="571.5" y="-291.8" font-family="Times,serif" font-size="14.00">Track</text>
<text text-anchor="middle" x="571.5" y="-276.8" font-family="Times,serif" font-size="14.00">Calculations</text>
</g>
<!-- CalculatorService&#45;&gt;TrackCalculations -->
<g id="edge3" class="edge">
<title>CalculatorService&#45;&gt;TrackCalculations</title>
<path fill="none" stroke="black" d="M306.61,-176.13C321.65,-192.36 345.21,-215.15 370,-229 413.6,-253.36 468.28,-268.58 509.52,-277.45"/>
<polygon fill="black" stroke="black" points="508.93,-280.9 519.44,-279.51 510.36,-274.05 508.93,-280.9"/>
<text text-anchor="middle" x="428.5" y="-274.8" font-family="Times,serif" font-size="14.00">calculate delays</text>
</g>
<!-- ConsoleSender -->
<g id="node7" class="node">
<title>ConsoleSender</title>
<polygon fill="white" stroke="black" points="608,-110 535,-110 535,-72 608,-72 608,-110"/>
<text text-anchor="middle" x="571.5" y="-94.8" font-family="Times,serif" font-size="14.00">Console</text>
<text text-anchor="middle" x="571.5" y="-79.8" font-family="Times,serif" font-size="14.00">Sender</text>
</g>
<!-- CalculatorService&#45;&gt;ConsoleSender -->
<g id="edge5" class="edge">
<title>CalculatorService&#45;&gt;ConsoleSender</title>
<path fill="none" stroke="black" d="M334.14,-146.61C386.17,-134.37 472.21,-114.13 524.88,-101.73"/>
<polygon fill="black" stroke="black" points="525.7,-105.14 534.63,-99.44 524.1,-98.32 525.7,-105.14"/>
<text text-anchor="middle" x="428.5" y="-155.8" font-family="Times,serif" font-size="14.00">DelayCalculated</text>
<text text-anchor="middle" x="428.5" y="-140.8" font-family="Times,serif" font-size="14.00">TrackData</text>
</g>
<!-- ZeroMQSender -->
<g id="node8" class="node">
<title>ZeroMQSender</title>
<polygon fill="white" stroke="black" points="609,-54 534,-54 534,-16 609,-16 609,-54"/>
<text text-anchor="middle" x="571.5" y="-38.8" font-family="Times,serif" font-size="14.00">ZeroMQ</text>
<text text-anchor="middle" x="571.5" y="-23.8" font-family="Times,serif" font-size="14.00">Sender</text>
</g>
<!-- CalculatorService&#45;&gt;ZeroMQSender -->
<g id="edge6" class="edge">
<title>CalculatorService&#45;&gt;ZeroMQSender</title>
<path fill="none" stroke="black" d="M303.99,-137.92C318.45,-119.65 342.69,-92.75 370,-78 418.47,-51.82 481.6,-41.58 523.96,-37.57"/>
<polygon fill="black" stroke="black" points="524.33,-41.05 533.99,-36.7 523.73,-34.08 524.33,-41.05"/>
<text text-anchor="middle" x="428.5" y="-96.8" font-family="Times,serif" font-size="14.00">DelayCalculated</text>
<text text-anchor="middle" x="428.5" y="-81.8" font-family="Times,serif" font-size="14.00">TrackData</text>
</g>
<!-- TrackCalculations&#45;&gt;CalculatorService -->
<g id="edge4" class="edge">
<title>TrackCalculations&#45;&gt;CalculatorService</title>
<path fill="none" stroke="black" d="M519.13,-276.17C510.76,-272.23 502.91,-266.98 497,-260 482.36,-242.7 502.49,-226.54 487,-210 477.09,-199.41 399.2,-180.68 344.39,-168.55"/>
<polygon fill="black" stroke="black" points="344.96,-165.09 334.45,-166.37 343.46,-171.93 344.96,-165.09"/>
<text text-anchor="middle" x="428.5" y="-213.8" font-family="Times,serif" font-size="14.00">delay values</text>
</g>
<!-- TrackData -->
<g id="node5" class="node">
<title>TrackData</title>
<polygon fill="white" stroke="black" points="616.5,-251 526.5,-251 526.5,-213 616.5,-213 616.5,-251"/>
<text text-anchor="middle" x="571.5" y="-235.8" font-family="Times,serif" font-size="14.00">TrackData</text>
<text text-anchor="middle" x="571.5" y="-220.8" font-family="Times,serif" font-size="14.00">Model</text>
</g>
<!-- DelayData -->
<g id="node6" class="node">
<title>DelayData</title>
<polygon fill="white" stroke="black" points="638,-195 505,-195 505,-157 638,-157 638,-195"/>
<text text-anchor="middle" x="571.5" y="-179.8" font-family="Times,serif" font-size="14.00">DelayCalculated</text>
<text text-anchor="middle" x="571.5" y="-164.8" font-family="Times,serif" font-size="14.00">TrackData</text>
</g>
</g>
</svg>

<g id="navigator" transform="translate(0 0)" fill="#404254">
  <rect fill="#f2f5e9" fill-opacity="0.5" stroke="#606060" stroke-width=".5" x="0" y="0" width="60" height="60"/>
  <use id="zoomplus" xlink:href="#zoomPlus" x="17" y="9" onmousedown="handleZoom(evt,'in')"/>
  <use id="zoomminus" xlink:href="#zoomMin" x="42" y="9" onmousedown="handleZoom(evt,'out')"/>
  <use id="reset" xlink:href="#resetDef" x="30" y="36" onmousedown="handleReset()"/>
   <use id="arrowup" xlink:href="#arrowUp" x="0" y="0" onmousedown="handlePan(0,-1)"/>
  <use id="arrowright" xlink:href="#arrowRight" x="0" y="0" onmousedown="handlePan(1,0)"/>
  <use id="arrowdown" xlink:href="#arrowDown" x="0" y="0" onmousedown="handlePan(0,1)"/>
  <use id="arrowleft" xlink:href="#arrowLeft" x="0" y="0" onmousedown="handlePan(-1,0)"/>
</g>
<svg viewBox="0 0 15 15" width="100%" height="30px" preserveAspectRatio="xMaxYMin meet">
 <g id="arrow_out" transform="scale(0.3 0.3)">
  <a xlink:href="dot_inline_dotgraph_2_org.svg" target="_base">
   <rect id="button" ry="5" rx="5" y="6" x="6" height="38" width="38"
        fill="#f2f5e9" fill-opacity="0.5" stroke="#606060" stroke-width="1.0"/>
   <path id="arrow"
     d="M 11.500037,31.436501 C 11.940474,20.09759 22.043105,11.32322 32.158766,21.979434 L 37.068811,17.246167 C 37.068811,17.246167 37.088388,32 37.088388,32 L 22.160133,31.978069 C 22.160133,31.978069 26.997745,27.140456 26.997745,27.140456 C 18.528582,18.264221 13.291696,25.230495 11.500037,31.436501 z"
     style="fill:#404040;"/>
  </a>
 </g>
</svg>

<style type='text/css'>
<![CDATA[
[data-mouse-over-selected='false'] { opacity: 0.7; }
[data-mouse-over-selected='true']  { opacity: 1.0; }
]]>
</style>
<script type="application/ecmascript"><![CDATA[
document.addEventListener('DOMContentLoaded', (event) => {
  highlightEdges();
  highlightAdjacentNodes();
});
]]></script>
</svg>
