<?xml version="1.0" encoding="UTF-8" standalone="no"?>
<!DOCTYPE svg PUBLIC "-//W3C//DTD SVG 1.1//EN"
 "http://www.w3.org/Graphics/SVG/1.1/DTD/svg11.dtd">
<!-- Generated by graphviz version 2.43.0 (0)
 -->
<!-- Title: main_flow Pages: 1 -->
<svg width="251pt" height="344pt"
 viewBox="0.00 0.00 251.00 344.00" xmlns="http://www.w3.org/2000/svg" xmlns:xlink="http://www.w3.org/1999/xlink">

<svg id="main" version="1.1" xmlns="http://www.w3.org/2000/svg" xmlns:xlink="http://www.w3.org/1999/xlink" xml:space="preserve" onload="init(evt)">
<style type="text/css"><![CDATA[
.node, .edge {opacity: 0.7;}
.node.selected, .edge.selected {opacity: 1;}
.edge:hover path { stroke: red; }
.edge:hover polygon { stroke: red; fill: red; }
]]></style>
<script type="application/ecmascript" xlink:href="svg.min.js"/>
<svg id="graph" class="graph">
<g id="graph0" class="graph" transform="scale(1 1) rotate(0) translate(4 340)">
<title>main_flow</title>
<polygon fill="white" stroke="transparent" points="-4,4 -4,-340 247,-340 247,4 -4,4"/>
<!-- start -->
<g id="node1" class="node">
<title>start</title>
<polygon fill="lightgreen" stroke="black" points="132.5,-336 23.5,-336 23.5,-300 132.5,-300 132.5,-336"/>
<text text-anchor="middle" x="78" y="-314.3" font-family="Times,serif" font-size="14.00">main() starts</text>
</g>
<!-- config -->
<g id="node2" class="node">
<title>config</title>
<polygon fill="yellow" stroke="black" points="156,-263 0,-263 0,-225 156,-225 156,-263"/>
<text text-anchor="middle" x="78" y="-247.8" font-family="Times,serif" font-size="14.00">Configure ZMQ</text>
<text text-anchor="middle" x="78" y="-232.8" font-family="Times,serif" font-size="14.00">Endpoints &amp; Topics</text>
</g>
<!-- start&#45;&gt;config -->
<g id="edge1" class="edge">
<title>start&#45;&gt;config</title>
<path fill="none" stroke="black" d="M78,-299.94C78,-291.99 78,-282.31 78,-273.31"/>
<polygon fill="black" stroke="black" points="81.5,-273.2 78,-263.2 74.5,-273.2 81.5,-273.2"/>
</g>
<!-- create_adapters -->
<g id="node3" class="node">
<title>create_adapters</title>
<polygon fill="lightblue" stroke="black" points="154,-188 2,-188 2,-150 154,-150 154,-188"/>
<text text-anchor="middle" x="78" y="-172.8" font-family="Times,serif" font-size="14.00">Create ZMQ</text>
<text text-anchor="middle" x="78" y="-157.8" font-family="Times,serif" font-size="14.00">Receiver &amp; Sender</text>
</g>
<!-- config&#45;&gt;create_adapters -->
<g id="edge2" class="edge">
<title>config&#45;&gt;create_adapters</title>
<path fill="none" stroke="black" d="M78,-224.96C78,-216.88 78,-207.18 78,-198.18"/>
<polygon fill="black" stroke="black" points="81.5,-198.09 78,-188.09 74.5,-198.09 81.5,-198.09"/>
</g>
<!-- inject -->
<g id="node4" class="node">
<title>inject</title>
<polygon fill="orange" stroke="black" points="149.5,-113 6.5,-113 6.5,-75 149.5,-75 149.5,-113"/>
<text text-anchor="middle" x="78" y="-97.8" font-family="Times,serif" font-size="14.00">Inject into</text>
<text text-anchor="middle" x="78" y="-82.8" font-family="Times,serif" font-size="14.00">CalculatorService</text>
</g>
<!-- create_adapters&#45;&gt;inject -->
<g id="edge3" class="edge">
<title>create_adapters&#45;&gt;inject</title>
<path fill="none" stroke="black" d="M78,-149.96C78,-141.88 78,-132.18 78,-123.18"/>
<polygon fill="black" stroke="black" points="81.5,-123.09 78,-113.09 74.5,-123.09 81.5,-123.09"/>
</g>
<!-- loop -->
<g id="node5" class="node">
<title>loop</title>
<polygon fill="pink" stroke="black" points="146,-38 10,-38 10,0 146,0 146,-38"/>
<text text-anchor="middle" x="78" y="-22.8" font-family="Times,serif" font-size="14.00">Start Processing</text>
<text text-anchor="middle" x="78" y="-7.8" font-family="Times,serif" font-size="14.00">Loop (Blocking)</text>
</g>
<!-- inject&#45;&gt;loop -->
<g id="edge4" class="edge">
<title>inject&#45;&gt;loop</title>
<path fill="none" stroke="black" d="M78,-74.96C78,-66.88 78,-57.18 78,-48.18"/>
<polygon fill="black" stroke="black" points="81.5,-48.09 78,-38.09 74.5,-48.09 81.5,-48.09"/>
</g>
<!-- loop&#45;&gt;loop -->
<g id="edge5" class="edge">
<title>loop&#45;&gt;loop</title>
<path fill="none" stroke="black" d="M146.13,-25.19C156.76,-24.26 164,-22.2 164,-19 164,-16.95 161.03,-15.37 156.1,-14.25"/>
<polygon fill="black" stroke="black" points="156.53,-10.78 146.13,-12.81 155.53,-17.71 156.53,-10.78"/>
<text text-anchor="middle" x="203.5" y="-22.8" font-family="Times,serif" font-size="14.00">continuous</text>
<text text-anchor="middle" x="203.5" y="-7.8" font-family="Times,serif" font-size="14.00">processing</text>
</g>
</g>
</svg>
</svg>

<style type='text/css'>
<![CDATA[
[data-mouse-over-selected='false'] { opacity: 0.7; }
[data-mouse-over-selected='true']  { opacity: 1.0; }
]]>
</style>
<script type="application/ecmascript"><![CDATA[
document.addEventListener('DOMContentLoaded', (event) => {
  highlightEdges();
  highlightAdjacentNodes();
});
]]></script>
</svg>
