<?xml version="1.0" encoding="UTF-8" standalone="no"?>
<!DOCTYPE svg PUBLIC "-//W3C//DTD SVG 1.1//EN"
 "http://www.w3.org/Graphics/SVG/1.1/DTD/svg11.dtd">
<!-- Generated by graphviz version 2.43.0 (0)
 -->
<!-- Title: timing_flow Pages: 1 -->
<!--zoomable 268 -->

<svg id="main" version="1.1" xmlns="http://www.w3.org/2000/svg" xmlns:xlink="http://www.w3.org/1999/xlink" xml:space="preserve" onload="init(evt)">
<style type="text/css"><![CDATA[
.node, .edge {opacity: 0.7;}
.node.selected, .edge.selected {opacity: 1;}
.edge:hover path { stroke: red; }
.edge:hover polygon { stroke: red; fill: red; }
]]></style>

<defs>
  <circle id="rim" cx="0" cy="0" r="7"/>
  <circle id="rim2" cx="0" cy="0" r="3.5"/>
  <g id="zoomPlus">
    <use xlink:href="#rim" fill="#404040"><set attributeName="fill" to="#808080" begin="zoomplus.mouseover" end="zoomplus.mouseout"/></use>
    <path d="M-4,0h8M0,-4v8" fill="none" stroke="white" stroke-width="1.5" pointer-events="none"/>
  </g>
  <g id="zoomMin">
    <use xlink:href="#rim" fill="#404040"><set attributeName="fill" to="#808080" begin="zoomminus.mouseover" end="zoomminus.mouseout"/></use>
    <path d="M-4,0h8" fill="none" stroke="white" stroke-width="1.5" pointer-events="none"/>
  </g>
  <g id="arrowUp" transform="translate(30 24)">
    <use xlink:href="#rim"/>
    <path pointer-events="none" fill="none" stroke="white" stroke-width="1.5" d="M0,-3.0v7 M-2.5,-0.5L0,-3.0L2.5,-0.5"/>
  </g>
  <g id="arrowRight" transform="rotate(90) translate(36 -43)">
    <use xlink:href="#rim"/>
    <path pointer-events="none" fill="none" stroke="white" stroke-width="1.5" d="M0,-3.0v7 M-2.5,-0.5L0,-3.0L2.5,-0.5"/>
  </g>
  <g id="arrowDown" transform="rotate(180) translate(-30 -48)">
    <use xlink:href="#rim"/>
    <path pointer-events="none" fill="none" stroke="white" stroke-width="1.5" d="M0,-3.0v7 M-2.5,-0.5L0,-3.0L2.5,-0.5"/>
  </g>
  <g id="arrowLeft" transform="rotate(270) translate(-36 17)">
    <use xlink:href="#rim"/>
    <path pointer-events="none" fill="none" stroke="white" stroke-width="1.5" d="M0,-3.0v7 M-2.5,-0.5L0,-3.0L2.5,-0.5"/>
  </g>
  <g id="resetDef">
    <use xlink:href="#rim2" fill="#404040"><set attributeName="fill" to="#808080" begin="reset.mouseover" end="reset.mouseout"/></use>
  </g>
</defs>
<script type="application/ecmascript">
var viewWidth = 538;
var viewHeight = 268;
</script>
<script type="application/ecmascript" xlink:href="svg.min.js"/>
<svg id="graph" class="graph">
<g id="viewport">
<title>timing_flow</title>
<polygon fill="white" stroke="transparent" points="-4,4 -4,-264 533.5,-264 533.5,4 -4,4"/>
<!-- input -->
<g id="node1" class="node">
<title>input</title>
<polygon fill="lightblue" stroke="black" points="210,-260 50,-260 50,-222 210,-222 210,-260"/>
<text text-anchor="middle" x="130" y="-244.8" font-family="Times,serif" font-size="14.00">Input: TrackData</text>
<text text-anchor="middle" x="130" y="-229.8" font-family="Times,serif" font-size="14.00">+ firstHopSentTime</text>
</g>
<!-- receive -->
<g id="node2" class="node">
<title>receive</title>
<polygon fill="yellow" stroke="black" points="198.5,-186 61.5,-186 61.5,-148 198.5,-148 198.5,-186"/>
<text text-anchor="middle" x="130" y="-170.8" font-family="Times,serif" font-size="14.00">System captures</text>
<text text-anchor="middle" x="130" y="-155.8" font-family="Times,serif" font-size="14.00">Receive Time</text>
</g>
<!-- input&#45;&gt;receive -->
<g id="edge1" class="edge">
<title>input&#45;&gt;receive</title>
<path fill="none" stroke="black" d="M130,-221.83C130,-214.13 130,-204.97 130,-196.42"/>
<polygon fill="black" stroke="black" points="133.5,-196.41 130,-186.41 126.5,-196.41 133.5,-196.41"/>
</g>
<!-- calc1 -->
<g id="node3" class="node">
<title>calc1</title>
<polygon fill="orange" stroke="black" points="260,-112 0,-112 0,-74 260,-74 260,-112"/>
<text text-anchor="middle" x="130" y="-96.8" font-family="Times,serif" font-size="14.00">Calculate First Hop Delay</text>
<text text-anchor="middle" x="130" y="-81.8" font-family="Times,serif" font-size="14.00">= receiveTime &#45; firstHopSentTime</text>
</g>
<!-- receive&#45;&gt;calc1 -->
<g id="edge2" class="edge">
<title>receive&#45;&gt;calc1</title>
<path fill="none" stroke="black" d="M130,-147.83C130,-140.13 130,-130.97 130,-122.42"/>
<polygon fill="black" stroke="black" points="133.5,-122.41 130,-112.41 126.5,-122.41 133.5,-122.41"/>
</g>
<!-- calc2 -->
<g id="node4" class="node">
<title>calc2</title>
<polygon fill="orange" stroke="black" points="529.5,-112 278.5,-112 278.5,-74 529.5,-74 529.5,-112"/>
<text text-anchor="middle" x="404" y="-96.8" font-family="Times,serif" font-size="14.00">Calculate Second Hop Sent Time</text>
<text text-anchor="middle" x="404" y="-81.8" font-family="Times,serif" font-size="14.00">= current system time</text>
</g>
<!-- calc1&#45;&gt;calc2 -->
<g id="edge3" class="edge">
<title>calc1&#45;&gt;calc2</title>
<path fill="none" stroke="black" d="M260.04,-93C262.71,-93 265.37,-93 268.04,-93"/>
<polygon fill="black" stroke="black" points="268.32,-96.5 278.32,-93 268.32,-89.5 268.32,-96.5"/>
</g>
<!-- output -->
<g id="node5" class="node">
<title>output</title>
<polygon fill="lightgreen" stroke="black" points="500,-38 308,-38 308,0 500,0 500,-38"/>
<text text-anchor="middle" x="404" y="-22.8" font-family="Times,serif" font-size="14.00">Output: DelayCalculated</text>
<text text-anchor="middle" x="404" y="-7.8" font-family="Times,serif" font-size="14.00">TrackData</text>
</g>
<!-- calc2&#45;&gt;output -->
<g id="edge4" class="edge">
<title>calc2&#45;&gt;output</title>
<path fill="none" stroke="black" d="M404,-73.83C404,-66.13 404,-56.97 404,-48.42"/>
<polygon fill="black" stroke="black" points="407.5,-48.41 404,-38.41 400.5,-48.41 407.5,-48.41"/>
</g>
</g>
</svg>

<g id="navigator" transform="translate(0 0)" fill="#404254">
  <rect fill="#f2f5e9" fill-opacity="0.5" stroke="#606060" stroke-width=".5" x="0" y="0" width="60" height="60"/>
  <use id="zoomplus" xlink:href="#zoomPlus" x="17" y="9" onmousedown="handleZoom(evt,'in')"/>
  <use id="zoomminus" xlink:href="#zoomMin" x="42" y="9" onmousedown="handleZoom(evt,'out')"/>
  <use id="reset" xlink:href="#resetDef" x="30" y="36" onmousedown="handleReset()"/>
   <use id="arrowup" xlink:href="#arrowUp" x="0" y="0" onmousedown="handlePan(0,-1)"/>
  <use id="arrowright" xlink:href="#arrowRight" x="0" y="0" onmousedown="handlePan(1,0)"/>
  <use id="arrowdown" xlink:href="#arrowDown" x="0" y="0" onmousedown="handlePan(0,1)"/>
  <use id="arrowleft" xlink:href="#arrowLeft" x="0" y="0" onmousedown="handlePan(-1,0)"/>
</g>
<svg viewBox="0 0 15 15" width="100%" height="30px" preserveAspectRatio="xMaxYMin meet">
 <g id="arrow_out" transform="scale(0.3 0.3)">
  <a xlink:href="dot_inline_dotgraph_3_org.svg" target="_base">
   <rect id="button" ry="5" rx="5" y="6" x="6" height="38" width="38"
        fill="#f2f5e9" fill-opacity="0.5" stroke="#606060" stroke-width="1.0"/>
   <path id="arrow"
     d="M 11.500037,31.436501 C 11.940474,20.09759 22.043105,11.32322 32.158766,21.979434 L 37.068811,17.246167 C 37.068811,17.246167 37.088388,32 37.088388,32 L 22.160133,31.978069 C 22.160133,31.978069 26.997745,27.140456 26.997745,27.140456 C 18.528582,18.264221 13.291696,25.230495 11.500037,31.436501 z"
     style="fill:#404040;"/>
  </a>
 </g>
</svg>

<style type='text/css'>
<![CDATA[
[data-mouse-over-selected='false'] { opacity: 0.7; }
[data-mouse-over-selected='true']  { opacity: 1.0; }
]]>
</style>
<script type="application/ecmascript"><![CDATA[
document.addEventListener('DOMContentLoaded', (event) => {
  highlightEdges();
  highlightAdjacentNodes();
});
]]></script>
</svg>
