<?xml version="1.0" encoding="UTF-8" standalone="no"?>
<!DOCTYPE svg PUBLIC "-//W3C//DTD SVG 1.1//EN"
 "http://www.w3.org/Graphics/SVG/1.1/DTD/svg11.dtd">
<!-- Generated by graphviz version 2.43.0 (0)
 -->
<!-- Title: zmq_receive_flow Pages: 1 -->
<svg width="296pt" height="374pt"
 viewBox="0.00 0.00 296.00 374.00" xmlns="http://www.w3.org/2000/svg" xmlns:xlink="http://www.w3.org/1999/xlink">

<svg id="main" version="1.1" xmlns="http://www.w3.org/2000/svg" xmlns:xlink="http://www.w3.org/1999/xlink" xml:space="preserve" onload="init(evt)">
<style type="text/css"><![CDATA[
.node, .edge {opacity: 0.7;}
.node.selected, .edge.selected {opacity: 1;}
.edge:hover path { stroke: red; }
.edge:hover polygon { stroke: red; fill: red; }
]]></style>
<script type="application/ecmascript" xlink:href="svg.min.js"/>
<svg id="graph" class="graph">
<g id="graph0" class="graph" transform="scale(1 1) rotate(0) translate(4 370)">
<title>zmq_receive_flow</title>
<polygon fill="white" stroke="transparent" points="-4,4 -4,-370 292,-370 292,4 -4,4"/>
<!-- external -->
<g id="node1" class="node">
<title>external</title>
<polygon fill="lightgray" stroke="black" points="215.5,-366 79.5,-366 79.5,-328 215.5,-328 215.5,-366"/>
<text text-anchor="middle" x="147.5" y="-350.8" font-family="Times,serif" font-size="14.00">External System</text>
<text text-anchor="middle" x="147.5" y="-335.8" font-family="Times,serif" font-size="14.00">(ZMQ PUB)</text>
</g>
<!-- zmq_msg -->
<g id="node2" class="node">
<title>zmq_msg</title>
<polygon fill="lightblue" stroke="black" points="207,-277 88,-277 88,-239 207,-239 207,-277"/>
<text text-anchor="middle" x="147.5" y="-261.8" font-family="Times,serif" font-size="14.00">ZMQ Message</text>
<text text-anchor="middle" x="147.5" y="-246.8" font-family="Times,serif" font-size="14.00">Received</text>
</g>
<!-- external&#45;&gt;zmq_msg -->
<g id="edge1" class="edge">
<title>external&#45;&gt;zmq_msg</title>
<path fill="none" stroke="black" d="M147.5,-327.97C147.5,-316.19 147.5,-300.56 147.5,-287.16"/>
<polygon fill="black" stroke="black" points="151,-287 147.5,-277 144,-287 151,-287"/>
<text text-anchor="middle" x="190.5" y="-298.8" font-family="Times,serif" font-size="14.00">JSON string</text>
</g>
<!-- parse -->
<g id="node3" class="node">
<title>parse</title>
<polygon fill="yellow" stroke="black" points="197,-202 98,-202 98,-164 197,-164 197,-202"/>
<text text-anchor="middle" x="147.5" y="-186.8" font-family="Times,serif" font-size="14.00">Parse JSON</text>
<text text-anchor="middle" x="147.5" y="-171.8" font-family="Times,serif" font-size="14.00">Payload</text>
</g>
<!-- zmq_msg&#45;&gt;parse -->
<g id="edge2" class="edge">
<title>zmq_msg&#45;&gt;parse</title>
<path fill="none" stroke="black" d="M147.5,-238.96C147.5,-230.88 147.5,-221.18 147.5,-212.18"/>
<polygon fill="black" stroke="black" points="151,-212.09 147.5,-202.09 144,-212.09 151,-212.09"/>
</g>
<!-- validate -->
<g id="node4" class="node">
<title>validate</title>
<polygon fill="orange" stroke="black" points="208.5,-127 86.5,-127 86.5,-89 208.5,-89 208.5,-127"/>
<text text-anchor="middle" x="147.5" y="-111.8" font-family="Times,serif" font-size="14.00">Validate Fields</text>
<text text-anchor="middle" x="147.5" y="-96.8" font-family="Times,serif" font-size="14.00">(10 required)</text>
</g>
<!-- parse&#45;&gt;validate -->
<g id="edge3" class="edge">
<title>parse&#45;&gt;validate</title>
<path fill="none" stroke="black" d="M147.5,-163.96C147.5,-155.88 147.5,-146.18 147.5,-137.18"/>
<polygon fill="black" stroke="black" points="151,-137.09 147.5,-127.09 144,-137.09 151,-137.09"/>
</g>
<!-- trackdata -->
<g id="node5" class="node">
<title>trackdata</title>
<polygon fill="lightgreen" stroke="black" points="143,-38 0,-38 0,0 143,0 143,-38"/>
<text text-anchor="middle" x="71.5" y="-22.8" font-family="Times,serif" font-size="14.00">Create TrackData</text>
<text text-anchor="middle" x="71.5" y="-7.8" font-family="Times,serif" font-size="14.00">Object</text>
</g>
<!-- validate&#45;&gt;trackdata -->
<g id="edge4" class="edge">
<title>validate&#45;&gt;trackdata</title>
<path fill="none" stroke="black" d="M131.75,-88.97C120.85,-76.49 106.17,-59.69 94.03,-45.79"/>
<polygon fill="black" stroke="black" points="96.44,-43.23 87.23,-38 91.17,-47.84 96.44,-43.23"/>
<text text-anchor="middle" x="132" y="-59.8" font-family="Times,serif" font-size="14.00">valid</text>
</g>
<!-- error -->
<g id="node6" class="node">
<title>error</title>
<polygon fill="red" stroke="black" points="288,-38 161,-38 161,0 288,0 288,-38"/>
<text text-anchor="middle" x="224.5" y="-22.8" font-family="Times,serif" font-size="14.00">Throw Runtime</text>
<text text-anchor="middle" x="224.5" y="-7.8" font-family="Times,serif" font-size="14.00">Error</text>
</g>
<!-- validate&#45;&gt;error -->
<g id="edge5" class="edge">
<title>validate&#45;&gt;error</title>
<path fill="none" stroke="black" d="M163.45,-88.97C174.5,-76.49 189.37,-59.69 201.67,-45.79"/>
<polygon fill="black" stroke="black" points="204.56,-47.81 208.57,-38 199.32,-43.17 204.56,-47.81"/>
<text text-anchor="middle" x="215" y="-59.8" font-family="Times,serif" font-size="14.00">invalid</text>
</g>
</g>
</svg>
</svg>

<style type='text/css'>
<![CDATA[
[data-mouse-over-selected='false'] { opacity: 0.7; }
[data-mouse-over-selected='true']  { opacity: 1.0; }
]]>
</style>
<script type="application/ecmascript"><![CDATA[
document.addEventListener('DOMContentLoaded', (event) => {
  highlightEdges();
  highlightAdjacentNodes();
});
]]></script>
</svg>
