<?xml version="1.0" encoding="UTF-8" standalone="no"?>
<!DOCTYPE svg PUBLIC "-//W3C//DTD SVG 1.1//EN"
 "http://www.w3.org/Graphics/SVG/1.1/DTD/svg11.dtd">
<!-- Generated by graphviz version 2.43.0 (0)
 -->
<!-- Title: timing_flow Pages: 1 -->
<svg width="538pt" height="268pt"
 viewBox="0.00 0.00 537.50 268.00" xmlns="http://www.w3.org/2000/svg" xmlns:xlink="http://www.w3.org/1999/xlink">
<g id="graph0" class="graph" transform="scale(1 1) rotate(0) translate(4 264)">
<title>timing_flow</title>
<polygon fill="white" stroke="transparent" points="-4,4 -4,-264 533.5,-264 533.5,4 -4,4"/>
<!-- input -->
<g id="node1" class="node">
<title>input</title>
<polygon fill="lightblue" stroke="black" points="210,-260 50,-260 50,-222 210,-222 210,-260"/>
<text text-anchor="middle" x="130" y="-244.8" font-family="Times,serif" font-size="14.00">Input: TrackData</text>
<text text-anchor="middle" x="130" y="-229.8" font-family="Times,serif" font-size="14.00">+ firstHopSentTime</text>
</g>
<!-- receive -->
<g id="node2" class="node">
<title>receive</title>
<polygon fill="yellow" stroke="black" points="198.5,-186 61.5,-186 61.5,-148 198.5,-148 198.5,-186"/>
<text text-anchor="middle" x="130" y="-170.8" font-family="Times,serif" font-size="14.00">System captures</text>
<text text-anchor="middle" x="130" y="-155.8" font-family="Times,serif" font-size="14.00">Receive Time</text>
</g>
<!-- input&#45;&gt;receive -->
<g id="edge1" class="edge">
<title>input&#45;&gt;receive</title>
<path fill="none" stroke="black" d="M130,-221.83C130,-214.13 130,-204.97 130,-196.42"/>
<polygon fill="black" stroke="black" points="133.5,-196.41 130,-186.41 126.5,-196.41 133.5,-196.41"/>
</g>
<!-- calc1 -->
<g id="node3" class="node">
<title>calc1</title>
<polygon fill="orange" stroke="black" points="260,-112 0,-112 0,-74 260,-74 260,-112"/>
<text text-anchor="middle" x="130" y="-96.8" font-family="Times,serif" font-size="14.00">Calculate First Hop Delay</text>
<text text-anchor="middle" x="130" y="-81.8" font-family="Times,serif" font-size="14.00">= receiveTime &#45; firstHopSentTime</text>
</g>
<!-- receive&#45;&gt;calc1 -->
<g id="edge2" class="edge">
<title>receive&#45;&gt;calc1</title>
<path fill="none" stroke="black" d="M130,-147.83C130,-140.13 130,-130.97 130,-122.42"/>
<polygon fill="black" stroke="black" points="133.5,-122.41 130,-112.41 126.5,-122.41 133.5,-122.41"/>
</g>
<!-- calc2 -->
<g id="node4" class="node">
<title>calc2</title>
<polygon fill="orange" stroke="black" points="529.5,-112 278.5,-112 278.5,-74 529.5,-74 529.5,-112"/>
<text text-anchor="middle" x="404" y="-96.8" font-family="Times,serif" font-size="14.00">Calculate Second Hop Sent Time</text>
<text text-anchor="middle" x="404" y="-81.8" font-family="Times,serif" font-size="14.00">= current system time</text>
</g>
<!-- calc1&#45;&gt;calc2 -->
<g id="edge3" class="edge">
<title>calc1&#45;&gt;calc2</title>
<path fill="none" stroke="black" d="M260.04,-93C262.71,-93 265.37,-93 268.04,-93"/>
<polygon fill="black" stroke="black" points="268.32,-96.5 278.32,-93 268.32,-89.5 268.32,-96.5"/>
</g>
<!-- output -->
<g id="node5" class="node">
<title>output</title>
<polygon fill="lightgreen" stroke="black" points="500,-38 308,-38 308,0 500,0 500,-38"/>
<text text-anchor="middle" x="404" y="-22.8" font-family="Times,serif" font-size="14.00">Output: DelayCalculated</text>
<text text-anchor="middle" x="404" y="-7.8" font-family="Times,serif" font-size="14.00">TrackData</text>
</g>
<!-- calc2&#45;&gt;output -->
<g id="edge4" class="edge">
<title>calc2&#45;&gt;output</title>
<path fill="none" stroke="black" d="M404,-73.83C404,-66.13 404,-56.97 404,-48.42"/>
<polygon fill="black" stroke="black" points="407.5,-48.41 404,-38.41 400.5,-48.41 407.5,-48.41"/>
</g>
</g>
</svg>
