<?xml version="1.0" encoding="UTF-8" standalone="no"?>
<!DOCTYPE svg PUBLIC "-//W3C//DTD SVG 1.1//EN"
 "http://www.w3.org/Graphics/SVG/1.1/DTD/svg11.dtd">
<!-- Generated by graphviz version 2.43.0 (0)
 -->
<!-- Title: main Pages: 1 -->
<svg width="446pt" height="312pt"
 viewBox="0.00 0.00 446.00 312.00" xmlns="http://www.w3.org/2000/svg" xmlns:xlink="http://www.w3.org/1999/xlink">
<g id="graph0" class="graph" transform="scale(1 1) rotate(0) translate(4 308)">
<title>main</title>
<!-- Node1 -->
<g id="Node000001" class="node">
<title>Node1</title>
<g id="a_Node000001"><a xlink:title="Main function demonstrating the shape system.">
<polygon fill="#999999" stroke="#666666" points="41,-161 0,-161 0,-142 41,-142 41,-161"/>
<text text-anchor="middle" x="20.5" y="-149" font-family="Helvetica,sans-Serif" font-size="10.00">main</text>
</a>
</g>
</g>
<!-- Node2 -->
<g id="Node000002" class="node">
<title>Node2</title>
<g id="a_Node000002"><a xlink:href="class_shape_container.html#a524e0dc705ff087752389c724e1ba61f" target="_top" xlink:title="Add a shape to the container.">
<polygon fill="white" stroke="#666666" points="230,-304 82,-304 82,-285 230,-285 230,-304"/>
<text text-anchor="middle" x="156" y="-292" font-family="Helvetica,sans-Serif" font-size="10.00">ShapeContainer::addShape</text>
</a>
</g>
</g>
<!-- Node1&#45;&gt;Node2 -->
<g id="edge1_Node000001_Node000002" class="edge">
<title>Node1&#45;&gt;Node2</title>
<g id="a_edge1_Node000001_Node000002"><a xlink:title=" ">
<path fill="none" stroke="#63b8ff" d="M23.23,-161.11C27.79,-183.65 42.27,-240.26 77,-270.5 81.77,-274.65 87.24,-278.09 93.04,-280.93"/>
<polygon fill="#63b8ff" stroke="#63b8ff" points="91.77,-284.19 102.34,-284.92 94.53,-277.76 91.77,-284.19"/>
</a>
</g>
</g>
<!-- Node3 -->
<g id="Node000003" class="node">
<title>Node3</title>
<g id="a_Node000003"><a xlink:href="class_shape_factory.html#a3bea74bc905be9e8be1ca0836bb4baf3" target="_top" xlink:title="Create a circle with specified radius.">
<polygon fill="white" stroke="#666666" points="427.5,-243 281.5,-243 281.5,-224 427.5,-224 427.5,-243"/>
<text text-anchor="middle" x="354.5" y="-231" font-family="Helvetica,sans-Serif" font-size="10.00">ShapeFactory::createCircle</text>
</a>
</g>
</g>
<!-- Node1&#45;&gt;Node3 -->
<g id="edge2_Node000001_Node000003" class="edge">
<title>Node1&#45;&gt;Node3</title>
<g id="a_edge2_Node000001_Node000003"><a xlink:title=" ">
<path fill="none" stroke="#63b8ff" d="M24.36,-161.29C30.46,-180.12 46.73,-221.01 77,-237.5 152.01,-278.37 256.32,-260.49 312.96,-245.79"/>
<polygon fill="#63b8ff" stroke="#63b8ff" points="314.22,-249.08 322.97,-243.1 312.4,-242.32 314.22,-249.08"/>
</a>
</g>
</g>
<!-- Node4 -->
<g id="Node000004" class="node">
<title>Node4</title>
<g id="a_Node000004"><a xlink:href="class_shape_factory.html#a301f0b3cede6fcc3573d82ccba3364ac" target="_top" xlink:title="Create a random shape for testing purposes.">
<polygon fill="white" stroke="#666666" points="235,-228.5 77,-228.5 77,-198.5 235,-198.5 235,-228.5"/>
<text text-anchor="start" x="85" y="-216.5" font-family="Helvetica,sans-Serif" font-size="10.00">ShapeFactory::createRandom</text>
<text text-anchor="middle" x="156" y="-205.5" font-family="Helvetica,sans-Serif" font-size="10.00">Shape</text>
</a>
</g>
</g>
<!-- Node1&#45;&gt;Node4 -->
<g id="edge3_Node000001_Node000004" class="edge">
<title>Node1&#45;&gt;Node4</title>
<g id="a_edge3_Node000001_Node000004"><a xlink:title=" ">
<path fill="none" stroke="#63b8ff" d="M36.17,-161.22C47.13,-168.23 62.64,-177.63 77,-184.5 84.59,-188.13 92.76,-191.61 100.85,-194.82"/>
<polygon fill="#63b8ff" stroke="#63b8ff" points="99.69,-198.12 110.28,-198.45 102.21,-191.59 99.69,-198.12"/>
</a>
</g>
</g>
<!-- Node5 -->
<g id="Node000005" class="node">
<title>Node5</title>
<g id="a_Node000005"><a xlink:href="class_shape_factory.html#a1e70ea3e43d77528aba913db69cf2350" target="_top" xlink:title="Create a rectangle with specified dimensions.">
<polygon fill="white" stroke="#666666" points="438,-203 271,-203 271,-184 438,-184 438,-203"/>
<text text-anchor="middle" x="354.5" y="-191" font-family="Helvetica,sans-Serif" font-size="10.00">ShapeFactory::createRectangle</text>
</a>
</g>
</g>
<!-- Node1&#45;&gt;Node5 -->
<g id="edge6_Node000001_Node000005" class="edge">
<title>Node1&#45;&gt;Node5</title>
<g id="a_edge6_Node000001_Node000005"><a xlink:title=" ">
<path fill="none" stroke="#63b8ff" d="M41.27,-154C84.89,-159.52 191.56,-173.01 268.08,-182.69"/>
<polygon fill="#63b8ff" stroke="#63b8ff" points="267.83,-186.19 278.19,-183.97 268.71,-179.25 267.83,-186.19"/>
</a>
</g>
</g>
<!-- Node6 -->
<g id="Node000006" class="node">
<title>Node6</title>
<g id="a_Node000006"><a xlink:href="namespace_geometry_utils.html#a68963f87e1022edf69843d2ddcadb77c" target="_top" xlink:title="Calculate the distance between two points.">
<polygon fill="white" stroke="#666666" points="223.5,-142 88.5,-142 88.5,-123 223.5,-123 223.5,-142"/>
<text text-anchor="middle" x="156" y="-130" font-family="Helvetica,sans-Serif" font-size="10.00">GeometryUtils::distance</text>
</a>
</g>
</g>
<!-- Node1&#45;&gt;Node6 -->
<g id="edge7_Node000001_Node000006" class="edge">
<title>Node1&#45;&gt;Node6</title>
<g id="a_edge7_Node000001_Node000006"><a xlink:title=" ">
<path fill="none" stroke="#63b8ff" d="M41.2,-148.7C51.41,-147.24 64.62,-145.36 78.39,-143.4"/>
<polygon fill="#63b8ff" stroke="#63b8ff" points="79.08,-146.84 88.49,-141.97 78.1,-139.91 79.08,-146.84"/>
</a>
</g>
</g>
<!-- Node7 -->
<g id="Node000007" class="node">
<title>Node7</title>
<g id="a_Node000007"><a xlink:href="class_shape_container.html#a1e7faf9caad930f2f143bde446cd7d9d" target="_top" xlink:title="Draw all shapes in the container.">
<polygon fill="white" stroke="#666666" points="224.5,-105 87.5,-105 87.5,-86 224.5,-86 224.5,-105"/>
<text text-anchor="middle" x="156" y="-93" font-family="Helvetica,sans-Serif" font-size="10.00">ShapeContainer::drawAll</text>
</a>
</g>
</g>
<!-- Node1&#45;&gt;Node7 -->
<g id="edge8_Node000001_Node000007" class="edge">
<title>Node1&#45;&gt;Node7</title>
<g id="a_edge8_Node000001_Node000007"><a xlink:title=" ">
<path fill="none" stroke="#63b8ff" d="M32.65,-141.99C43.36,-133.33 60.32,-120.82 77,-113.5 81.65,-111.46 86.57,-109.63 91.57,-108"/>
<polygon fill="#63b8ff" stroke="#63b8ff" points="92.69,-111.32 101.27,-105.1 90.69,-104.61 92.69,-111.32"/>
</a>
</g>
</g>
<!-- Node8 -->
<g id="Node000008" class="node">
<title>Node8</title>
<g id="a_Node000008"><a xlink:href="class_shape_container.html#a1c08cc33c007bf342ea3fbf61b62132c" target="_top" xlink:title="Get the number of shapes in the container.">
<polygon fill="white" stroke="#666666" points="229,-67.5 83,-67.5 83,-37.5 229,-37.5 229,-67.5"/>
<text text-anchor="start" x="91" y="-55.5" font-family="Helvetica,sans-Serif" font-size="10.00">ShapeContainer::getShape</text>
<text text-anchor="middle" x="156" y="-44.5" font-family="Helvetica,sans-Serif" font-size="10.00">Count</text>
</a>
</g>
</g>
<!-- Node1&#45;&gt;Node8 -->
<g id="edge9_Node000001_Node000008" class="edge">
<title>Node1&#45;&gt;Node8</title>
<g id="a_edge9_Node000001_Node000008"><a xlink:title=" ">
<path fill="none" stroke="#63b8ff" d="M26.03,-141.91C34.06,-125.95 52.28,-94 77,-76.5 79.12,-75 81.35,-73.58 83.64,-72.26"/>
<polygon fill="#63b8ff" stroke="#63b8ff" points="85.49,-75.24 92.79,-67.57 82.3,-69.01 85.49,-75.24"/>
</a>
</g>
</g>
<!-- Node9 -->
<g id="Node000009" class="node">
<title>Node9</title>
<g id="a_Node000009"><a xlink:href="class_shape_container.html#a49820093c4efa84f1e18048104d9e0da" target="_top" xlink:title="Calculate total area of all shapes.">
<polygon fill="white" stroke="#666666" points="228.5,-19 83.5,-19 83.5,0 228.5,0 228.5,-19"/>
<text text-anchor="middle" x="156" y="-7" font-family="Helvetica,sans-Serif" font-size="10.00">ShapeContainer::totalArea</text>
</a>
</g>
</g>
<!-- Node1&#45;&gt;Node9 -->
<g id="edge10_Node000001_Node000009" class="edge">
<title>Node1&#45;&gt;Node9</title>
<g id="a_edge10_Node000001_Node000009"><a xlink:title=" ">
<path fill="none" stroke="#63b8ff" d="M22.95,-141.77C26.95,-118.42 40.41,-58.88 77,-28.5 79.02,-26.83 81.16,-25.29 83.4,-23.89"/>
<polygon fill="#63b8ff" stroke="#63b8ff" points="85.23,-26.88 92.44,-19.12 81.96,-20.69 85.23,-26.88"/>
</a>
</g>
</g>
<!-- Node4&#45;&gt;Node3 -->
<g id="edge4_Node000004_Node000003" class="edge">
<title>Node4&#45;&gt;Node3</title>
<g id="a_edge4_Node000004_Node000003"><a xlink:title=" ">
<path fill="none" stroke="#63b8ff" d="M235.23,-221.46C246.98,-222.66 259.13,-223.9 270.98,-225.1"/>
<polygon fill="#63b8ff" stroke="#63b8ff" points="270.98,-228.62 281.28,-226.15 271.69,-221.66 270.98,-228.62"/>
</a>
</g>
</g>
<!-- Node4&#45;&gt;Node5 -->
<g id="edge5_Node000004_Node000005" class="edge">
<title>Node4&#45;&gt;Node5</title>
<g id="a_edge5_Node000004_Node000005"><a xlink:title=" ">
<path fill="none" stroke="#63b8ff" d="M235.23,-205.54C243.61,-204.68 252.2,-203.81 260.73,-202.94"/>
<polygon fill="#63b8ff" stroke="#63b8ff" points="261.11,-206.42 270.71,-201.93 260.4,-199.46 261.11,-206.42"/>
</a>
</g>
</g>
</g>
</svg>
