<?xml version="1.0" encoding="UTF-8" standalone="no"?>
<!DOCTYPE svg PUBLIC "-//W3C//DTD SVG 1.1//EN"
 "http://www.w3.org/Graphics/SVG/1.1/DTD/svg11.dtd">
<!-- Generated by graphviz version 2.43.0 (0)
 -->
<!-- Title: Graphical Class Hierarchy Pages: 1 -->
<svg width="156pt" height="64pt"
 viewBox="0.00 0.00 156.00 64.00" xmlns="http://www.w3.org/2000/svg" xmlns:xlink="http://www.w3.org/1999/xlink">
<g id="graph0" class="graph" transform="scale(1 1) rotate(0) translate(4 60)">
<title>Graphical Class Hierarchy</title>
<!-- Node0 -->
<g id="Node000000" class="node">
<title>Node0</title>
<g id="a_Node000000"><a xlink:href="class_shape.html" target="_top" xlink:title="Abstract base class representing a drawable shape.">
<polygon fill="white" stroke="#666666" points="47,-37 0,-37 0,-18 47,-18 47,-37"/>
<text text-anchor="middle" x="23.5" y="-25" font-family="Helvetica,sans-Serif" font-size="10.00">Shape</text>
</a>
</g>
</g>
<!-- Node1 -->
<g id="Node000001" class="node">
<title>Node1</title>
<g id="a_Node000001"><a xlink:href="class_circle.html" target="_top" xlink:title="Concrete implementation of a circle shape.">
<polygon fill="white" stroke="#666666" points="137.5,-56 93.5,-56 93.5,-37 137.5,-37 137.5,-56"/>
<text text-anchor="middle" x="115.5" y="-44" font-family="Helvetica,sans-Serif" font-size="10.00">Circle</text>
</a>
</g>
</g>
<!-- Node0&#45;&gt;Node1 -->
<g id="edge3_Node000000_Node000001" class="edge">
<title>Node0&#45;&gt;Node1</title>
<g id="a_edge3_Node000000_Node000001"><a xlink:title=" ">
<path fill="none" stroke="#63b8ff" d="M57.35,-34.43C69.36,-36.97 82.62,-39.77 93.34,-42.03"/>
<polygon fill="#63b8ff" stroke="#63b8ff" points="57.72,-30.94 47.21,-32.29 56.27,-37.78 57.72,-30.94"/>
</a>
</g>
</g>
<!-- Node2 -->
<g id="Node000002" class="node">
<title>Node2</title>
<g id="a_Node000002"><a xlink:href="class_rectangle.html" target="_top" xlink:title="Concrete implementation of a rectangle shape.">
<polygon fill="white" stroke="#666666" points="148,-19 83,-19 83,0 148,0 148,-19"/>
<text text-anchor="middle" x="115.5" y="-7" font-family="Helvetica,sans-Serif" font-size="10.00">Rectangle</text>
</a>
</g>
</g>
<!-- Node0&#45;&gt;Node2 -->
<g id="edge4_Node000000_Node000002" class="edge">
<title>Node0&#45;&gt;Node2</title>
<g id="a_edge4_Node000000_Node000002"><a xlink:title=" ">
<path fill="none" stroke="#63b8ff" d="M57.09,-20.98C65.52,-19.3 74.58,-17.48 82.96,-15.81"/>
<polygon fill="#63b8ff" stroke="#63b8ff" points="56.33,-17.56 47.21,-22.96 57.7,-24.43 56.33,-17.56"/>
</a>
</g>
</g>
</g>
</svg>
