<?xml version="1.0" encoding="UTF-8" standalone="no"?>
<!DOCTYPE svg PUBLIC "-//W3C//DTD SVG 1.1//EN"
 "http://www.w3.org/Graphics/SVG/1.1/DTD/svg11.dtd">
<!-- Generated by graphviz version 2.43.0 (0)
 -->
<!-- Title: edge Pages: 1 -->
<svg width="391pt" height="172pt"
 viewBox="0.00 0.00 391.00 171.50" xmlns="http://www.w3.org/2000/svg" xmlns:xlink="http://www.w3.org/1999/xlink">

<svg id="main" version="1.1" xmlns="http://www.w3.org/2000/svg" xmlns:xlink="http://www.w3.org/1999/xlink" xml:space="preserve" onload="init(evt)">
<style type="text/css"><![CDATA[
.node, .edge {opacity: 0.7;}
.node.selected, .edge.selected {opacity: 1;}
.edge:hover path { stroke: red; }
.edge:hover polygon { stroke: red; fill: red; }
]]></style>
<script type="application/ecmascript" xlink:href="svg.min.js"/>
<svg id="graph" class="graph">
<g id="graph0" class="graph" transform="scale(1 1) rotate(0) translate(4 167.5)">
<title>edge</title>
<!-- Node1 -->
<g id="Node000001" class="node">
<title>Node1</title>
<g id="a_Node000001"><a xlink:title=" ">
<polygon fill="#999999" stroke="#666666" points="41,-86 0,-86 0,-67 41,-67 41,-86"/>
<text text-anchor="middle" x="20.5" y="-74" font-family="Helvetica,sans-Serif" font-size="10.00">edge</text>
</a>
</g>
</g>
<!-- Node2 -->
<g id="Node000002" class="node">
<title>Node2</title>
<g id="a_Node000002"><a xlink:href="class_calculator_service.html#a769ea16b132231936fb0241586dd29e7" target="_top" xlink:title="Begin the processing loop (blocking call).">
<polygon fill="white" stroke="#666666" points="185,-91.5 77,-91.5 77,-61.5 185,-61.5 185,-91.5"/>
<text text-anchor="start" x="85" y="-79.5" font-family="Helvetica,sans-Serif" font-size="10.00">CalculatorService::</text>
<text text-anchor="middle" x="131" y="-68.5" font-family="Helvetica,sans-Serif" font-size="10.00">start</text>
</a>
</g>
</g>
<!-- Node1&#45;&gt;Node2 -->
<g id="edge1_Node000001_Node000002" class="edge">
<title>Node1&#45;&gt;Node2</title>
<g id="a_edge1_Node000001_Node000002"><a xlink:title=" ">
<path fill="none" stroke="#63b8ff" d="M41.15,-76.5C48.5,-76.5 57.31,-76.5 66.49,-76.5"/>
<polygon fill="#63b8ff" stroke="#63b8ff" points="66.54,-80 76.54,-76.5 66.54,-73 66.54,-80"/>
</a>
</g>
</g>
<!-- Node3 -->
<g id="Node000003" class="node">
<title>Node3</title>
<g id="a_Node000003"><a xlink:href="class_track_calculations.html#a667256730f5193686d3114e5494cad4e" target="_top" xlink:title="Calculates first hop delay time in nanoseconds.">
<polygon fill="white" stroke="#666666" points="379.5,-163.5 224.5,-163.5 224.5,-133.5 379.5,-133.5 379.5,-163.5"/>
<text text-anchor="start" x="232.5" y="-151.5" font-family="Helvetica,sans-Serif" font-size="10.00">TrackCalculations::</text>
<text text-anchor="middle" x="302" y="-140.5" font-family="Helvetica,sans-Serif" font-size="10.00">calculateFirstHopDelayTime</text>
</a>
</g>
</g>
<!-- Node2&#45;&gt;Node3 -->
<g id="edge2_Node000002_Node000003" class="edge">
<title>Node2&#45;&gt;Node3</title>
<g id="a_edge2_Node000002_Node000003"><a xlink:title=" ">
<path fill="none" stroke="#63b8ff" d="M156.65,-91.56C174.16,-101.81 198.46,-115.15 221,-124.5 225.73,-126.46 230.69,-128.34 235.71,-130.12"/>
<polygon fill="#63b8ff" stroke="#63b8ff" points="234.81,-133.51 245.4,-133.42 237.06,-126.88 234.81,-133.51"/>
</a>
</g>
</g>
<!-- Node4 -->
<g id="Node000004" class="node">
<title>Node4</title>
<g id="a_Node000004"><a xlink:href="class_track_calculations.html#a9bba5b67b4497fb443b56c6e7dd6c45a" target="_top" xlink:title="Calculates second hop sent time as the current system time in nanoseconds.">
<polygon fill="white" stroke="#666666" points="383,-115.5 221,-115.5 221,-85.5 383,-85.5 383,-115.5"/>
<text text-anchor="start" x="229" y="-103.5" font-family="Helvetica,sans-Serif" font-size="10.00">TrackCalculations::</text>
<text text-anchor="middle" x="302" y="-92.5" font-family="Helvetica,sans-Serif" font-size="10.00">calculateSecondHopSentTime</text>
</a>
</g>
</g>
<!-- Node2&#45;&gt;Node4 -->
<g id="edge3_Node000002_Node000004" class="edge">
<title>Node2&#45;&gt;Node4</title>
<g id="a_edge3_Node000002_Node000004"><a xlink:title=" ">
<path fill="none" stroke="#63b8ff" d="M185.01,-84.03C193.31,-85.21 202.08,-86.45 210.93,-87.71"/>
<polygon fill="#63b8ff" stroke="#63b8ff" points="210.55,-91.19 220.94,-89.13 211.54,-84.26 210.55,-91.19"/>
</a>
</g>
</g>
<!-- Node5 -->
<g id="Node000005" class="node">
<title>Node5</title>
<g id="a_Node000005"><a xlink:href="class_delay_calculated_track_data.html#a2d3429b2f8abd54a70ea1731c860837d" target="_top" xlink:title="Validates if all required fields have reasonable values.">
<polygon fill="white" stroke="#666666" points="375,-67.5 229,-67.5 229,-37.5 375,-37.5 375,-67.5"/>
<text text-anchor="start" x="237" y="-55.5" font-family="Helvetica,sans-Serif" font-size="10.00">DelayCalculatedTrackData</text>
<text text-anchor="middle" x="302" y="-44.5" font-family="Helvetica,sans-Serif" font-size="10.00">::isValid</text>
</a>
</g>
</g>
<!-- Node2&#45;&gt;Node5 -->
<g id="edge4_Node000002_Node000005" class="edge">
<title>Node2&#45;&gt;Node5</title>
<g id="a_edge4_Node000002_Node000005"><a xlink:title=" ">
<path fill="none" stroke="#63b8ff" d="M185.01,-68.97C195.79,-67.44 207.37,-65.8 218.89,-64.16"/>
<polygon fill="#63b8ff" stroke="#63b8ff" points="219.57,-67.6 228.98,-62.73 218.58,-60.67 219.57,-67.6"/>
</a>
</g>
</g>
<!-- Node6 -->
<g id="Node000006" class="node">
<title>Node6</title>
<g id="a_Node000006"><a xlink:href="class_track_data.html#a33dc7e4638c14a6cedcde00bf2c6e074" target="_top" xlink:title="Validates if all required fields have reasonable values.">
<polygon fill="white" stroke="#666666" points="354,-19 250,-19 250,0 354,0 354,-19"/>
<text text-anchor="middle" x="302" y="-7" font-family="Helvetica,sans-Serif" font-size="10.00">TrackData::isValid</text>
</a>
</g>
</g>
<!-- Node2&#45;&gt;Node6 -->
<g id="edge5_Node000002_Node000006" class="edge">
<title>Node2&#45;&gt;Node6</title>
<g id="a_edge5_Node000002_Node000006"><a xlink:title=" ">
<path fill="none" stroke="#63b8ff" d="M155.74,-61.48C173.22,-50.98 197.87,-37.31 221,-28.5 227.7,-25.95 234.84,-23.67 242,-21.65"/>
<polygon fill="#63b8ff" stroke="#63b8ff" points="242.97,-25.01 251.73,-19.06 241.17,-18.25 242.97,-25.01"/>
</a>
</g>
</g>
</g>
</svg>
</svg>

<style type='text/css'>
<![CDATA[
[data-mouse-over-selected='false'] { opacity: 0.7; }
[data-mouse-over-selected='true']  { opacity: 1.0; }
]]>
</style>
<script type="application/ecmascript"><![CDATA[
document.addEventListener('DOMContentLoaded', (event) => {
  highlightEdges();
  highlightAdjacentNodes();
});
]]></script>
</svg>
