<?xml version="1.0" encoding="UTF-8" standalone="no"?>
<!DOCTYPE svg PUBLIC "-//W3C//DTD SVG 1.1//EN"
 "http://www.w3.org/Graphics/SVG/1.1/DTD/svg11.dtd">
<!-- Generated by graphviz version 2.43.0 (0)
 -->
<!-- Title: src/application/main.cpp Pages: 1 -->
<!--zoomable 225 -->

<svg id="main" version="1.1" xmlns="http://www.w3.org/2000/svg" xmlns:xlink="http://www.w3.org/1999/xlink" xml:space="preserve" onload="init(evt)">
<style type="text/css"><![CDATA[
.node, .edge {opacity: 0.7;}
.node.selected, .edge.selected {opacity: 1;}
.edge:hover path { stroke: red; }
.edge:hover polygon { stroke: red; fill: red; }
]]></style>

<defs>
  <circle id="rim" cx="0" cy="0" r="7"/>
  <circle id="rim2" cx="0" cy="0" r="3.5"/>
  <g id="zoomPlus">
    <use xlink:href="#rim" fill="#404040"><set attributeName="fill" to="#808080" begin="zoomplus.mouseover" end="zoomplus.mouseout"/></use>
    <path d="M-4,0h8M0,-4v8" fill="none" stroke="white" stroke-width="1.5" pointer-events="none"/>
  </g>
  <g id="zoomMin">
    <use xlink:href="#rim" fill="#404040"><set attributeName="fill" to="#808080" begin="zoomminus.mouseover" end="zoomminus.mouseout"/></use>
    <path d="M-4,0h8" fill="none" stroke="white" stroke-width="1.5" pointer-events="none"/>
  </g>
  <g id="arrowUp" transform="translate(30 24)">
    <use xlink:href="#rim"/>
    <path pointer-events="none" fill="none" stroke="white" stroke-width="1.5" d="M0,-3.0v7 M-2.5,-0.5L0,-3.0L2.5,-0.5"/>
  </g>
  <g id="arrowRight" transform="rotate(90) translate(36 -43)">
    <use xlink:href="#rim"/>
    <path pointer-events="none" fill="none" stroke="white" stroke-width="1.5" d="M0,-3.0v7 M-2.5,-0.5L0,-3.0L2.5,-0.5"/>
  </g>
  <g id="arrowDown" transform="rotate(180) translate(-30 -48)">
    <use xlink:href="#rim"/>
    <path pointer-events="none" fill="none" stroke="white" stroke-width="1.5" d="M0,-3.0v7 M-2.5,-0.5L0,-3.0L2.5,-0.5"/>
  </g>
  <g id="arrowLeft" transform="rotate(270) translate(-36 17)">
    <use xlink:href="#rim"/>
    <path pointer-events="none" fill="none" stroke="white" stroke-width="1.5" d="M0,-3.0v7 M-2.5,-0.5L0,-3.0L2.5,-0.5"/>
  </g>
  <g id="resetDef">
    <use xlink:href="#rim2" fill="#404040"><set attributeName="fill" to="#808080" begin="reset.mouseover" end="reset.mouseout"/></use>
  </g>
</defs>
<script type="application/ecmascript">
var viewWidth = 999;
var viewHeight = 225;
var sectionId = 'dynsection-0';
</script>
<script type="application/ecmascript" xlink:href="svg.min.js"/>
<svg id="graph" class="graph">
<g id="viewport">
<title>src/application/main.cpp</title>
<!-- Node1 -->
<g id="Node000001" class="node">
<title>Node1</title>
<g id="a_Node000001"><a xlink:title="Application entry point demonstrating Hexagonal Architecture assembly.">
<polygon fill="#999999" stroke="#666666" points="340,-217 204,-217 204,-198 340,-198 340,-217"/>
<text text-anchor="middle" x="272" y="-205" font-family="Helvetica,sans-Serif" font-size="10.00">src/application/main.cpp</text>
</a>
</g>
</g>
<!-- Node2 -->
<g id="Node000002" class="node">
<title>Node2</title>
<g id="a_Node000002"><a xlink:title=" ">
<polygon fill="#e0e0e0" stroke="#999999" points="60,-156.5 0,-156.5 0,-137.5 60,-137.5 60,-156.5"/>
<text text-anchor="middle" x="30" y="-144.5" font-family="Helvetica,sans-Serif" font-size="10.00">iostream</text>
</a>
</g>
</g>
<!-- Node1&#45;&gt;Node2 -->
<g id="edge1_Node000001_Node000002" class="edge">
<title>Node1&#45;&gt;Node2</title>
<g id="a_edge1_Node000001_Node000002"><a xlink:title=" ">
<path fill="none" stroke="#63b8ff" d="M228.86,-197.93C188.57,-189.67 126.88,-176.33 74,-162 71.17,-161.23 68.25,-160.4 65.33,-159.54"/>
<polygon fill="#63b8ff" stroke="#63b8ff" points="66.07,-156.1 55.48,-156.52 64.02,-162.8 66.07,-156.1"/>
</a>
</g>
</g>
<!-- Node3 -->
<g id="Node000003" class="node">
<title>Node3</title>
<g id="a_Node000003"><a xlink:title=" ">
<polygon fill="#e0e0e0" stroke="#999999" points="122,-90.5 64,-90.5 64,-71.5 122,-71.5 122,-90.5"/>
<text text-anchor="middle" x="93" y="-78.5" font-family="Helvetica,sans-Serif" font-size="10.00">memory</text>
</a>
</g>
</g>
<!-- Node1&#45;&gt;Node3 -->
<g id="edge2_Node000001_Node000003" class="edge">
<title>Node1&#45;&gt;Node3</title>
<g id="a_edge2_Node000001_Node000003"><a xlink:title=" ">
<path fill="none" stroke="#63b8ff" d="M203.77,-204.65C170.03,-200.08 131.42,-188.72 107,-162 91.95,-145.53 90.16,-118.85 90.98,-100.88"/>
<polygon fill="#63b8ff" stroke="#63b8ff" points="94.48,-100.99 91.76,-90.75 87.5,-100.45 94.48,-100.99"/>
</a>
</g>
</g>
<!-- Node4 -->
<g id="Node000004" class="node">
<title>Node4</title>
<g id="a_Node000004"><a xlink:title=" ">
<polygon fill="#e0e0e0" stroke="#999999" points="355.5,-90.5 290.5,-90.5 290.5,-71.5 355.5,-71.5 355.5,-90.5"/>
<text text-anchor="middle" x="323" y="-78.5" font-family="Helvetica,sans-Serif" font-size="10.00">stdexcept</text>
</a>
</g>
</g>
<!-- Node1&#45;&gt;Node4 -->
<g id="edge3_Node000001_Node000004" class="edge">
<title>Node1&#45;&gt;Node4</title>
<g id="a_edge3_Node000001_Node000004"><a xlink:title=" ">
<path fill="none" stroke="#63b8ff" d="M283.8,-197.69C293.67,-189.59 307.21,-176.65 314,-162 322.98,-142.63 324.45,-117.9 324.17,-101.09"/>
<polygon fill="#63b8ff" stroke="#63b8ff" points="327.66,-100.74 323.77,-90.89 320.67,-101.02 327.66,-100.74"/>
</a>
</g>
</g>
<!-- Node5 -->
<g id="Node000005" class="node">
<title>Node5</title>
<g id="a_Node000005"><a xlink:href="_calculator_service_8hpp.html" target="_top" xlink:title="Declares the application service coordinating domain calculations and I/O.">
<polygon fill="white" stroke="#666666" points="305.5,-156.5 116.5,-156.5 116.5,-137.5 305.5,-137.5 305.5,-156.5"/>
<text text-anchor="middle" x="211" y="-144.5" font-family="Helvetica,sans-Serif" font-size="10.00">domain/logic/CalculatorService.hpp</text>
</a>
</g>
</g>
<!-- Node1&#45;&gt;Node5 -->
<g id="edge4_Node000001_Node000005" class="edge">
<title>Node1&#45;&gt;Node5</title>
<g id="a_edge4_Node000001_Node000005"><a xlink:title=" ">
<path fill="none" stroke="#63b8ff" d="M263,-197.87C253.63,-188.88 238.75,-174.61 227.3,-163.64"/>
<polygon fill="#63b8ff" stroke="#63b8ff" points="229.68,-161.06 220.04,-156.67 224.83,-166.12 229.68,-161.06"/>
</a>
</g>
</g>
<!-- Node10 -->
<g id="Node000010" class="node">
<title>Node10</title>
<g id="a_Node000010"><a xlink:href="_zero_m_q_data_receiver_8hpp.html" target="_top" xlink:title=" ">
<polygon fill="white" stroke="#666666" points="535.5,-162 362.5,-162 362.5,-132 535.5,-132 535.5,-162"/>
<text text-anchor="start" x="370.5" y="-150" font-family="Helvetica,sans-Serif" font-size="10.00">adapters/incoming/ZeroMQData</text>
<text text-anchor="middle" x="449" y="-139" font-family="Helvetica,sans-Serif" font-size="10.00">Receiver.hpp</text>
</a>
</g>
</g>
<!-- Node1&#45;&gt;Node10 -->
<g id="edge10_Node000001_Node000010" class="edge">
<title>Node1&#45;&gt;Node10</title>
<g id="a_edge10_Node000001_Node000010"><a xlink:title=" ">
<path fill="none" stroke="#63b8ff" d="M297.74,-197.99C323.54,-189.46 364.02,-176.09 396.61,-165.32"/>
<polygon fill="#63b8ff" stroke="#63b8ff" points="398.05,-168.53 406.45,-162.06 395.85,-161.88 398.05,-168.53"/>
</a>
</g>
</g>
<!-- Node16 -->
<g id="Node000016" class="node">
<title>Node16</title>
<g id="a_Node000016"><a xlink:href="_zero_m_q_data_sender_8hpp.html" target="_top" xlink:title=" ">
<polygon fill="white" stroke="#666666" points="874,-162 704,-162 704,-132 874,-132 874,-162"/>
<text text-anchor="start" x="712" y="-150" font-family="Helvetica,sans-Serif" font-size="10.00">adapters/outgoing/ZeroMQData</text>
<text text-anchor="middle" x="789" y="-139" font-family="Helvetica,sans-Serif" font-size="10.00">Sender.hpp</text>
</a>
</g>
</g>
<!-- Node1&#45;&gt;Node16 -->
<g id="edge19_Node000001_Node000016" class="edge">
<title>Node1&#45;&gt;Node16</title>
<g id="a_edge19_Node000001_Node000016"><a xlink:title=" ">
<path fill="none" stroke="#63b8ff" d="M340.12,-198.79C430.74,-188.54 591.4,-170.36 693.93,-158.76"/>
<polygon fill="#63b8ff" stroke="#63b8ff" points="694.43,-162.22 703.97,-157.62 693.64,-155.27 694.43,-162.22"/>
</a>
</g>
</g>
<!-- Node5&#45;&gt;Node3 -->
<g id="edge9_Node000005_Node000003" class="edge">
<title>Node5&#45;&gt;Node3</title>
<g id="a_edge9_Node000005_Node000003"><a xlink:title=" ">
<path fill="none" stroke="#63b8ff" d="M195.09,-137.37C175.29,-126.63 141.27,-108.18 117.99,-95.55"/>
<polygon fill="#63b8ff" stroke="#63b8ff" points="119.5,-92.39 109.04,-90.7 116.16,-98.54 119.5,-92.39"/>
</a>
</g>
</g>
<!-- Node6 -->
<g id="Node000006" class="node">
<title>Node6</title>
<g id="a_Node000006"><a xlink:href="_i_data_receiver_8hpp.html" target="_top" xlink:title="Declares the incoming port abstraction for acquiring raw domain input (TrackData).">
<polygon fill="white" stroke="#666666" points="272.5,-96 143.5,-96 143.5,-66 272.5,-66 272.5,-96"/>
<text text-anchor="start" x="151.5" y="-84" font-family="Helvetica,sans-Serif" font-size="10.00">domain/ports/incoming</text>
<text text-anchor="middle" x="208" y="-73" font-family="Helvetica,sans-Serif" font-size="10.00">/IDataReceiver.hpp</text>
</a>
</g>
</g>
<!-- Node5&#45;&gt;Node6 -->
<g id="edge5_Node000005_Node000006" class="edge">
<title>Node5&#45;&gt;Node6</title>
<g id="a_edge5_Node000005_Node000006"><a xlink:title=" ">
<path fill="none" stroke="#63b8ff" d="M210.6,-137.37C210.23,-129.49 209.66,-117.45 209.15,-106.6"/>
<polygon fill="#63b8ff" stroke="#63b8ff" points="212.64,-106.19 208.67,-96.36 205.65,-106.51 212.64,-106.19"/>
</a>
</g>
</g>
<!-- Node8 -->
<g id="Node000008" class="node">
<title>Node8</title>
<g id="a_Node000008"><a xlink:href="_i_data_sender_8hpp.html" target="_top" xlink:title="Declares the outgoing port abstraction for emitting processed DelayCalculatedTrackData.">
<polygon fill="white" stroke="#666666" points="604.5,-96 477.5,-96 477.5,-66 604.5,-66 604.5,-96"/>
<text text-anchor="start" x="485.5" y="-84" font-family="Helvetica,sans-Serif" font-size="10.00">domain/ports/outgoing</text>
<text text-anchor="middle" x="541" y="-73" font-family="Helvetica,sans-Serif" font-size="10.00">/IDataSender.hpp</text>
</a>
</g>
</g>
<!-- Node5&#45;&gt;Node8 -->
<g id="edge7_Node000005_Node000008" class="edge">
<title>Node5&#45;&gt;Node8</title>
<g id="a_edge7_Node000005_Node000008"><a xlink:title=" ">
<path fill="none" stroke="#63b8ff" d="M255.16,-137.44C309.34,-126.93 402,-108.96 467.1,-96.33"/>
<polygon fill="#63b8ff" stroke="#63b8ff" points="468.16,-99.69 477.31,-94.35 466.82,-92.82 468.16,-99.69"/>
</a>
</g>
</g>
<!-- Node7 -->
<g id="Node000007" class="node">
<title>Node7</title>
<g id="a_Node000007"><a xlink:href="_track_data_8hpp.html" target="_top" xlink:title=" ">
<polygon fill="white" stroke="#666666" points="413,-24.5 253,-24.5 253,-5.5 413,-5.5 413,-24.5"/>
<text text-anchor="middle" x="333" y="-12.5" font-family="Helvetica,sans-Serif" font-size="10.00">domain/model/TrackData.hpp</text>
</a>
</g>
</g>
<!-- Node6&#45;&gt;Node7 -->
<g id="edge6_Node000006_Node000007" class="edge">
<title>Node6&#45;&gt;Node7</title>
<g id="a_edge6_Node000006_Node000007"><a xlink:title=" ">
<path fill="none" stroke="#63b8ff" d="M235.43,-65.95C256.87,-54.98 286.45,-39.83 307.4,-29.11"/>
<polygon fill="#63b8ff" stroke="#63b8ff" points="309.06,-32.19 316.36,-24.52 305.87,-25.96 309.06,-32.19"/>
</a>
</g>
</g>
<!-- Node9 -->
<g id="Node000009" class="node">
<title>Node9</title>
<g id="a_Node000009"><a xlink:href="_delay_calculated_track_data_8hpp.html" target="_top" xlink:title=" ">
<polygon fill="white" stroke="#666666" points="676,-30 506,-30 506,0 676,0 676,-30"/>
<text text-anchor="start" x="514" y="-18" font-family="Helvetica,sans-Serif" font-size="10.00">domain/model/DelayCalculated</text>
<text text-anchor="middle" x="591" y="-7" font-family="Helvetica,sans-Serif" font-size="10.00">TrackData.hpp</text>
</a>
</g>
</g>
<!-- Node8&#45;&gt;Node9 -->
<g id="edge8_Node000008_Node000009" class="edge">
<title>Node8&#45;&gt;Node9</title>
<g id="a_edge8_Node000008_Node000009"><a xlink:title=" ">
<path fill="none" stroke="#63b8ff" d="M552.1,-65.8C558.44,-57.68 566.54,-47.31 573.7,-38.15"/>
<polygon fill="#63b8ff" stroke="#63b8ff" points="576.54,-40.2 579.93,-30.16 571.02,-35.89 576.54,-40.2"/>
</a>
</g>
</g>
<!-- Node10&#45;&gt;Node4 -->
<g id="edge17_Node000010_Node000004" class="edge">
<title>Node10&#45;&gt;Node4</title>
<g id="a_edge17_Node000010_Node000004"><a xlink:title=" ">
<path fill="none" stroke="#63b8ff" d="M421.35,-131.95C399.74,-120.98 369.92,-105.83 348.8,-95.11"/>
<polygon fill="#63b8ff" stroke="#63b8ff" points="350.27,-91.93 339.77,-90.52 347.1,-98.17 350.27,-91.93"/>
</a>
</g>
</g>
<!-- Node10&#45;&gt;Node6 -->
<g id="edge11_Node000010_Node000006" class="edge">
<title>Node10&#45;&gt;Node6</title>
<g id="a_edge11_Node000010_Node000006"><a xlink:title=" ">
<path fill="none" stroke="#63b8ff" d="M396.11,-131.95C359.07,-122.12 309.42,-108.93 270.43,-98.58"/>
<polygon fill="#63b8ff" stroke="#63b8ff" points="271.33,-95.2 260.77,-96.01 269.53,-101.96 271.33,-95.2"/>
</a>
</g>
</g>
<!-- Node10&#45;&gt;Node7 -->
<g id="edge12_Node000010_Node000007" class="edge">
<title>Node10&#45;&gt;Node7</title>
<g id="a_edge12_Node000010_Node000007"><a xlink:title=" ">
<path fill="none" stroke="#63b8ff" d="M435.62,-131.65C426.39,-121.7 413.87,-108.12 403,-96 383.48,-74.24 361.32,-48.78 347.26,-32.53"/>
<polygon fill="#63b8ff" stroke="#63b8ff" points="349.88,-30.22 340.7,-24.94 344.59,-34.8 349.88,-30.22"/>
</a>
</g>
</g>
<!-- Node11 -->
<g id="Node000011" class="node">
<title>Node11</title>
<g id="a_Node000011"><a xlink:title=" ">
<polygon fill="#e0e0e0" stroke="#999999" points="748.5,-90.5 689.5,-90.5 689.5,-71.5 748.5,-71.5 748.5,-90.5"/>
<text text-anchor="middle" x="719" y="-78.5" font-family="Helvetica,sans-Serif" font-size="10.00">zmq.hpp</text>
</a>
</g>
</g>
<!-- Node10&#45;&gt;Node11 -->
<g id="edge13_Node000010_Node000011" class="edge">
<title>Node10&#45;&gt;Node11</title>
<g id="a_edge13_Node000010_Node000011"><a xlink:title=" ">
<path fill="none" stroke="#63b8ff" d="M527.28,-131.98C572.58,-123.16 630.45,-110.68 681,-96 683.28,-95.34 685.62,-94.61 687.96,-93.84"/>
<polygon fill="#63b8ff" stroke="#63b8ff" points="689.18,-97.12 697.47,-90.53 686.88,-90.51 689.18,-97.12"/>
</a>
</g>
</g>
<!-- Node12 -->
<g id="Node000012" class="node">
<title>Node12</title>
<g id="a_Node000012"><a xlink:title=" ">
<polygon fill="#e0e0e0" stroke="#999999" points="811,-90.5 767,-90.5 767,-71.5 811,-71.5 811,-90.5"/>
<text text-anchor="middle" x="789" y="-78.5" font-family="Helvetica,sans-Serif" font-size="10.00">string</text>
</a>
</g>
</g>
<!-- Node10&#45;&gt;Node12 -->
<g id="edge14_Node000010_Node000012" class="edge">
<title>Node10&#45;&gt;Node12</title>
<g id="a_edge14_Node000010_Node000012"><a xlink:title=" ">
<path fill="none" stroke="#63b8ff" d="M535.62,-138.16C598.34,-131.01 684.63,-118.08 758,-96 759.63,-95.51 761.29,-94.95 762.95,-94.35"/>
<polygon fill="#63b8ff" stroke="#63b8ff" points="764.33,-97.56 772.26,-90.53 761.68,-91.09 764.33,-97.56"/>
</a>
</g>
</g>
<!-- Node13 -->
<g id="Node000013" class="node">
<title>Node13</title>
<g id="a_Node000013"><a xlink:title=" ">
<polygon fill="#e0e0e0" stroke="#999999" points="885,-90.5 829,-90.5 829,-71.5 885,-71.5 885,-90.5"/>
<text text-anchor="middle" x="857" y="-78.5" font-family="Helvetica,sans-Serif" font-size="10.00">sstream</text>
</a>
</g>
</g>
<!-- Node10&#45;&gt;Node13 -->
<g id="edge15_Node000010_Node000013" class="edge">
<title>Node10&#45;&gt;Node13</title>
<g id="a_edge15_Node000010_Node000013"><a xlink:title=" ">
<path fill="none" stroke="#63b8ff" d="M535.52,-139.95C611.4,-133.32 724.23,-120.23 820,-96 822.45,-95.38 824.95,-94.65 827.45,-93.85"/>
<polygon fill="#63b8ff" stroke="#63b8ff" points="828.62,-97.15 836.91,-90.55 826.32,-90.54 828.62,-97.15"/>
</a>
</g>
</g>
<!-- Node14 -->
<g id="Node000014" class="node">
<title>Node14</title>
<g id="a_Node000014"><a xlink:title=" ">
<polygon fill="#e0e0e0" stroke="#999999" points="459.5,-90.5 412.5,-90.5 412.5,-71.5 459.5,-71.5 459.5,-90.5"/>
<text text-anchor="middle" x="436" y="-78.5" font-family="Helvetica,sans-Serif" font-size="10.00">vector</text>
</a>
</g>
</g>
<!-- Node10&#45;&gt;Node14 -->
<g id="edge16_Node000010_Node000014" class="edge">
<title>Node10&#45;&gt;Node14</title>
<g id="a_edge16_Node000010_Node000014"><a xlink:title=" ">
<path fill="none" stroke="#63b8ff" d="M446.11,-131.8C444.27,-122.7 441.85,-110.79 439.84,-100.9"/>
<polygon fill="#63b8ff" stroke="#63b8ff" points="443.22,-99.95 437.8,-90.84 436.36,-101.34 443.22,-99.95"/>
</a>
</g>
</g>
<!-- Node15 -->
<g id="Node000015" class="node">
<title>Node15</title>
<g id="a_Node000015"><a xlink:title=" ">
<polygon fill="#e0e0e0" stroke="#999999" points="671.5,-90.5 622.5,-90.5 622.5,-71.5 671.5,-71.5 671.5,-90.5"/>
<text text-anchor="middle" x="647" y="-78.5" font-family="Helvetica,sans-Serif" font-size="10.00">cctype</text>
</a>
</g>
</g>
<!-- Node10&#45;&gt;Node15 -->
<g id="edge18_Node000010_Node000015" class="edge">
<title>Node10&#45;&gt;Node15</title>
<g id="a_edge18_Node000010_Node000015"><a xlink:title=" ">
<path fill="none" stroke="#63b8ff" d="M500.38,-131.96C533.18,-122.63 576.43,-109.62 614,-96 615.39,-95.5 616.81,-94.97 618.23,-94.42"/>
<polygon fill="#63b8ff" stroke="#63b8ff" points="619.63,-97.63 627.59,-90.64 617.01,-91.14 619.63,-97.63"/>
</a>
</g>
</g>
<!-- Node16&#45;&gt;Node8 -->
<g id="edge20_Node000016_Node000008" class="edge">
<title>Node16&#45;&gt;Node8</title>
<g id="a_edge20_Node000016_Node000008"><a xlink:title=" ">
<path fill="none" stroke="#63b8ff" d="M734.58,-131.95C696.38,-122.1 645.15,-108.88 604.99,-98.51"/>
<polygon fill="#63b8ff" stroke="#63b8ff" points="605.86,-95.12 595.3,-96.01 604.11,-101.9 605.86,-95.12"/>
</a>
</g>
</g>
<!-- Node16&#45;&gt;Node9 -->
<g id="edge21_Node000016_Node000009" class="edge">
<title>Node16&#45;&gt;Node9</title>
<g id="a_edge21_Node000016_Node000009"><a xlink:title=" ">
<path fill="none" stroke="#63b8ff" d="M833.68,-131.94C871.94,-117.61 917.43,-93.61 894,-66 867.71,-35.02 765.33,-23.21 686.78,-18.72"/>
<polygon fill="#63b8ff" stroke="#63b8ff" points="686.53,-15.2 676.35,-18.16 686.15,-22.19 686.53,-15.2"/>
</a>
</g>
</g>
<!-- Node16&#45;&gt;Node11 -->
<g id="edge22_Node000016_Node000011" class="edge">
<title>Node16&#45;&gt;Node11</title>
<g id="a_edge22_Node000016_Node000011"><a xlink:title=" ">
<path fill="none" stroke="#63b8ff" d="M773.46,-131.8C762.44,-121.72 747.65,-108.19 736.26,-97.78"/>
<polygon fill="#63b8ff" stroke="#63b8ff" points="738.42,-95.01 728.67,-90.84 733.69,-100.18 738.42,-95.01"/>
</a>
</g>
</g>
<!-- Node16&#45;&gt;Node12 -->
<g id="edge23_Node000016_Node000012" class="edge">
<title>Node16&#45;&gt;Node12</title>
<g id="a_edge23_Node000016_Node000012"><a xlink:title=" ">
<path fill="none" stroke="#63b8ff" d="M789,-131.8C789,-122.7 789,-110.79 789,-100.9"/>
<polygon fill="#63b8ff" stroke="#63b8ff" points="792.5,-100.84 789,-90.84 785.5,-100.84 792.5,-100.84"/>
</a>
</g>
</g>
<!-- Node16&#45;&gt;Node13 -->
<g id="edge24_Node000016_Node000013" class="edge">
<title>Node16&#45;&gt;Node13</title>
<g id="a_edge24_Node000016_Node000013"><a xlink:title=" ">
<path fill="none" stroke="#63b8ff" d="M804.09,-131.8C814.8,-121.72 829.17,-108.19 840.23,-97.78"/>
<polygon fill="#63b8ff" stroke="#63b8ff" points="842.72,-100.25 847.6,-90.84 837.92,-95.15 842.72,-100.25"/>
</a>
</g>
</g>
<!-- Node17 -->
<g id="Node000017" class="node">
<title>Node17</title>
<g id="a_Node000017"><a xlink:title=" ">
<polygon fill="#e0e0e0" stroke="#999999" points="991,-90.5 941,-90.5 941,-71.5 991,-71.5 991,-90.5"/>
<text text-anchor="middle" x="966" y="-78.5" font-family="Helvetica,sans-Serif" font-size="10.00">cstring</text>
</a>
</g>
</g>
<!-- Node16&#45;&gt;Node17 -->
<g id="edge25_Node000016_Node000017" class="edge">
<title>Node16&#45;&gt;Node17</title>
<g id="a_edge25_Node000016_Node000017"><a xlink:title=" ">
<path fill="none" stroke="#63b8ff" d="M827.84,-131.95C859.29,-120.58 903.12,-104.74 932.91,-93.96"/>
<polygon fill="#63b8ff" stroke="#63b8ff" points="934.23,-97.21 942.44,-90.52 931.85,-90.63 934.23,-97.21"/>
</a>
</g>
</g>
</g>
</svg>

<g id="navigator" transform="translate(0 0)" fill="#404254">
  <rect fill="#f2f5e9" fill-opacity="0.5" stroke="#606060" stroke-width=".5" x="0" y="0" width="60" height="60"/>
  <use id="zoomplus" xlink:href="#zoomPlus" x="17" y="9" onmousedown="handleZoom(evt,'in')"/>
  <use id="zoomminus" xlink:href="#zoomMin" x="42" y="9" onmousedown="handleZoom(evt,'out')"/>
  <use id="reset" xlink:href="#resetDef" x="30" y="36" onmousedown="handleReset()"/>
   <use id="arrowup" xlink:href="#arrowUp" x="0" y="0" onmousedown="handlePan(0,-1)"/>
  <use id="arrowright" xlink:href="#arrowRight" x="0" y="0" onmousedown="handlePan(1,0)"/>
  <use id="arrowdown" xlink:href="#arrowDown" x="0" y="0" onmousedown="handlePan(0,1)"/>
  <use id="arrowleft" xlink:href="#arrowLeft" x="0" y="0" onmousedown="handlePan(-1,0)"/>
</g>
<svg viewBox="0 0 15 15" width="100%" height="30px" preserveAspectRatio="xMaxYMin meet">
 <g id="arrow_out" transform="scale(0.3 0.3)">
  <a xlink:href="main_8cpp__incl_org.svg" target="_base">
   <rect id="button" ry="5" rx="5" y="6" x="6" height="38" width="38"
        fill="#f2f5e9" fill-opacity="0.5" stroke="#606060" stroke-width="1.0"/>
   <path id="arrow"
     d="M 11.500037,31.436501 C 11.940474,20.09759 22.043105,11.32322 32.158766,21.979434 L 37.068811,17.246167 C 37.068811,17.246167 37.088388,32 37.088388,32 L 22.160133,31.978069 C 22.160133,31.978069 26.997745,27.140456 26.997745,27.140456 C 18.528582,18.264221 13.291696,25.230495 11.500037,31.436501 z"
     style="fill:#404040;"/>
  </a>
 </g>
</svg>

<style type='text/css'>
<![CDATA[
[data-mouse-over-selected='false'] { opacity: 0.7; }
[data-mouse-over-selected='true']  { opacity: 1.0; }
]]>
</style>
<script type="application/ecmascript"><![CDATA[
document.addEventListener('DOMContentLoaded', (event) => {
  highlightEdges();
  highlightAdjacentNodes();
});
]]></script>
</svg>
