<?xml version="1.0" encoding="UTF-8" standalone="no"?>
<!DOCTYPE svg PUBLIC "-//W3C//DTD SVG 1.1//EN"
 "http://www.w3.org/Graphics/SVG/1.1/DTD/svg11.dtd">
<!-- Generated by graphviz version 2.43.0 (0)
 -->
<!-- Title: hexagon::domain::usecases::ProcessTrackUseCase::ProcessingMetrics Pages: 1 -->
<svg width="154pt" height="139pt"
 viewBox="0.00 0.00 154.00 139.00" xmlns="http://www.w3.org/2000/svg" xmlns:xlink="http://www.w3.org/1999/xlink">
<g id="graph0" class="graph" transform="scale(1 1) rotate(0) translate(4 135)">
<title>hexagon::domain::usecases::ProcessTrackUseCase::ProcessingMetrics</title>
<!-- Node1 -->
<g id="Node000001" class="node">
<title>Node1</title>
<g id="a_Node000001"><a xlink:title="Processing statistics for monitoring and analytics.">
<polygon fill="#999999" stroke="transparent" points="146,-131 0,-131 0,0 146,0 146,-131"/>
<text text-anchor="start" x="5" y="-118.5" font-family="Helvetica,sans-Serif" font-size="10.00">hexagon::domain::usecases</text>
<text text-anchor="start" x="5" y="-107.5" font-family="Helvetica,sans-Serif" font-size="10.00">::ProcessTrackUseCase::</text>
<text text-anchor="start" x="28.5" y="-96.5" font-family="Helvetica,sans-Serif" font-size="10.00">ProcessingMetrics</text>
<text text-anchor="start" x="11.5" y="-81.5" font-family="Helvetica,sans-Serif" font-size="10.00">+</text>
<text text-anchor="start" x="32" y="-81.5" font-family="Helvetica,sans-Serif" font-size="10.00">processingTimeNs</text>
<text text-anchor="start" x="11.5" y="-66.5" font-family="Helvetica,sans-Serif" font-size="10.00">+</text>
<text text-anchor="start" x="32" y="-66.5" font-family="Helvetica,sans-Serif" font-size="10.00">calculationTimeNs</text>
<text text-anchor="start" x="11.5" y="-51.5" font-family="Helvetica,sans-Serif" font-size="10.00">+</text>
<text text-anchor="start" x="32" y="-51.5" font-family="Helvetica,sans-Serif" font-size="10.00">persistenceTimeNs</text>
<text text-anchor="start" x="11.5" y="-36.5" font-family="Helvetica,sans-Serif" font-size="10.00">+</text>
<text text-anchor="start" x="32" y="-36.5" font-family="Helvetica,sans-Serif" font-size="10.00">messagingTimeNs</text>
<text text-anchor="start" x="11.5" y="-21.5" font-family="Helvetica,sans-Serif" font-size="10.00">+</text>
<text text-anchor="start" x="32" y="-21.5" font-family="Helvetica,sans-Serif" font-size="10.00">validationPassed</text>
<text text-anchor="start" x="71" y="-6.5" font-family="Helvetica,sans-Serif" font-size="10.00"> </text>
<polygon fill="#666666" stroke="#666666" points="0,-91.5 0,-91.5 146,-91.5 146,-91.5 0,-91.5"/>
<polygon fill="#666666" stroke="#666666" points="0,-16.5 0,-16.5 30,-16.5 30,-16.5 0,-16.5"/>
<polygon fill="#666666" stroke="#666666" points="30,-16.5 30,-16.5 146,-16.5 146,-16.5 30,-16.5"/>
<polygon fill="none" stroke="#666666" points="0,0 0,-131 146,-131 146,0 0,0"/>
</a>
</g>
</g>
</g>
</svg>
